<mxfile host="app.diagrams.net" agent="Mozilla/5.0 (Windows NT 10.0; Win64; x64) AppleWebKit/537.36 (KHTML, like Gecko) Chrome/131.0.0.0 Safari/537.36" version="25.0.3">
  <diagram name="Page-1" id="efa7a0a1-bf9b-a30e-e6df-94a7791c09e9">
    <mxGraphModel dx="1912" dy="2153" grid="1" gridSize="10" guides="1" tooltips="1" connect="1" arrows="1" fold="1" page="1" pageScale="1" pageWidth="826" pageHeight="1169" background="none" math="0" shadow="0">
      <root>
        <mxCell id="0" />
        <mxCell id="1" parent="0" />
        <mxCell id="22" value="&lt;p style=&quot;margin: 0px; margin-top: 4px; text-align: center; text-decoration: underline;&quot;&gt;&lt;strong&gt;User&lt;/strong&gt;&lt;/p&gt;&lt;hr&gt;&lt;p style=&quot;margin: 0px; margin-left: 8px;&quot;&gt;UserId&lt;/p&gt;&lt;p style=&quot;margin: 0px; margin-left: 8px;&quot;&gt;UserName&lt;/p&gt;&lt;p style=&quot;margin: 0px; margin-left: 8px;&quot;&gt;FirstName&lt;/p&gt;&lt;p style=&quot;margin: 0px; margin-left: 8px;&quot;&gt;LastName&lt;/p&gt;&lt;p style=&quot;margin: 0px; margin-left: 8px;&quot;&gt;Email&lt;/p&gt;&lt;p style=&quot;margin: 0px; margin-left: 8px;&quot;&gt;Password&lt;/p&gt;&lt;p style=&quot;margin: 0px; margin-left: 8px;&quot;&gt;OktaLoginName&lt;/p&gt;&lt;p style=&quot;margin: 0px; margin-left: 8px;&quot;&gt;OktaLoginPassword&lt;/p&gt;&lt;p style=&quot;margin: 0px; margin-left: 8px;&quot;&gt;CreatedAt&lt;/p&gt;&lt;p style=&quot;margin: 0px; margin-left: 8px;&quot;&gt;UpdatedAt&lt;/p&gt;&lt;p style=&quot;margin: 0px; margin-left: 8px;&quot;&gt;ParentId&lt;/p&gt;&lt;p style=&quot;margin: 0px; margin-left: 8px;&quot;&gt;UserType&lt;/p&gt;&lt;p style=&quot;margin: 0px; margin-left: 8px;&quot;&gt;Enabled&lt;/p&gt;" style="verticalAlign=top;align=left;overflow=fill;fontSize=12;fontFamily=Helvetica;html=1;strokeColor=#003366;shadow=1;fillColor=#D4E1F5;fontColor=#003366" parent="1" vertex="1">
          <mxGeometry x="880" y="430" width="160" height="220" as="geometry" />
        </mxCell>
        <mxCell id="O4K4HBv5JaWxibDUjjqJ-116" value="&lt;p style=&quot;margin: 0px; margin-top: 4px; text-align: center; text-decoration: underline;&quot;&gt;&lt;b&gt;Relationship&lt;/b&gt;&lt;/p&gt;&lt;hr&gt;&lt;p style=&quot;margin: 0px; margin-left: 8px;&quot;&gt;RelationshipId&lt;/p&gt;&lt;p style=&quot;margin: 0px; margin-left: 8px;&quot;&gt;User1Id&lt;br&gt;User2Id&lt;/p&gt;&lt;p style=&quot;margin: 0px; margin-left: 8px;&quot;&gt;RelationshipType&lt;/p&gt;&lt;p style=&quot;margin: 0px; margin-left: 8px;&quot;&gt;&lt;br&gt;&lt;br&gt;&lt;/p&gt;&lt;p style=&quot;margin: 0px; margin-left: 8px;&quot;&gt;&lt;br&gt;&lt;/p&gt;&lt;p style=&quot;margin: 0px; margin-left: 8px;&quot;&gt;&lt;br&gt;&lt;/p&gt;&lt;p style=&quot;margin: 0px; margin-left: 8px;&quot;&gt;&lt;br&gt;&lt;/p&gt;&lt;p style=&quot;margin: 0px; margin-left: 8px;&quot;&gt;&lt;br&gt;&lt;/p&gt;&lt;p style=&quot;margin: 0px; margin-left: 8px;&quot;&gt;&lt;br&gt;&lt;/p&gt;" style="verticalAlign=top;align=left;overflow=fill;fontSize=12;fontFamily=Helvetica;html=1;strokeColor=#003366;shadow=1;fillColor=#D4E1F5;fontColor=#003366" vertex="1" parent="1">
          <mxGeometry x="500" y="485" width="160" height="100" as="geometry" />
        </mxCell>
        <mxCell id="O4K4HBv5JaWxibDUjjqJ-118" value="" style="fontSize=12;html=1;endArrow=ERone;startArrow=ERone;rounded=0;startFill=0;endFill=0;" edge="1" parent="1">
          <mxGeometry width="100" height="100" relative="1" as="geometry">
            <mxPoint x="870" y="520" as="sourcePoint" />
            <mxPoint x="670" y="520" as="targetPoint" />
          </mxGeometry>
        </mxCell>
        <mxCell id="O4K4HBv5JaWxibDUjjqJ-119" value="&lt;p style=&quot;margin: 0px; margin-top: 4px; text-align: center; text-decoration: underline;&quot;&gt;&lt;strong&gt;Trip&lt;/strong&gt;&lt;/p&gt;&lt;hr&gt;&lt;p style=&quot;margin: 0px; margin-left: 8px;&quot;&gt;TripId&lt;/p&gt;&lt;p style=&quot;margin: 0px; margin-left: 8px;&quot;&gt;StartDate&lt;/p&gt;&lt;p style=&quot;margin: 0px; margin-left: 8px;&quot;&gt;EndDate&lt;/p&gt;" style="verticalAlign=top;align=left;overflow=fill;fontSize=12;fontFamily=Helvetica;html=1;strokeColor=#003366;shadow=1;fillColor=#D4E1F5;fontColor=#003366" vertex="1" parent="1">
          <mxGeometry x="1270" y="430" width="160" height="200" as="geometry" />
        </mxCell>
        <mxCell id="O4K4HBv5JaWxibDUjjqJ-121" value="&lt;p style=&quot;margin: 0px; margin-top: 4px; text-align: center; text-decoration: underline;&quot;&gt;&lt;b&gt;Bid&lt;/b&gt;&lt;/p&gt;&lt;hr&gt;&lt;p style=&quot;margin: 0px; margin-left: 8px;&quot;&gt;BidId&lt;br&gt;BidString&lt;/p&gt;&lt;p style=&quot;margin: 0px; margin-left: 8px;&quot;&gt;SubmissionDate&lt;/p&gt;" style="verticalAlign=top;align=left;overflow=fill;fontSize=12;fontFamily=Helvetica;html=1;strokeColor=#003366;shadow=1;fillColor=#D4E1F5;fontColor=#003366" vertex="1" parent="1">
          <mxGeometry x="660" y="820" width="160" height="200" as="geometry" />
        </mxCell>
        <mxCell id="O4K4HBv5JaWxibDUjjqJ-123" value="" style="fontSize=12;html=1;endArrow=ERone;startArrow=ERone;rounded=0;endFill=0;startFill=0;" edge="1" parent="1">
          <mxGeometry width="100" height="100" relative="1" as="geometry">
            <mxPoint x="670" y="540" as="sourcePoint" />
            <mxPoint x="870" y="540" as="targetPoint" />
            <Array as="points" />
          </mxGeometry>
        </mxCell>
        <mxCell id="O4K4HBv5JaWxibDUjjqJ-124" value="" style="fontSize=12;html=1;endArrow=ERmany;startArrow=ERmany;rounded=0;endFill=0;startFill=0;" edge="1" parent="1">
          <mxGeometry width="100" height="100" relative="1" as="geometry">
            <mxPoint x="1050" y="550" as="sourcePoint" />
            <mxPoint x="1260" y="550" as="targetPoint" />
            <Array as="points" />
          </mxGeometry>
        </mxCell>
        <mxCell id="O4K4HBv5JaWxibDUjjqJ-125" value="&lt;p style=&quot;margin: 0px; margin-top: 4px; text-align: center; text-decoration: underline;&quot;&gt;&lt;b&gt;BidPackage&lt;/b&gt;&lt;/p&gt;&lt;hr&gt;&lt;p style=&quot;margin: 0px; margin-left: 8px;&quot;&gt;BidPackageId&lt;/p&gt;&lt;p style=&quot;margin: 0px; margin-left: 8px;&quot;&gt;BidPeriodId&lt;br&gt;ReleaseDate&lt;/p&gt;&lt;p style=&quot;margin: 0px; margin-left: 8px;&quot;&gt;ASCFileLocation&lt;/p&gt;&lt;p style=&quot;margin: 0px; margin-left: 8px;&quot;&gt;JSONData&lt;/p&gt;&lt;p style=&quot;margin: 0px; margin-left: 8px;&quot;&gt;&lt;br&gt;&lt;/p&gt;" style="verticalAlign=top;align=left;overflow=fill;fontSize=12;fontFamily=Helvetica;html=1;strokeColor=#003366;shadow=1;fillColor=#D4E1F5;fontColor=#003366" vertex="1" parent="1">
          <mxGeometry x="1170" y="820" width="160" height="200" as="geometry" />
        </mxCell>
        <mxCell id="O4K4HBv5JaWxibDUjjqJ-126" value="" style="fontSize=12;html=1;endArrow=ERmany;startArrow=ERmany;rounded=0;endFill=0;startFill=0;" edge="1" parent="1">
          <mxGeometry width="100" height="100" relative="1" as="geometry">
            <mxPoint x="1000" y="650" as="sourcePoint" />
            <mxPoint x="1000" y="810" as="targetPoint" />
            <Array as="points" />
          </mxGeometry>
        </mxCell>
        <mxCell id="O4K4HBv5JaWxibDUjjqJ-127" value="" style="fontSize=12;html=1;endArrow=ERone;startArrow=ERone;rounded=0;endFill=0;startFill=0;" edge="1" parent="1">
          <mxGeometry width="100" height="100" relative="1" as="geometry">
            <mxPoint x="826" y="890" as="sourcePoint" />
            <mxPoint x="906" y="890" as="targetPoint" />
            <Array as="points" />
          </mxGeometry>
        </mxCell>
        <mxCell id="O4K4HBv5JaWxibDUjjqJ-128" value="&lt;p style=&quot;margin: 0px; margin-top: 4px; text-align: center; text-decoration: underline;&quot;&gt;&lt;b&gt;UserBidPeriod&lt;/b&gt;&lt;/p&gt;&lt;hr&gt;&lt;p style=&quot;margin: 0px; margin-left: 8px;&quot;&gt;UserBidPeriodId&lt;/p&gt;&lt;p style=&quot;margin: 0px; margin-left: 8px;&quot;&gt;BidPeriodId&lt;/p&gt;&lt;p style=&quot;margin: 0px; margin-left: 8px;&quot;&gt;UserId&lt;/p&gt;" style="verticalAlign=top;align=left;overflow=fill;fontSize=12;fontFamily=Helvetica;html=1;strokeColor=#003366;shadow=1;fillColor=#D4E1F5;fontColor=#003366" vertex="1" parent="1">
          <mxGeometry x="910" y="670" width="140" height="100" as="geometry" />
        </mxCell>
        <mxCell id="O4K4HBv5JaWxibDUjjqJ-120" value="&lt;p style=&quot;margin: 0px; margin-top: 4px; text-align: center; text-decoration: underline;&quot;&gt;&lt;strong&gt;UserTrip&lt;/strong&gt;&lt;/p&gt;&lt;hr&gt;&lt;p style=&quot;margin: 0px; margin-left: 8px;&quot;&gt;UserToTripId&lt;br&gt;TripId&lt;br&gt;UserId&lt;/p&gt;&lt;p style=&quot;margin: 0px; margin-left: 8px;&quot;&gt;Completed?&lt;/p&gt;" style="verticalAlign=top;align=left;overflow=fill;fontSize=12;fontFamily=Helvetica;html=1;strokeColor=#003366;shadow=1;fillColor=#D4E1F5;fontColor=#003366" vertex="1" parent="1">
          <mxGeometry x="1079" y="430" width="160" height="200" as="geometry" />
        </mxCell>
        <mxCell id="O4K4HBv5JaWxibDUjjqJ-131" value="Users can search and send requests. User chat (and event subscriptions) can be facilitated through this relationship." style="shape=note;whiteSpace=wrap;html=1;backgroundOutline=1;darkOpacity=0.05;" vertex="1" parent="1">
          <mxGeometry x="710" y="320" width="130" height="160" as="geometry" />
        </mxCell>
        <mxCell id="O4K4HBv5JaWxibDUjjqJ-132" value="A trip will have a cohort. Trip.Users. Cohort chat can be a channel created with these users for the trip duration." style="whiteSpace=wrap;html=1;shape=mxgraph.basic.document" vertex="1" parent="1">
          <mxGeometry x="1090" y="285" width="140" height="100" as="geometry" />
        </mxCell>
        <mxCell id="O4K4HBv5JaWxibDUjjqJ-133" value="Open to tweak this relationship set" style="whiteSpace=wrap;html=1;shape=mxgraph.basic.document" vertex="1" parent="1">
          <mxGeometry x="720" y="670" width="140" height="100" as="geometry" />
        </mxCell>
        <mxCell id="O4K4HBv5JaWxibDUjjqJ-134" value="&lt;p style=&quot;margin: 0px; margin-top: 4px; text-align: center; text-decoration: underline;&quot;&gt;&lt;b&gt;BidPeriod&lt;/b&gt;&lt;/p&gt;&lt;hr&gt;&lt;p style=&quot;margin: 0px; margin-left: 8px;&quot;&gt;BidPeriodId&lt;/p&gt;&lt;p style=&quot;margin: 0px; margin-left: 8px;&quot;&gt;BidPackageId&lt;br&gt;ReleaseDate&lt;/p&gt;&lt;p style=&quot;margin: 0px; margin-left: 8px;&quot;&gt;ASCFileLocation&lt;/p&gt;&lt;p style=&quot;margin: 0px; margin-left: 8px;&quot;&gt;JSONData&lt;/p&gt;&lt;p style=&quot;margin: 0px; margin-left: 8px;&quot;&gt;&lt;br&gt;&lt;/p&gt;" style="verticalAlign=top;align=left;overflow=fill;fontSize=12;fontFamily=Helvetica;html=1;strokeColor=#003366;shadow=1;fillColor=#D4E1F5;fontColor=#003366" vertex="1" parent="1">
          <mxGeometry x="910" y="820" width="160" height="200" as="geometry" />
        </mxCell>
        <mxCell id="O4K4HBv5JaWxibDUjjqJ-135" value="" style="fontSize=12;html=1;endArrow=ERone;startArrow=ERone;rounded=0;endFill=0;startFill=0;" edge="1" parent="1">
          <mxGeometry width="100" height="100" relative="1" as="geometry">
            <mxPoint x="1079" y="890" as="sourcePoint" />
            <mxPoint x="1159" y="890" as="targetPoint" />
            <Array as="points" />
          </mxGeometry>
        </mxCell>
        <mxCell id="O4K4HBv5JaWxibDUjjqJ-136" value="&lt;p style=&quot;margin: 0px; margin-top: 4px; text-align: center; text-decoration: underline;&quot;&gt;&lt;b&gt;Airport&lt;/b&gt;&lt;/p&gt;&lt;hr&gt;&lt;p style=&quot;margin: 0px; margin-left: 8px;&quot;&gt;AirportId&lt;/p&gt;&lt;p style=&quot;margin: 0px; margin-left: 8px;&quot;&gt;LocationId&lt;/p&gt;&lt;p style=&quot;margin: 0px; margin-left: 8px;&quot;&gt;Code&lt;/p&gt;&lt;p style=&quot;margin: 0px; margin-left: 8px;&quot;&gt;&lt;br&gt;&lt;/p&gt;" style="verticalAlign=top;align=left;overflow=fill;fontSize=12;fontFamily=Helvetica;html=1;strokeColor=#003366;shadow=1;fillColor=#D4E1F5;fontColor=#003366" vertex="1" parent="1">
          <mxGeometry x="1480" y="130" width="160" height="200" as="geometry" />
        </mxCell>
        <mxCell id="O4K4HBv5JaWxibDUjjqJ-137" value="&lt;p style=&quot;margin: 0px; margin-top: 4px; text-align: center; text-decoration: underline;&quot;&gt;&lt;b&gt;Hotel&lt;/b&gt;&lt;/p&gt;&lt;hr&gt;&lt;p style=&quot;margin: 0px; margin-left: 8px;&quot;&gt;HotelId&lt;/p&gt;&lt;p style=&quot;margin: 0px; margin-left: 8px;&quot;&gt;LocationId&lt;/p&gt;&lt;p style=&quot;margin: 0px; margin-left: 8px;&quot;&gt;Amenities?&lt;/p&gt;" style="verticalAlign=top;align=left;overflow=fill;fontSize=12;fontFamily=Helvetica;html=1;strokeColor=#003366;shadow=1;fillColor=#D4E1F5;fontColor=#003366" vertex="1" parent="1">
          <mxGeometry x="1662" y="130" width="160" height="200" as="geometry" />
        </mxCell>
        <mxCell id="O4K4HBv5JaWxibDUjjqJ-138" value="&lt;p style=&quot;margin: 0px; margin-top: 4px; text-align: center; text-decoration: underline;&quot;&gt;&lt;b&gt;Restaurant&lt;/b&gt;&lt;/p&gt;&lt;hr&gt;&lt;p style=&quot;margin: 0px; margin-left: 8px;&quot;&gt;RestaurantId&lt;/p&gt;&lt;p style=&quot;margin: 0px; margin-left: 8px;&quot;&gt;LocationId&lt;/p&gt;&lt;p style=&quot;margin: 0px; margin-left: 8px;&quot;&gt;FoodType&lt;/p&gt;&lt;p style=&quot;margin: 0px; margin-left: 8px;&quot;&gt;etc&lt;/p&gt;" style="verticalAlign=top;align=left;overflow=fill;fontSize=12;fontFamily=Helvetica;html=1;strokeColor=#003366;shadow=1;fillColor=#D4E1F5;fontColor=#003366" vertex="1" parent="1">
          <mxGeometry x="1840" y="130" width="160" height="200" as="geometry" />
        </mxCell>
        <mxCell id="O4K4HBv5JaWxibDUjjqJ-140" value="&lt;p style=&quot;margin: 0px; margin-top: 4px; text-align: center; text-decoration: underline;&quot;&gt;&lt;b&gt;Location&lt;/b&gt;&lt;/p&gt;&lt;hr&gt;&lt;p style=&quot;margin: 0px; margin-left: 8px;&quot;&gt;LocationId&lt;/p&gt;&lt;p style=&quot;margin: 0px; margin-left: 8px;&quot;&gt;Type&lt;/p&gt;&lt;p style=&quot;margin: 0px; margin-left: 8px;&quot;&gt;Name&lt;/p&gt;&lt;p style=&quot;margin: 0px; margin-left: 8px;&quot;&gt;City&lt;/p&gt;&lt;p style=&quot;margin: 0px; margin-left: 8px;&quot;&gt;Country&lt;/p&gt;" style="verticalAlign=top;align=left;overflow=fill;fontSize=12;fontFamily=Helvetica;html=1;strokeColor=#003366;shadow=1;fillColor=#D4E1F5;fontColor=#003366" vertex="1" parent="1">
          <mxGeometry x="1670" y="440" width="160" height="200" as="geometry" />
        </mxCell>
        <mxCell id="O4K4HBv5JaWxibDUjjqJ-141" value="" style="fontSize=12;html=1;endArrow=ERone;startArrow=ERone;rounded=0;endFill=0;startFill=0;" edge="1" parent="1">
          <mxGeometry width="100" height="100" relative="1" as="geometry">
            <mxPoint x="1741.5" y="340" as="sourcePoint" />
            <mxPoint x="1741.5" y="430" as="targetPoint" />
            <Array as="points" />
          </mxGeometry>
        </mxCell>
        <mxCell id="O4K4HBv5JaWxibDUjjqJ-142" value="" style="fontSize=12;html=1;endArrow=ERone;startArrow=ERone;rounded=0;endFill=0;startFill=0;" edge="1" parent="1">
          <mxGeometry width="100" height="100" relative="1" as="geometry">
            <mxPoint x="1870.5" y="340" as="sourcePoint" />
            <mxPoint x="1780" y="430" as="targetPoint" />
            <Array as="points" />
          </mxGeometry>
        </mxCell>
        <mxCell id="O4K4HBv5JaWxibDUjjqJ-143" value="" style="fontSize=12;html=1;endArrow=ERone;startArrow=ERone;rounded=0;endFill=0;startFill=0;" edge="1" parent="1">
          <mxGeometry width="100" height="100" relative="1" as="geometry">
            <mxPoint x="1600" y="340" as="sourcePoint" />
            <mxPoint x="1700" y="430" as="targetPoint" />
            <Array as="points" />
          </mxGeometry>
        </mxCell>
        <mxCell id="O4K4HBv5JaWxibDUjjqJ-139" value="Having &quot;Type&quot; in the base table (Location) breaks 3NF, but I like it. I am keeping it." style="whiteSpace=wrap;html=1;shape=mxgraph.basic.document" vertex="1" parent="1">
          <mxGeometry x="1890" y="460" width="140" height="100" as="geometry" />
        </mxCell>
        <mxCell id="O4K4HBv5JaWxibDUjjqJ-145" value="" style="fontSize=12;html=1;endArrow=ERone;startArrow=ERone;rounded=0;endFill=0;startFill=0;" edge="1" parent="1">
          <mxGeometry width="100" height="100" relative="1" as="geometry">
            <mxPoint x="1740" y="660" as="sourcePoint" />
            <mxPoint x="1060" y="640" as="targetPoint" />
            <Array as="points">
              <mxPoint x="1740" y="750" />
            </Array>
          </mxGeometry>
        </mxCell>
        <mxCell id="O4K4HBv5JaWxibDUjjqJ-144" value="&lt;p style=&quot;margin: 0px; margin-top: 4px; text-align: center; text-decoration: underline;&quot;&gt;&lt;b&gt;Rating&lt;/b&gt;&lt;/p&gt;&lt;hr&gt;&lt;p style=&quot;margin: 0px; margin-left: 8px;&quot;&gt;RatingId&lt;/p&gt;&lt;p style=&quot;margin: 0px; margin-left: 8px;&quot;&gt;LocationId&lt;/p&gt;&lt;p style=&quot;margin: 0px; margin-left: 8px;&quot;&gt;UserId&lt;/p&gt;&lt;p style=&quot;margin: 0px; margin-left: 8px;&quot;&gt;Score&lt;/p&gt;&lt;p style=&quot;margin: 0px; margin-left: 8px;&quot;&gt;Comment&lt;/p&gt;&lt;p style=&quot;margin: 0px; margin-left: 8px;&quot;&gt;DateAdded&lt;/p&gt;" style="verticalAlign=top;align=left;overflow=fill;fontSize=12;fontFamily=Helvetica;html=1;strokeColor=#003366;shadow=1;fillColor=#D4E1F5;fontColor=#003366" vertex="1" parent="1">
          <mxGeometry x="1670" y="680" width="160" height="200" as="geometry" />
        </mxCell>
        <mxCell id="O4K4HBv5JaWxibDUjjqJ-146" value="We likely want to use some sort of location api, like google&#39;s, to get this information. We should then tie our id to the google id." style="whiteSpace=wrap;html=1;shape=mxgraph.basic.document" vertex="1" parent="1">
          <mxGeometry x="1500" y="-10" width="140" height="100" as="geometry" />
        </mxCell>
        <mxCell id="O4K4HBv5JaWxibDUjjqJ-147" value="&lt;br&gt;&lt;div&gt;Social Features:&lt;br&gt;&lt;div&gt;- Log in / Log out&lt;/div&gt;&lt;div&gt;- Invite family members to use the app and share trip information&lt;/div&gt;&lt;div&gt;- Find and friend other users&lt;/div&gt;&lt;div&gt;- Create and participate in chat groups&lt;/div&gt;&lt;div&gt;- Chat with other users&lt;/div&gt;&lt;div&gt;- Chat with their trip cohort&lt;/div&gt;&lt;div&gt;&lt;br&gt;&lt;/div&gt;&lt;div&gt;Planning Features&lt;/div&gt;&lt;div&gt;- View their schedule (past and present)&lt;/div&gt;&lt;div&gt;- View their trips&lt;/div&gt;&lt;div&gt;- Explore individual trips and the stops&lt;/div&gt;&lt;div&gt;- View metar report for location by date&lt;/div&gt;&lt;div&gt;&lt;br&gt;&lt;/div&gt;&lt;div&gt;Bidding Features&lt;/div&gt;&lt;div&gt;- View bid packs with a custom UX/UI&lt;/div&gt;&lt;div&gt;- Organize a bid&lt;/div&gt;&lt;div&gt;- Submit a bid&lt;br&gt;&lt;div&gt;&lt;br&gt;&lt;/div&gt;&lt;/div&gt;&lt;/div&gt;" style="shape=note;whiteSpace=wrap;html=1;backgroundOutline=1;darkOpacity=0.05;" vertex="1" parent="1">
          <mxGeometry x="760" y="-180" width="280" height="340" as="geometry" />
        </mxCell>
        <mxCell id="O4K4HBv5JaWxibDUjjqJ-148" value="" style="shape=image;verticalLabelPosition=bottom;labelBackgroundColor=default;verticalAlign=top;aspect=fixed;imageAspect=0;image=data:image/png,iVBORw0KGgoAAAANSUhEUgAAAowAAAFzCAIAAAA7fc/QAAAAAXNSR0IArs4c6QAAAARnQU1BAACxjwv8YQUAAAAJcEhZcwAADsMAAA7DAcdvqGQAAAASdEVYdFNvZnR3YXJlAEdyZWVuc2hvdF5VCAUAAP+HSURBVHhe7P0J0E/H2u8PJ/skSvk78u7yUkcppyje8Hr+qCN/RUkUJ4egXlPhQRQPkXCQFMfsmAniREKOmJ4QKmI4xphiI2zzvA0xRbZ5JsIOEWHbe+f9WN++e7e11m/dP/Pvpr91112re/Xq1av7uq7vdXX3Wr/nfvPw8PDw8PDISHiS9vDw8PDwyFCESfpf//Vfn/Pw8PDw8PB4jGjQoIGh4bsRJmmKPv/88//Jw8PDw8PD47Hgd7/7HeRraPhuxJA0F5iEh4eHh4eHxyPGf/kv/8WTtIeHh4eHRybCk7SHh4eHh0eGwpO0h4eHh4dHhsKTtIeHh4eHR4bCk7SHh4eHh0eGwpO0h4eHh4dHhsKTtIeHh4eHR4bCk7SHh4eHh0eGwpO0h4eHh4dHhsKTtIeHh4eHR4bCk7SHh4eHh0eGwpO0h4eHh4dHhsKTtIeHh4eHR4bCk7SHh4eHh0eGwpO0h4eHh4dHhsKTtIeHh4eHR4bCk7SHh4eHh0eGwpO0h4eHh4dHhsKTtIeHwc2bN//+97+bhIeHh0cGwJO0h8GtW7e++eabefPmffnll9OnT1+6dOmRI0fMuXvE9evXz549e/v2bZMO8Ne//nXWrFkNGzasUaNG9+7dT58+bU7E4ccff+zatWvNmjXHjx//888/m9xHiY8//hgJHz16tEk/YtAbly9fNoknBJySHTt2MNajRo3i8cEnn3wyc+bM6Ljju5w8eXLLli1ffPHF8OHD33rrrVq1apUvXx7zwf8ffvjBlPvttwsXLpijRBw+fBgBQ9gAUpcsDKlAOz/99NMmTZq8EaBRo0b9+vVbvnw5z2VK3BekCB988MHbb79NnXXr1m3btu3kyZP37dtnStwvrl69um3bNh552rRpX3/9NZ3w66+/mnMBuAXtnzJlyucO6HN11Nq1a7lcuHLlirnG42mHJ2mPO7hx40axYsUY4hCKFCkCWa5fvz4aYkIzly5d+v777zdv3jxjxozBgwe3b9++YsWKefLk0bWVK1c2RX/7DSvMKeULhQoVgonNaQfHjh3r0KHD7373O1PuuedKlCixd+9eczrAuXPn4JL333+ftr0bYMCAARDMxo0b8Q9MoQCYs/z58+MTmHRq0H7u1bFjR5OOAJ/j2rVrtJkHN1n3i6lTp77wwgvcrmXLlj/99JPJvRfs3LkTfsqW2/BvcLm6dOkCI5qsAAxZixYt8ubNG3RwDOg3RvzQoUNjxoxp3ry5HdNYaByPHj1aunRpkliJiRMnxvYSo4MbVLx4cV3oomrVqgsWLAg5dqmAK/Dmm28+//zz5uK7UbhwYYgtKrG0c9euXbAdBIzkUIPQrl07JIcCXILLUrRoUVNRBLB1rNAmg1Hg0erUqaNBd5E7d27EWHXiKpncNMDoq3KPpx6epD3u4Ntvv2V84bNhw4YNGTKkR48eBBCuES9btqw19CtXrqxXr17U4oRQpUoVlT9//nypUqXIoULqX7RokZJwlQpYYCvtTTHBuAi5cuXi+MUXX9y/f7/KEI4rMxY8AmxtGQL3gkz8AyUToEia4MmkHUBp5LtEValSJUwqvoIpcS+A+UwtAV555RV8HXMuPcBkBQoU4FqahLNiciMg8CpYsKDuAvbs2UMmPAQ/maznnqNAs2bNcFAUSffv3x8uKVmyJLxCEGkKOcDx6tatGyWXLFlC/bhoZ8+epVrclxC3wWf/+Mc/gobcAU/dt29fmRvAMBGL4121adOmQoUKVpZwkrL1gXiEBg0aUBhPjpgeWmWA8CqIQQcNGgRDq6qBAweq/IYNG9577z2JXCrQk8TfsLWSuBF0BYKKQPKY48aNa9q0qXyCGjVquPRPa8ePH9+5c+exY8cSGZtcB5s2bbKjwGNyec+ePamcB7duMTKAr6bOoTfoFhQQl5ckJldTBdWrV6cAKF++fLVq1QjEzQ08nnZIMEzibniSfobw3XffMb5Ig0kH+PXXX7du3YpNlw3FSMFM5BN8kARwJyJRs2bN1q1b9+7dG9LFdhBRLV68mNDh4sWLFMaKYfcpTOjMXYKK7xAtOYQ7SgoHDx7Mly8f+VAg98WswwFQi2wc1k1hFhaKJLaMcI16CIyI4wksMG2iLoCBkyXVc5FPEs7A7GJSb9y4EdzwLkA8lAxF0kR+spWxgCSIU03R9EAbGjZsyLWYWrqIDuSY/rl165YpkQZgxOD+BgS7Lh0K33zzjUYNOhRvjRw5kvzLly8HFz3Xr18/+jaWEZXZqlUraoBKiX3XrFmjq4hEVSYEWIqzxIUwJYyowu744uUoE28PIQnNSOOmqAYwf/58k5sCOBCaaMG9MFkOGNxevXqpKoYPjnQDbroC56NLly6IwZw5c2gt7ibyxugzHCrDg8cG9KtWrZJ3OG3aNJP12288i64SYFM5QxZTpkwhnwtnz54disKRSYYJT5QCxNPIKu6v9QAkuvgWSno8s/Ak7XEHsggEECZ9N7ChBNYUAIQsWDcOoBlzOhHQJ4Ux3yHjderUKTciIZKgQkrCvqEZYKKZOzd+7jmogqSYmFhEZ13ALsOHD1dhbC45Z86cURJiI6DXMbFglNVE0vgfJh2ge/fuuoS4Z926dVevXsXu8yCTJk2ineRDY2Sa0mmAa1Xh7t27SS5btkzJDz/8UAXSgSVpIjAdfPTRR+ZcgAMHDijuL126NJEungfH6jFL0tmu9ENUtsyVK1d0VWzQT8eKNeEhkvStQlJcLktLCxcuDCowAX0sdBWjY9IpAMFruiU0WBb79u0LbvUcz/7BBx/omGg4eaZ6xIgRKom3Z7IiwNGhAEGtktT/8ssvk0NvyyUCdAVeowoAHE3lx7qGQM4BLqxJZ4G4nHz60KQ9nlV4kva4A8JfxpfALrSTxYJ8YlnKYBnhgOTCFlCCguPJkyebrBTo06ePBAzyNlkOXnvtNc7Ken722Wf2OBaazq1duzbHmFGOwblz506ePKljsGTJEhW2mDp1Kvmu3behVSyD4mEQxA8dOjQ2GE0FtQ2Px6R/+01eBZb9+PHjJis7wIKaXYDwbIQKC+osZFC5cmVyCNHUmdAzSZE0zVZgfU/boGw3xj6sJhvwGGwAihuhFip8BxcvXgwqeM7dZRYC9EyBbEkafPnll5TUEIfAA4rsceZoDy0vU6YMSZxLUyIFEA/NASSI1urVqylQtGhRJZs3b06yWLFiECrYvn17lSpVyAHTp09XGRwd5dAnygmBqziLAJh0Fo4dO6YLTToAtWkr2T1JnUeOhidpjzuwVjhhy/GiRYsogDWxhTWhnYCJEydSDKOWvOGWeFehWKqVtmHDhnFWU3/Tpk3juEGDBjoVheZmc+XKpSTHAC/ENhtwNrSHGcYlv1atWkpiBBUkdenSRTkPDqLw3LlzU+esWbNMVnCjSpUqkQl/m6w0gCZyyY4dO+hYLR7TgcT6nFLs+Pzzz1tackkaaA5gw4YNSqYD69+YtANIV0HkihUrTFYAzUxAYJq0sM7Bzp07VSAEvCjNkVh6S8A333xDyTfeeMOks4DX2KNHD04BO9lOMZLr169XMgGSgQSS1rQQ7gjHchRwVfFZdRbQgPr165PPcNg5A5IglXfSs2dPzr7++usmnQVNbuXPn9+kgz7UyhEIzZ14PMXwJO1xB/BHoPt3ZghNVgSXLl2yZeyBOZcCJUuWpFi27zXJsBIuY4ZM1t2wQS3HsqRRA21x+vRpWxiI/jF5P/74o/K1YQdT67oOukW5cuWUXLt2LUmoLs13itIBJEqdUBq9bbICaF2TdsKFJis7aB+1aJjo6tVXX1XNY8eO1fMOGTJEJUGIpHFESEbnEhLAjbiEmk3agbiKqD20jots2J5XjhoZe98rV65oq0GhQoVSTQu7iEbS3A52l18FBg8ebFc0RNLwupIJkGi1aNHCpO8G8iM/A//j6tWrmiogrjWnswBPI0Wc4okkzxyD6DZD/DO4VmfdGXJBEbZrcrdu3arCAMc3lbJ4PGXwJO1hEOj+c4cOHTLpCOyabpokfeLECRVL5h44RlPiWkWOhTafAwpjizlIIOnjx4+rsGbjFXRCFXbicf78+dpM5M6sWgZVUu/DuPPSD46+fftSZ8uWLU06CzZqT39lWnqrF4cAnoT7Bl3lypXdlQht9LMkrWSUXRKgbQGx6i/qHTZsmEk70Cm7h19R4Pjx45W0OHjwoEoyKOlQKaDxlGd0GMrevXtrbkB46aWX5syZ4+45uFeSjl3qhmLxCVQ/Yq+QmlGL3fG3c+dOCZjmNjgArrIQVSPtttmtW7eOMq5cN25h0oEroz3qTZs2RblMrsfTDk/SHgZYH4bYxj1RKJwCdrUM1unQoQNGkOCM8CIUAyk2zXZ/mWLWXLlyJYRQlu8PHz4sA50wJ6nXrizdWpLm+E4Vzz0HK2jPLbAT7PbptNrXpk0bju9pP1e20M646HQuBlor01hkl10SEI1KcU20+Jo/f/7Qa+UKnRkgJS1JQ+2LFy/u168fnZngIQFNL7uEIVh3Tb7d9evXv//++9WrV0PMhPJ6H9pO47/11lskbTPo5z179vTo0UMBd4ECBbQxMB2II0PAlo0ZMyb63rlImpiV0YTXCfoRiYYNG0Y3wUkqGjRoIBkQGJ3ly5f/5//8n4Ob3Fn7h5j1aJQ3hSLQAI0cORJvKbjuzt5D+pkG0I16ZMAB7mDsoMfOGNEY1/3yeBbgSdrDwCWzWGj7a+nSpS1JhzB37lxTNAAWk0xY3KRTQDN+TZo0Mek42C2yRPMy0AkkrS241apVU9J9Lu15ho8xdq1ateIYblCIY/nmzJkzJGXZXSuMcSTZrFkzvRCMrccQb9myxZzODgRPMs1Hjhwhpl+0aFGXLl1q1KgBp965axbS3M8l3p00aZJJB4BaYFM3YhM0k0y/KSmSVle4SNj8LJIOEQbQrAaAe7S0EYX10jTrXrZsWeqpWrWq2wBy7ik01B4FgZgVpj969Kg5F4GGMgo7D2Eh/w/QtubNmyPwvXr10tw1KFiw4MqVKynGf5IvvvhiwodoiO8p0759ezv/FAJUPXDgwITdgpMnT6ZYvXr1TNrjWYUnaQ+DZJImetBUG/ZRk8+EqhAwpoQgbM6cOd27dw99qlBbh+wsayo0bdqUYoMHDzbpONg3l4i2VS1G0JyLQFvBhw4dqqT7XNqipZlPOEnxUKNGjeBsuyqvMFSfy5gwYcKdKgK4K4IW+fLlS2cNFSi+z5UrF74L/3V5FNHZ4FiIaG1UmgwNnF31bNy4cXCrO4CBoIqxY8fif9AJKhAFoSSFoySNy6J6XEBmcHbHjh3tq8+aExZJh0B4vXbtWtWWPkSBestc4Bl5itixqBzsdS9UqBCtRVy3b98OPROnRp834ZtfdLj1frTVK8FNBHhglMF7QPCCCv6JwoULz5o1K9spE73tDc2btMezCk/SHgbJJD1z5kzOEguePHlSM8PYGnMuBbQdLFuS1iStu+E5ivnz51Mmd+7cHMO+HA8aNEinQjgcvF0KsMXKcZ9LAah9Wwni1NrhZ599RvLOZVnbgKmfYze+J5LGESF4xWOA4O3KdzRyjYU2ulsQQGPH8W82b9584cKFa9eu6QWk6Ip1LPQCd7Z9C6AiBetaHwUieJgmIXQOIXbq9ebNm1oioc1Tp05ds2YNsuEy35EjRzgLtPlOr2sXK1ZMWxAEDBDE+fM9fp5djwCn4m8Ra9rZY8YaQQ3xn2ycffwEyI3A9dyyZQsi8f777+MGLV68OLTnSxKbsEBw+/btEiVKUAZpscsoq1atql69uo4BfgzOrrkgDlpwSWeIPZ5ueJL2MEgg6dOnT8sca6eVJj8RHZ1NhU8++YRiDRs2NOkUUDibvCaqt6hFmXrVOFUQSVzIWcyoZQv3ufRGr534BYqKiMnOnDlTtmxZjhVnr1ixgmOsf+znO4D9okiaW7Lbtm1L4dKlSxPS4ZFEVxbpAQqk+p5MCJrST7UP2YVt544dO5Sjd4TuaeOYSDq0JLF7924y6aJUcwl2OVYOk6ZMJkyY8NNPP82ePdu+TQQIvlO9fReL0CMcO3YMwtanuwBd7S4qvxxsyoMsTTo1RNLJvIhcBTdJ+S4Z0J4v/D8UR5MQiBb5XLthwwZ5GCqQ7ap26Kt8Hs8gPEl7GKQiaUywPtGAJVVIJBtUo0YNFUgF8Rzhb8LSHSCkoJhLnCFg62V/x4wZQ1I2LvbrKNhEvYhM2Gqy7n4uWeEPPvhApwBtU9ADf2teVO7CrVu39L5Nqr1jBFuc5XZRuo2FljZhu9CrShabNm2iAEh+p1yA6iiZzoKlJWk7slqjXbRokZLpQCRNz5t0gHHjxpH52muvmXQcFDTrFWp9DMdlnVOnTg0ePFiT/zBW+oSkqkJvZl+9elXBOsD3UiZsrTboE2/J0AxztsFrcId4dxagIxK5zp07kySY5jikLETVch14aiJ1k3s31OzQL6OAn3/+Oc3dhR5PBzxJexikImlNu2FNtGsGpNpGFML169f1+cbkb0hp5ZK4yqQj0EohDdDmIOI5ktCGzlpgjiEtTvEg7qc63efSJrWQFdbjAG1lssGNthFBIbHmWPvX4HWTzg6akk2Y4YSxKADkCSVjxowZlHw98gWMKFKRtCYM0kQsSYc2jcdCmwD0KyCyNdH7fv/99/Jg6KJ0JqWBqopdzLbfAdVnxu3jE22rQALeffddSmZL0hrK2KYi83rkAgUK6HNvmvMIdR3AO9QrWPnz54/O1iDAnAKhjYRLliwhs3r16v4VrGcHnqQ9DKIkjcNuP7bgRrqzgp/HyJakgYItMHDgwFDECeM2a9Zs/vz5CknhYEJJcy4Lf//73+3XOazpFMeEpsdpqqbEgV1yFkS9ei5tOotaYX3fUbCfXoH1NeVI0BMiThqm72Z/8sknJisR9hWyhG+0EburjJ2XToAcC7TXpFPDspT9ANZ9k7Q74ufOndO42LX/WGjaQ0Su/WuxX/6yjFW0aNF0voWuqmJnsBk1TfzoB83s43OgAgno1KkTJbMladUf3RWBjFWtWpVTCLPtXu1xQziVdHH+/Hl5sdE72q0VrsAg5Har+T19MM4jR8OTtIdBiKRv377t/ryEXeIFegWlUKFCNhOCgYf27t2LySaCgYC1oRezomVgkC9fPrgQe/Tee+/pg1kAS4dV1YYa2PSLL744e/Yst6YGwi8iRRWjwC+//KJ7iWPcaUDo396lX79+JjcLyteLvBAwx1GbyO1eyPqBBHcinXyZUSjZ/azjtODTpLCU3tfKFprKLlKkiNuNUYj2oq8GRYGNpmQ6JE33aj/BqlWrlCM6VCDIAMFexLKMGpwHEACNnQsFcGXKlDHprB4oUaJE8hPp3ej333+fY9maWGYFdLUe337uOwGSVet2hKAfgMmVK9fly5ftG1A85s2bN48cObJmzZovv/wSScB1GDJkCJE3Se3+06ROwosDgt4tBMuWLVPOlStXEBu5gzyF60FKMlPNN4wfP56zqAbDZLICMAp3bnC3b4Gcq4tiP1ru8bTCk7SHgSVpOBJK0ztIoHXr1iGr/eOPP0JaGGgotm3btuXLlyd0UGELchR9Yn2wRKG3gQXoVlOCx48fV2wUC0yn+x3Nli1bkql15Z+Dn9PXhi+AVxHlDJ2SFZZ5jQ2VsNcqGVoFhMz0qg+q8vXXX9NgzLEYPeoQpIJscba2VZ2QTowL1alJJp2IihUrUti+Tqb1CzhMpBIFY0fE5kaKen+MQTTpLFcpYSeB4K7yJpM0gMspUKBAAXe4YyFZxbcw6bsBN4vMVqxYwbhzAGwMGgvtLdBEC/1jKkoBiFPbFwDupqZbBLo6NLWgH+34KMWntm3zQr8BqncOaVVogwIR9ogRIyTMHs8IPEl7GMiKQXj6KLEwePDgaFwFtHqXAIjNXWmjkuXLlyt8+eSTT+bPn0/kZM4F+Omnn6BJu0EXYP569OgRNcSabH/55ZcxjtomBrgd3ElcaAplwb79rK9G6Be0Ykn66tWrBO5VqlQh9jJZWVi7dq37Sq5A4fRfHNJ3YLL9fScxXzrrsvv376ekfukhW+htZu1jAth9kiHgcuFsFSpUyKSD71+qPKBPKGC/DwPoT0Yz2x4QSeujoXg/06dPT3it3E6hp9pLZfHOO+/g8Zw+fdqkI9D3W4YPH25/mtOCB6lRo8abb76JGAAiXR68adOmXKX56nHjxqmSBOCAarO6BbYR6Ypu+psSfMUsYXpALqad5xDQHRxBvKL0X5PzeFrhSdrDwP5Wv1C9evWEedd58+a9/fbbWLqhQ4cSyxIHYE0UxfIfwrs/48K1mCcChQTrz+1MEwMQDvbp0yfBXmvz8OrVqzmmVcSpqSIwEJp1tDh48CAeg6a+CfVgnXTWOC3Gjh3LhdnGnTguBJqp2uACMqBkyNFJBbkmhQsXtjUTkOEKbNq0ia7GPXLviFtz4MABaDL9j6kl4MSJEzx1+j8c0qJFC5pav359k75f6B19/BL8Nkh34sSJiM3evXt5WFPCAVIXde/SwbFjx3DgiNeRqFSb9kHy/v8zZ87ELsPjBqX5nRyPpxuepD0MCA4wzZDZ7t27EzjviQPLNXv2bAKUhQsX0tRkCwiI2imcbbE0EWvlswWcmuqXCh8DuPWLL75YsWLFdPZkPVnAo9iZ559/PoHz0gEuSL9+/dJZ3ffwyHB4kvbwePqBj3J/weLjx549e0Jf+PLweJbhSdrDw8PDwyND4Unaw8PDw8MjQ+FJ2sPDw8PDI0PhSdrDw8PDwyND4Unaw8PDw8MjQ+FJ2sPDw8PDI0PhSdrDw8PDwyND4Unaw8PDw8MjQ+FJ2sPDw8PDI0PhSdrDw8PDwyND4Unaw8PDw8MjQ+FJ2sPDw8PDI0PhSdrDw8PDwyND4Unaw8PDw8MjQ+FJ2sPDw8PDI0PhSdrDw8PDwyND4Unaw8PDw8MjQ+FJ2sPDw8PDI0PhSdrDw8PDwyND4Unaw8PDw8MjQ+FJ2sPDw8PDI0PhSdrDw8PDwyND4Unaw8PDw8MjQ+FJ2sPDw8PDI0PhSdrDw8PDIxv89a9/Xbp06QcffDBhwoRdu3b9/e9/NyeyQIENGzYsWLDgxx9/NFm//fbzzz/v3r17yZIl8+bNW7NmzQ8//KB8Cm/cuHHcuHEDBgz49NNPuTBaoYtly5Zt2rTJJOJw48aNAwcOcCNqGzJkyGeffWZOBNi8eXOFChWOHz9u0gFow7UAybd+4vAk7eHh4eGRhF9//bVevXpQwPPPP89/8Oqrr5pzv/129erVjh07FilSRKdeeumlPXv2wJpNmzZVjsXvfve7KVOmnD9/Hsok+cILLxQvXvzFF1/kmPqvXLly69atVatWQZ+m6gDHjh3LkydPy5YtTdrBtm3batasWapUqaB6g3z58r355pumRIDt27eTv2jRoq1btw4fPrxKlSplypShMSqfN2/e06dPm6KZB0/SHh4eHh5JGDlyJPZ//Pjx0OelS5fmz5//xRdf6BRhKIx4h+uee65x48bErIULF4bCv/nmG3JgRAjy3LlzP/3008GDB8mvWLFinz59ODV79myRMf+Js6HMYcOGEXZzauLEiaocUH+tWrVy584NVZssB9TZrFmzTp06vfPOO1w4Y8aM69evQ/b9+/c/evSoKfTbbxcuXODse++9x/9cuXLB6926dfv4449nzpzJrfEbMjmY9iTt4fG48eOPP549e9YkUoAyf/vb30wiCFZOnjxJnGHSjxFYWIIbzNmsWbOiUY7HUw9GnFjzX//1X036biASUAO0Cj3/+c9/JmfcuHHk9OvXj/+XL19WMYDM//73v3/77bdHjx7NKcTJnAiknRgdV4BjmJ5QGKLVqWnTplH43//935VMha+++opicDbH3333Hcfr1q3TKQAHkzNgwABcgSFDhpjcHAJP0h4eDx+wKRYHWjXpu9G1a1dUiTKYv19//ZUczIrr+N+4ceOFF14gWPnHP/4xadIkaSnAVvbu3fvnn3825VIAy4iFWrNmjVvnkSNH3n///ebNm3fp0oXQAeo1J7LAvQg4duzYgbWlVTTvk08+KV++vG5t0bJlywULFrz++uu0CmBSx4wZc+LECVNLeuBe58+fN4mABrZu3aquCGH//v08i7vM6fGYAV8y7oS/t2/f3rlzJ4L94YcfWtkmhC1atKjrum3atInyBLj8v3btmjIpX7VqVZj422+/Zeg5ZWNxxr1Nmzac2rdvH8k9e/ZwdsKECRwjwMTQb7zxBrcOyqbEqFGjuIp4nWORNKG8TgFUhhxC5yJFirz77rsmN4dA6m8Sd8OTtIfHfQJzg75s27bNpO8GRItHj20iYpAxKlu2bJ06dXQWYNq4HLsze/ZsDjBh8OKKFSv69u2LLatdu3bC7Nynn34KwXOVAIOSuWXLlly5chUsWBBOfeWVV6iEBgwdOhTyW7hwIQf169d/6aWXzDXPPQedUw8HjRo1+vLLL3ft2oVhvXTp0tdffz1ixAiqKlGiRI8ANWrUUG3Dhg2DetWGEAYPHjxo0CCTCCA7jhvB8fXr16mEJGbdrYH+adWq1Z3WBGuZ2FZP1U8KiA2jwLjzX8PNMcKAHEIKuH2mXAD8LYq1b9+e/wgeotu9e3dkMn/+/KtXr6aAxBstoAYcwTJlypDEGdXloFq1aqVLl6ZyxBLHFP/SnEgN2mDpCS+TChHRBg0a1KpV6+WXX5ZGINKvvfaalqtv3rypwpkPT9IeHg8fsBr6wn+TvhtYCiJRDgoVKtSpUycOYGvsiA0ltYQ2duxYTQzOnz9f+WDWrFnkLFq0yKTvxuLFizkLs2IciUhmzpzJf/K5HbcgQFcxwuiOHTtSEiPIf25ds2bN/v37UzkGDt+CyANSdDcHucBpKFasmEkEtWlF0J3AdEEk9NZbb5lEACwy5TXnj0PAMfaU//PmzVMBQLhGDuxOk/AGIAZaa855PF4QoQ4fPhxnCwEjsGbEIdFSpUoRHzNGiJkpF0AT1AMGDOC/ANEiXXZrt0hagPLr1q27YcMGnRJwHDklEQ3t004FKsHV0zHcz4VVqlRp0qRJ06ZNu3XrptXo6dOnI4p58uRBF0hy8P333+uSTIYnaQ+Phw/sEfpCDGrSDm7fvo1hIozguGrVqtgRDigMNm7cGBS5s3pH8vPPP7969SoHBK/KB4QX5cqVs/YoBMiYACI6H96yZUuY2CQCKJalGfwPmUiB6Kd48eImcTcUZLt3+etf/4opqVSpkknfDSxjaLctdhPS5SoCdGKytm3bcsxDYTc1j0qgQ+AFc6s8WLlyZSrXxOPxA8JGBrTPy139BYTd+HCaBMI5e/HFFxlrGPfMmTMqIO2oXbs2ZMkpPNFQXIuO4MhSpmLFiu5EegIKFy7coUMHHaN3XOtu+6CF5HzzzTfIWMmSJXF/ie9xOLKdRc8EeJL28HgkgCxjV7+OHTuGKk2ePJnjevXqQWAE0OQAMTfQohpmjmNFIcoXPvjgA87GrkwXLFgQlSbuJJhu2LAhoQM0Tz58H7pEcery5cv5H0t+3PSll14yibuh2kJ73yB1mmoSdyNK0rVq1cL+csCz4LJo4+6hQ4cw6Jj4f/zjH+qlKVOmkE//EHvloPnJZwGdO3dmuI8ePcowLV261OT+9tuBAwcY0JEjRyqcRZJPnDiBYOMjwsdyW+WDzps378KFC9oZjnsX2sChGD3NTV4KzSF7JT/66COSrsAoNN+1axfa0bp1a5ObQ+BJ2sPjkaBTp05FixY1CQd6NUXLsVgoCEwmBtOG1dOy686dO8lZsmQJxyhdiKTnzJnD2RBHCsS4mMJChQpVq1ZNS33UuWrVKk2S4xns27ePC+fPn4/RbNas2cWLF8l/++234V2u3b9/v6koi8WhyV69evXr1+/SpUvmRBZJh1aIiWOgWJO4G6VLl+ZJuS/Uq41gOBNt2rT5+9//TshVp04dAjIiG5wSvVm7evXqn376iQ6pXr06dM4Bmfzv2rWrnbH3eGw4deoU7iZSatK//Xb69Ok8efJo/gMB69Onj/IRiXLlyhUpUuTy5cuSczhbp77//vtXX32VHMhb1K5FHBwymBuhLV68eEikKTN06FAdcxWMruMoVOHcuXOVxF8sUKCAjgVJLOJH23r27Glycwg8SXt4PBLMmDEDldFHEhYvXgwJKV/bULW52iXpdu3awUOyINu2bSNH21OjJP3ZZ59xFtNp0nfDzuBh/rZs2YLte+2114hauMRFlSpVzp8/f+vWLSW5dehGH3/8sU5B9nXr1nW/9qB3bFyrDTDBsWvYNCN37tyqygVBkjb4RNG+fXsuVJD9yiuvDBs2DCOL5eXU+++/r2o9HhsOHTpEz2vuB8DEVatWhZslgV26dME5Q9JwrcqXL58rVy6GlXx9P2T9+vXBRXeAwJQtW7ZUqVIwN6eWLVtmTvz2G9fC026Mq+klhJDjI0eOcEw0rFNRHDx4kAJ2O3erVq0qV66sY0F7O3A08U0HDhxocnMIPEl7eDwSiIEwHLAmfj1GTVuXGzVqRKSrMsSykPTNmzcpiT3q0aMHB0uXLtW7p1oqzp8/f4ikGzZsWKJECdWWLd555x1uh4ugxqxYsQLCpn5NBso/GDFiRHS7uEg6xMQCsTXGzr1EG+X0nmsI2HROEXVhZFeuXIk5JoQiZ+rUqQrWidKIk44fP47TsGbNmkqVKvHIuja0ZIi3QWxtEh6PEY0bN8bTWrduHTIJ0UKolhFPnjxZrFgxxhHgz9k3GgidyXH3PAJtGNyxYwcawaCb3AB9+/bllPUFfw5empJnMGbMGI4TXvNTJG2bhO/rvisBtItC0t6mTRuSOATVqlWD/0DFihVDy+oZBU/SHh6PBCInzAEmiQNw9uzZq1evYuA6d+6sMjC0rAlnIUUMk2KRTp06kSN7xwGhZFD8DhSFxNIh0QzhuElkAQrEvGK/uOq7774zuVmQ2SJONWkHAwYMIJA1ibuBmcNLMInAnsKsefLksdt3XSjKsRMJQKuVsDX+CgbI5GZh+PDhnI06BwT9L730UmiXuMfjAcLMEDMugFA4tNMQqV6+fDmhM2NksoIdjk2aNHG36wNKItWcim4Hg2iJgPlv0r/9BsHjuiFdBQsW1P7KVKBC7m7rnDhxIv6fjgXED/kkkm7QoIFWx1E0XORu3brhAffp0yeTt3l7kvbweFQgsMC4yIsHkNP06dM5sG673VFFpmb2zp07R6QSFL+znudO+gGMUf369TE3Fy9eVI4Lxb7u0h2X04YqVaqIpPU9Jhf4DeTbz0q4wHiF9J3YXdFzrVq1ateurUysKoEIlfBoyglh2bJlnLUBFlAn7N+/H9KN7q3TZD5x9rRp00xWACwv+Zkc8TzduHHjxooVK5Dhx7yDD/osXLiwXdu+P7huASrm7qDMfHiS9vB4VOjbt++LL774yiuvlCtXLl++fPBroUKFqlatKqoDRCeWpO17VkQtkDdRLAxqp6NhZeiwa9euJGF9lQzh5MmTBM1wPHEDQfOqVavq1q1LeSKStWvXcuAypSCSVriDFdPGrkOHDhESQdLEHB07dmzdujVtRvcpSQhCBIzVaNq0KbFLz549KcOjhQImFyJdrcELWpXXh6Wib8Fqjw83pQd4BGVu2rSJW2vjt3I8nh1YfXk24Uk60/Htt9+uXLlSc0Qm67EDbkhlhd1ff4NFIINdu3b5LbjCli1b0BowY8YMvTcF07hfOEH99Ns+8Jw7QQdfaqcrUYtd8BPgxQRJ2LFjh35fSMifP79+q4DaSpYsuXPnThWzWLNmDcXyBtAlAgHrzJkz8S0IxAmUGzVq1L1795EjRw4dOvSHH35o0qSJivE4nTp1SrWFTeC5KOauLouktbEIyje5WRBJUyceDBd+9NFH+CgclC5d+rzzJVEPj2cEOZWkoYGn3qeG82rVqkW3CzVq1CC+IbTat2/f119/PX78+EGDBrVq1YoyBF5ffPEFJsydFPr++++hdmIjDDSgNoIkcjg2JYKvV7Zv337x4sUwh11PIpJzza7WVmNfWKROwh29zqsgTyCToAcrrGLPMhYuXEjgq9m2uXPnugwN6Px+/fpx8GvcZ6uFn376aUnwc7wguqgcBXS4d+9eJAQXIdtpPcRp3LhxAwN88skns2bNgp4RkoT2gMuXL8P93CJ2EToEKoRoTSLA0qVLcUqQw9OnT0dvJJKmYVeuXMGDQZZIvvPOO+ncy8Pj6UOOJGnMUNWqVadNmwYnuV98zSgQU6b6SmI6gOFy585dqFChKVOmHDx4cMGCBfAxlqthw4YMhPDSSy+9+uqrhDXvvvtunz59CJvI7NChgyItWbco9H4LOHLkSJ48eUxu8HEfcXO9evUKFiyoj2AAQnnOxj4L9pdTGzZsuHTpErFO06ZNYRFMPOa+RIkSnOrWrZtdCvLwsAht23aBU+JG/Mi8+0tKjwK4+8ePH3/MS60eHmkiR5K0FtjwxPGviSNNbsaA0GTq1KmETYQLyRFJAqBMmNKdTBaIfaFGwmh6wO5IvHjxIkNTunTpXr16ka9P6RLmwpeLFi0ip23btoQva9as2bNnD5ExZyHy6tWr00IC9G+++YZAHJatU6cO+S8Gv8FuvR8qIbly5UolXegU/zlGktxNQHCzPt771ltveZ72yFigofqCSrNmzfQbSgCJXbx4MXo0cuTI/v37Dxs2DC/Z1WUYfePGjfPmzQttaEJhUU90Hw39+OOPx44di5LeunVrxYoVnTt3rlSpEnpavHjxli1b2uX2ELh17dq1pW5ciNe7ZMkS7AmOLwr14YcfXrhw4eTJk9TfpUuXFi1atG7dGq1Hf91Vf4+nCTmSpPv16/faa6/9/PPPuXLl0sYTwr7YhbrYzEeNUaNGwXz6NvL9aQ4RLdeOHj360KFDhLADBw6cOHGiyFUIvVHz/vvvEzfD32j466+/XqxYMRsWEIhQ0r5jM2LECL3mD2eT/7XzqqL2Btv3hezXAMTE+kBBCAkkLUyZMoUC+rijh0cGomvXrlrwRlBxT/VeL9xMErz00kuFCxfGznDcuHFjXQJruhsF9HbZhg0bXn75ZZMVgKuoGVdY2xHKlSvXrl07aoZrtW8ALW7YsGHI/Z0W/DoFNI82uZNhuXPnxvzSGDwGqqXyqlWrvvnmmw0aNNCsFQWwOaaWxw7sjF0v83i4yJEk3bFjR+I8CIYmQWN4uIis1vYsoO1WrVq9EPwor3IgOSQJxDI3Enbs2LH169dDilAakO5FYfkPL2HZsmVDhw7F1x4zZox+bghofljhfvSll3SAs4wecrkLN7B2SZqWu++P6pRlX56XpCXpPn36aBCxDmXKlHFnHfU9Clic/7JZeiIxsfvlIItsSRpgVtwPCXl4ZA60s4+oFLcYeq5YsSJ6p/2P5NtPYmFhCH9feeUVjjU1RUkUDX3EtV2+fDn5csrhY9T/4sWLshJoH9E52tS2bds7FWWBCymMaYKGibZNbhBGw/RVqlQhTKcAOkXATWE3iOcWNMbNASdOnChQoIB9//6hA1PQrVs3fAsefObMmTwdOQRI7733Hjn4B7Q2b/CbkmfPniWomDFjhrtn6NKlS1u3bp06dWrfvn2bNGlCT1KbORfg+++/x0ZRIPQFbxeMCxFIcthz/fr1CRMm1KtXr2bNmu4K3bp167CQRCBK3rhx4/Lly1RFzuzZswmrevfujfnCUuH3JHza7IkgR5I0ww8YZlxIGFc8hBdsf3YUCX41+E4s5F27du3z588r6QJt5OFxigkZ0aIoKVaqVIm7MLoQ8DvvvKPv7OgUWoSuypvmFuiVTnEvGkMDevXqBT2jt/c904v54L4YDrwQnpFANn/+/PYzOitWrOB2ImnFvl26dEF5EHRklCTKo5IhktavruJe0ODQXjAZjvbBr8BiPvBveAryVb8bc1u4JJ3q19Qh6egXNjw8MgG4qhCeVdLTp09LL+SwavaIs/oS3JfBj0Og+3i30R15hw8fpkysfYczGjVqZBKB+erevTs3wl4VLVqUys2J336bF3y9VZVgsmIVh1jc/ZKMoN0h2sn/cMHjDx48GGciT548LVq0aNmyJdys78IK9evXp8DkyZOnTJmC4YVHlc9z8aTYQAX6gtbXOnTooM4UMCB2cwx8j/ejfKImusLGVPoxGBsLRYEFg/4pU61aNUwlB2IEmJsIhyS2WpfrU3cuaBgsUL169caNG8fauieIHEnSAh6lnFDxEHgj+EEhJMP+eigCpEySSBjcgyTBWMgZIeOwYcPQRiQGnSGppSlGWhPLRJnNmjW7U2/g0uILc0euRUnwtuCwqlWr7t27VzJEGzS1a7878dAhwaJ5HOsnFnAtOcb9vNNEB7QNygwuuuPDkmNJGh0rV66c3n6xyiDoV+dE0rgI+EDU88MPP+AKkIP5MOUcuCSN0cFNVr6Fvvqb6r1ej8cJgpvYNYtnFleDr7/Zn04SMO6wowT7wIEDCLDMPW66pp2IJmFWRBpvGB3hbMeOHQkDiMwoBnupHhc4r4Sb2CUMEQGlVEzKAmO5u2qI/3D95TTAGbGR8YABAzBHJhFQPkwGt5UvX576Te5DApVjHmktj2AX7AFmYcOGDZqZtztjwNy5c8nBzPbp04eDZcuWnTp1qmfPnlC4puhksgBPgWPBwcWLFwsUKECktHr1aqgURn/ppZewWpyic7jkk08+Ca4wc4SYXCVDYDRLliwJ2dPDJPGiiGrWrl3LMdELF2LBsIr0KqdoM14CBKGxcB8tA5GDSdpCJK0FIUhIH3qVfwpDAxxkciA2lU+FgQMH4mqZRAD96rheMXKB7KK03NEdXTLz5s2r3/B/cBCph7aWyFUX4eFkcKyXUtB2RBNlsC+0UIazcjXOBl+r0FYy8Nprr+G4yCcNibu8Y61MQ8zIMe7z8OHD8UbJcT1fC/nvWDS5QRQ2J7KAt4QdtN/j9UgGDh9WjM6nx2wA8bCA9U9Yd9i3b1/sW8gJ9uvkyZMLFiyA+GObeuvWLWQPZOxSpSaoQ+u4gwYNQmI128xAQMMcgN///vecgj537NgB4yoTUiFKfvHFF8uWLYvp54AcQnNOlSpVyj547969IVFiNV0FeeitPJ1CeUX/DD1niQSCi+78sAqqTeQ3a9as+fPnY16U379/f5E0TMYpRa74CvbXmh8iqJ/K+/XrZ+/uQqyp+TzAU5QpUwa65dHoKOiQjtIpoBUExIxjJIdjfRgAtsbqapabHiNUwOwQCHHMQABCBVE79pCr7G+uh0C30P9EFyYdvCioZtM5RCYc4wdQgxtL6Ic3NP2ZsXgaSBrhoG2wiwgGEOPqexqvvPJKw4YNFTim2k5pgQkLzSPpwtjlWBiOU5b8gEQ2lszuA9WrV8e9MIkAuIrUjyfB8dChQzmWx42Ti2IERQy0bKaJHbiWYxsH42y2bdtW5Op+gBcTgxHnplJLfcseikVDlixZQk7s5i89MjfCvnNAbGFOBNCFKI9Je6QGbPfmm2/aST9APKFptytXrixevBjL0rhxY0SCYIsudWMmjBG2ibBgyJAh+I6p5jxRdX3dLAppkIymgCls0qQJdAK7uL9WZIFqYEDVVEJPGVlqQIkIgAoXLqxTgAfRnM3x48fbtWtHXEX7Bw8eDFEhbIgi+Q/dI0kHBHw0L/T6tay2PmUKo6AX+/fvJ1T9t3/7N3LsbDbKCHQMg3JqzZo1mMfatWtPmjQJt54QXGcBz8vIQtsUQ8Vcv0fz299++y3H8q3xxXWK2rRxjH6mS+1WGGojGLCfrMHW0apYEn1wUDkBOgEA8sldGEf3Rf8QSWNPSGrnHdAbKPSeku6sG/4Ex4TdWDDcmtAyGX1YqVIluSzE31C4CqiG2NdM8AXpJfuLmS6IVehGK9uUoaTmI8GwYcOo84mIX/p4Gkga0DZ9MIHe37p1q9gL0GDLSZKPhPFA7okyTSKA9qbBxxhKJFKTJ4LC965du1ItgakccBzqhzXjxOMgW8eCH8MHNFszM5qx7NKlCwZUp2iDtrRYKERQa1EhjlesWKFTBQoU6N69+4ULF8i0gouGUzm3w/Lq99Ll4iD6uP+KAGBcFXZhtVRR/owZM5RPhVOnTsWxxXxfv35dmR6poB0GRB6jRo2iS5EoepuRIkrjlHblMNy1atVCmPW1LwwiFNKiRQvFbQLmDC9TQogzF5rIhSzffvttk4iAepABHUsGaA+2Ej5AiUJSDWHog6PIfJUqVWhhkSJFzp0716xZM+7Of8KjcePGYa85oBiBEVdp/gZfkJpddwSE/NHHg8+Dr6ZY8hMIbXFMxTeog8kN1jXJkYscgmJEBg6Bj3VJe/ToQf/gDTRv3pySaKumZAEKTo78KhhRIbJAt9MttCE0FcEtUFXAhYjE/W1NTRMEoDwUN3JBLKSzIZLWr8JMnjyZFmJItTxsXUZRrIwwhoVjHBT6gYMQ7+JoIiTaCsMtCEgQM4INxUWx626aeI/9vreUi3q4KU3lXiQZZZ3t1q0b0qvjjMVTQtKIbFQ9oGryGQYJE2aO/6Bo0aLRxTmCCZRTW6UstJhRrVo1pIQDDJadGBFJW1AAG+e+JfWAuHjxIoasUaNG2EfEC+vMXaxsdejQAauqY3Q4ZEMx3xTmqTlGcO0xQCI120NYRofs3LkTt0bLTppnIw7A7AZl74D4AC3l6fCmTZYDdSyiTyUcQNJ4MxCMlvHwiB/1ZyieDmCAiCdc2WPEkUbCTf2IMpGZ61wqbJVNfOuttyZMmIA8E51QBvcISZaBA65bSTKWQgQMgeIVLStSOUIFvvzyS5JuXAhoFZqFCwvHEBfiFJLEWTSns7B7926eq1ChQggzSUmL/VAJcsuDkOSO0Y+DPgZoE4naJtCBOBANGzYUo7h7lFBtcuRthIDrg6rSDxSwk9Uu6FjLvnSaFuYYXEaKnJIlS+KNibfcT7NhbGPHi3gAQ0SgicDglnEVMmBDw4eLVatWYYLw5ukK7ohD0LRpU6yBOk1TZSJpREXeJMAdrFmzJt1CDrYlqOm39evXc0okra0qhObyk3h2lRHoDfwVsSkihPOHLiByWrUkQDflHGDk6RMbm7nQpGMImD51Pi5v+fLlVTJj8ZSQdKxA47rSZiRM81EM5NixYxGLfv362QjV4sSJE5QJTepKhl5//XWUE3FBEM2JrMoF5MDOfT1EyD0UUAwexFrqnj17JoyFXE74lWPFuPZ1MpRHG7/RE6xnUPedyrEOqWbMoGdYxCTuhiVpXBbX40ZLIXupgUc6IPKwG4BhL2wHg4JMihvs3hkX8iBjowft8MdEVs/69eWfg1/nRVCVjIJQTyRdJoDsHUNPaM4pV/IlXS6dAJQLS2p9Mszu8OHDySns/H6R5PkhOrIPCE2wuYtZ6lLMhRv2CZqXRuCXLVvmri6JqEaNGsUxBzbKdEHHuo4vY9GqVSsK661RfeRAsxc2wgapSFpfPtcA0ZnqZygq2+W8hwKsCneX068+kcsovxAGZeitJXnttdfsg8tWyO9RAE2OFihdcqVzkNs+ffqocsUGxBU8o6g9JHhCy5Yt8a5M4m4QMEDDuLmAqJoxxZGyLdEeHZXMWDzNJC3ndPLkyRrvkL8WgmQIvTXpABhHMpEbk3agCBU1qxT8zCp2bdasWaGpswcHEdKIESMQ/dAPnp8/fx6tMIkIaPDUqVO1QxKL37p1a6v8sCnQMVEvPUMcE6o8feDkjh49WhPa6AA+Pk3dsGGDa9M90gF2XB79kSNHNA+hn7sHRFqapr5x44YrijKLsa+LEKVxCpeU/2IabfKPpRABv0oaxL0oSRuGDRtGHEysFpI0LCaUoAURC8VJ4glcSc1aYW3djTyWXQBx5xMXEjqzQIEC2Gj5vugaAXGtWrVoXoikKcnoUBhR7927N32Fy05gh08PeVSrVo1LcEm5pHnz5p9++ikuS40aNXBuKImJ6Nixo0vSgDuilXAzsanGEZ+MCNt64QCbJrcJoMWYL0ADFDm4C9uwV/HixWlJKmf6vnHmzJmQ767VetkTTUXIrqpVoZeY27Ztayf8ZGAVdmsLGN2rLd/0nsqAGTNmkMNYaEZHldPV9BXeDDmxjkvXrl2RSbf3LBi1Ll26mEQAkf0XwfczaF7CbsoMwVNC0piD6OBpWzLSkw5JS8hCEba2FZjE3ZAbjg1CORcuXIgOk6xQoYL8Sg+PewKSBh3K8wNQheXjBg0aIN6Ye/Jl1pWPpJEDE6DDCB62xgapnTt3LlSoEN4YZElQTg7CT2FL/CHAAZzFCHIMd2J87ZoxVizkw5UqVSpq13bu3Elh6zFgaqEucmgwUY4ibEUwjRs3hpDuVP3cc/Xq1XN//frxQ79srbdjaWrZsmXVHsIs8idOnLh37156Q9u5Nc129OhR+uRO6wM0atRI3Q5D2E6DGBhBRoEwF+PAgxctWjTEdlxVt25dGJoLoXCuGjNmjDkXgM7JF/y8KR1O21QzVk7fCgwtP0HP9KrdVfBQgB+G1LVo0cK69TSV5+Xp5GDJZuosIoEoBqX+iV69etEqHavZIunFixdzvH///gULFnBgvcDjx48jsW+88QZ9pcoVaYC33npL3YumKMeFXkPFczLpYLkQd1O+owbOguciUzty8Gx69uyp/IzF00DSxK+0LTp4CAT5eGSaxZJYUxg9xJniLLABgfg4FB+gEjhoJhHoFfKEG8iB5Ix6dArxJZJGIl9//fVYh87DIwGTJk1CnDBJyKF0EmuFc8mpN998k4gWC46AEcdY6RLvNmzYECnFGkIJ1qLZRdCRwectYRoVxvCpQAiQKGftpLpeYoTd58+fj/xDt8oXOBVdmtXSNQpl0gEIgOAnCEahjOInTPzAgQM/++wz2swp+OkJ6gtkMHv27Dp16qC2H3/8sV20okOsJwHKlStH5+sUgJZWrFhB59CxJivA+fPn8ZzcGFfA5iRHCJydM2cOrpJJB6A93Beyb9euHWSPESMYxUWgfmxadB4CToJTTeIhgadmjGBNbsowaRsgjKizLkl37969ZMmSyreQUdVMmyIlRUE6JojCkOKbvvPOO1SOLeV58UtURrOY9jERLXkqsW+iI/kIKr4UzgrduH37dvwtekN7+qKzTQrquClno9FdpuFpIGntVcbMmXQWGFfykX5N0ZQoUUKzcC7w71T4vffei4o4dgT3DZvVvHlzfGFzTfBLU/IBMUOmaAAtLEV3pXl4JAOqQHKsKd+1a5eiqzNnzkDSsXtbtItCRB4CJI2R4oB4glihU6dOySTtnsUNxRoSP2kSUiJt31Mik6R9L0DA2L366quYklCwKLzyyiuwoI6JddzQWT5EZuoL/UDfLl++HC6Jfa5Mw6JFi2rWrGkSDw84BMhDpUqV9K2nbt26WadK77CJpAlv3FlrQZ9zUAFNdyuqEUlL2iUDmigiFreveHEQej2BkBcKTzWlv2TJEm2jE4oVK7Zp0yZ8C3ydkJUGEJnmjXDF7G7cjMXTQNJ4W3iaetfQhV7exfRgqhACxAunCfuCbMHN27Ztw8+ybi8kXapUKR1bNGjQ4M6AB6+jtG3b9tNPP0XUdu7cieOG9ezbt29ovxg3QlAe1qvSjw6//PILOhBVKo8nBe1ldQ2QZvD27NkDSce+oSQf1HqZLohcMWc6RuYxstrflIqk9U4qjgLH9evXJ3C3W8A0Y+SGyFjS0LSqlsC5hUk7gOo4RQGTvhtad3S3oHtkINatWwdPFChQYPz48ZahAcYTwUjwYPDtFmZ915PCuBGyOVhR2FEkzeVIDraUKEt0ngD37lFQ4eTJk2H9WbNmubs3oli9erX4gnDL/XZ6ZuJpIOlUQCAGDRqkwciWkJA2u0/EAibeu3fvPe3cjk5DZSB4LixyjmjqMwItntkwgqGpXLlyoUKFOEhF0uI/7J1JO8Bn5ZTGF0OZP39+mJWcVCQtvseeYto4cDlYM0b4CthHYkpy2rVrh8urhdjbt29rgy4eMLfr0aMHcoWtJK7iP95wnjx5oHyOUUD0yzXoeLTYfa2dmyyPDMZDnE5AlkJbzDwS8DSTtEcqEDlhTH0knTnQxqs+ffqsWLHi66+/1leLp0+fzqmmTZtWqVKFIJuAZv78+fMCwKb6dOWECROIwsmhMBysWZyJEydyyk4sc6HW82K3ggNtWBPft2jRgmMiDJwAeLR58+YEPfip2vize/fuffv25cqVq3Tp0kQ//CcT2kaWIOZy5cqRdPHaa68pCscvJEnlOM0EVVu2bNFrEama5OHhIXiSfhaB3dTcpkeGQBxmkTt3bn1jFTJ2dzBZ7N27V0wcAvTJVfourP0iI1i+fPmQIUNSzZ3opRSYnmO4dtCgQS+88EJQ3x1oSya+AlGvHDti4jp16rz88stkQu02xrp16xanJk+e/MEHH0yZMmX79u3u/OTYsWPz5s1rKg2WIXVHDw+PBHiSfhZBMPTVV1+ZhEdmgJgV0iLQxIWyK2q3b9+eNWvW6NGj9YUNfd7kypUrnLp+/fqmTZvIPHr06Pnz5zXJrKsIVffs2ZP+TAl1ot3uNldyFixYANHqA+/Hjh0jFo9u6r5XUO3cuXM//fRT/vtZbg+PdJDzSPrmzZvJ2wc8sgUW3JO0h4tJkybtSP15nMOHD1evXl3r0B5R3ApgEh4eDxU5jKQJHYoUKeK+s+hxH9i5c6dfC/TwEHBBXAflH//4x5o1azp37tykSZOPP/442wmJb7/9tlChQi+88MLCrN/ISgCFR48e3a9fv8GDB9uvLHh4JCAnkfSlS5cKFixYqlSpM4/gl1OfKXiS9vCw6NSpk/0dudOnTzds2BBbly9fvmrVqhES2Lc0Y3H79u3y5cu//PLLVapU+d3vfud+9CoEyL5r167U/Pzzz5coUeLFF1987bXXdOrYsWP9+/fXRMXZs2c/+uijN998s2jRopTE4tE82nD16tUhQ4Y0bdq0Q4cOnK1Tp06FChWKFy9OC5/gDMeVK1f2BT8RnaNx8eLFzz//PPmtrSeInETSo0aNQg1iPzR969atzz77bEHWz0jcE9xXC9AEtM4kEsFV9zSoFy5c+OabbzJkot6TtIeHBaxcu3ZtDo4ePYqJgz4xJpq+zvZr/OgRhnHRokWXL18uXLhwpUqVUhkQfUKrR48eegcd3rWfiJkV/Ij7d999x01xDrBytKd3797E8e+99x6nKKDfny1btuwbwW+Kw9Zt27bt06cPVvEhvhx1rxgwYAAOikkE3/WsX78+vkj6+yEsrl27FrKo9AZdhNdy7tw5nvHXX39dt26dXmHYsmVLmnsaTp48CS+sX78+oZfmBR9X0cu6GYgcQ9KMeqFChRo3bswxw9atWzfXw928eTPNA/Y3bRhCSJHet3NKSEDUz23duvU777yjYyQA9aBH9NKIwOVIYeib3kBf9+W/SScCVa9evfoLL7xgP9z4ZOFJ2sPDgsBUnz6tVatWrsgPiiSjRYsWxLIi5vnBr+3FftQFYDxr1KgR66brVyX0c5MbN24ksFM+0Hvqa9as0e/Puj+T9TiRasW9f//+tErHdAJWTi/74V4ok1Abl2LZsmVKWmBRcYl0DH1OmzatYMGCH3300bZt2yB+mB5rTz0WU6dObRL8kroFvhQejNtXUcycOdO+HNGqVSu5DvhJoTGC+CmQsRO0OYakRYp6Z0Nfkgu5Xfq2A93NkE+aNMl+7B7oh8f1jbrQ1BAkzShKBJEwHhBPFq2zA6bPloW+fQ/kQR8+fNikA0DzVKJv1Vqglvo1aPv7508cnqQ9PCzeeust7ODVq1dRUo6hySFDhjRr1qx79+7Jc7loOqRuvysJBxQvXtx+A9UFp6i8Q4cOBBjff//96tWrMWUQsIhZkVzoNzMA9RMhVKhQAf4jcqDME/nhbeJ1OzMfgkvSMokE/YRSuXPnVhCFaSVz4MCBKmNBPyvi4hk7d+5MmebNm2OcK1WqBPu+8cYbPXv2/PTTTwmaqXbhwoWE1Hnz5iWgunz5MsXgclqF6abD3Q/NuqBYsWLFKINJh5i5BRQAO3Dw+uuvm0IBuBGZqep54sgxJM1o0QA5Xx07dixXrpzyLZB+CkyZMkW/VdCwYUNom0w0QZrWpUsXvDMVttCniX/99ddvv/2Wg3Hjxm3ZsgXFq1u3rp0eYYxRVx1bzJkzh/LUb9IBuFaVmHTgXSJYZCLNCfMtjxn0TGaSNHq1YcMGvJmncgM/ljrq+ONrJn/SjqvcSaNDhw5NnjwZuY3a9McG2uO+hJ3Tod8jQVX1vXSAZX/11VexA8SFqX46DEAVFF6+fLmSKDjMwSWx5p54XZW7oDBRpt5rD/1cByoAqdMS7kJSJA3NLF68ePTo0fC6wvfHgA8//BDSjVVJl6QJf6FMxFWf2bG/w1G0aFGiFB1bQMN0CPpetWpVOmHo0KFcSD6Zsd/XA2XKlLGzngJ2jP7p1KmTSd+NFi1a5M+fn+ju2rVrDE2tWrUKFy6MqadtwF021VfzMvadwBxD0lAswbEGEmnQD/C5wD+lhXBn2bJlCWdVEsGyBq5ly5bR4dfvtFBMP1Yq0tVnk+0UDRXaH3a1GD9+PGX0xqoLHHA8PtWDZMhJHDBgQOYwNMCZWLlypUk8CeAXY4AASo7L/Pbbb6Or+sg+YKCj38QX1q9fX7NmzVDjGeKtW7fiwqNsVDh37lxz4nFhzZo1du4OYAhip8769euHmTCJQDywzsQNPPKIESPIoVvsF8TwVHD/kVioggKI6K5du+rVqxf00B3UqFFD9YQAQ+CqEhxQJ84logtGjhyJQTQl7gahyYwZMxDUVq1ajRo1KuR3RkHog7mkAQnsFQKGksags0QwBEyue6GvskTtI3f5/PPP3Zmq8+fPo920kKpQW7ronjaFJID+0Xf7b9y4sW7dus2bN8to8B9hQyxTfQRGa8kwEHFh5cqV7adaYr8URCWMLEPDoO/cufPYsWMEBqVLl8ZY2d9XNkUD6Jc98caU1FSiBeT02PwkBUixE8uINKc4QGw40Jv0yOrLL79so1WO6WEdWxBGU4C4mQdxJ8PbtGkDJ5nE3aCjoHCTyAI1Yy5MwoH8JwTbpLN+w0YTrgAFMSd++w0XgRxP0g8KRshaJSxXdNS/CX5lBSeuWrVqiAVDgleLTSRTv5RHcNy0aVMVtrCeIKG5/Q0ZXFSUtmLFimLWEiVKRG/HuCJeJuEA3cPsorQc64cHcPRindAnCEha34B8UoAw0E8sFPJH99JLjCljgXu0fft2fZSDAAW/yjXEOL/6HTO8NJLY065duxLxkCMwInR+wYIFH3OHc2ucNg4QGASvUKFCCA/xMZzq2mvJg3XXBg4cSBJTpd9xmTRpEs+uJT0hX758dAt2cMGCBWPHjuUUCsiNMIhLly4l7FM9IQwaNMhcH/ysEORRsmRJrsUTMiUcUBVlKIn8o2IvvPACvec6HFFobrB8+fIUzjaaP3nyJEpHeYYG/e3YsSP123UfecOgWLFiDKWlZBhaH0blKnqAxyeT9pODtNBO1JNjWv5QfkELNzGVZdOSsP2megiah8Pa0Mm4ONgE/TAUB6ZEdsA44IThYnIVrp7JzfqBKR7ZSrJYB44nGiECeZzfvtavCIYCfQHWZEQ4kL+ye/fuS5cuUbJhw4aMnaaI0FnczaD4P6F5BZ4dLTZZAdq3b48woPtUyMNiz82JrODbJLKgz9RH9/dxx5B3JS9HkxaAZtupCHc+IAORY0ga571du3Y6ZrRatGihYwvNcmPHYSCsG8dIAE5u69atOUZuuIrQzZTOAlaDwvr9fDx9ggMGDAlTDfiq6AMHQ4YMMRdkgcgDG2ESd2P06NFcAq/zHzVTTJ9RwLQ9WZJ2oXk8ggkliZO0WKVJCIZV+TD3a6+9xpgisoAcxXOMLyEXJoxIC/6D/h//2hK+PM2GWrT5AN8CntNvZsBkBw4cUDHNqulYRq1v375YYYwFDiIip6lvuKpWrVrub7IpCMDzs9NCINVsJ4KHAQq5KatXr6YS+BUj+P7779uNkISkdKllZU1H2egtCqwhLkijRo1Onz7No0WdVxeYRSwGNhpra6f06SW1DT3FjletWhWORLVz585NS7S1E3XD2cKJwbGWhZo+fbqYTIQNaDPUCOWnmiFIH6h8gQIFOLBts9APEuM8mfTd6Natmzs1IpBDOGgS2YGSCI/4w/6gGbog78TlGM0hh6LtxwM1z/oQ+IubNm3SMS6mlqsl+Ywg/y2QOtlPHEeVt8DPJh/xmDlzpmshRd4CnYArb0789luFChWaN29uElnAN4KMQ6MGaFiI0TWUiuXwq/hvO9yT9MMBt0aZdUzv403r2ALLCGsqTLl27RrmRiKOXUPh8dMR+tCSBiCTUExGUEBnMByi9gkTJhArcGDXVywwT6KKKKATYheuopGpJsqeLPBe//jHP5rEk4ZI2lqfZs2aQVEcKAJjOCiAGuuHH6ZNm0YB9TwMR85jW5lLAMIJzRD8YVYgJAmhzAFMhr1QjiXpixcvwkk8iDUuYnQ7UV+7dm0kU8egWrVqPLIK87zwE26lTkWB2YqVTAwctxBoJ54NmZin0qVLqwCgcjo84Rd2tTlIHhUURT32Ry1DIKIiJILRDx48aLLuRoMGDbCVVkFgfdwUHGU6h07TB8PBrVu30EfcDtSKWyMAygdHjhwhRx85fxBohoMDRhBvCW9P+YBIl2dM5QdAsRUrVjSJLDDcEuAQFi5cGNrkTPvl6Mg3mhfsij106BCyUbZs2R+yXtASVqxYQZknshXg+PHj3Bq3kmNpq7gTgcQD06xh8eLFkbp+/frhVa9cuVKzygwippgDu9nbAvGmPP9VGz2gfASATMY6up8c8x5afmak6MBomA5QyT59+phEgA8++IChRHe4Iy41JpqxlmLaSfvMBB2VqnmZRdK4uhgFHRNjIRM6FghBcOI0rR3FK6+8guOGUbAT2gIEzLAxQtA/g41ZsYqB/KEq6I+kze4NsYDvY02hoJ8MytgfyoWkQ7NMTxAhkmawNDGL6uI7I3JAk5+az0CHZRmxzmS6weWTAi2kJUigOz+hF1s7duzIf23TsyQ9cuTI559/Xjt7BbwQRNGyI7Sk6QRB7yDAvpgwzfEARDqWIGNdWIwR/YYS0dsYesUx+BOQNI03hbKmshM2FaJ6efPmFbPqAd1lPxfDhw+nzQRhJn03tIQZemlC+0LUS+5EumbFZV7lW1hgB1LtG0ofo0aNouabN2+i5mg9xPPll1+SJMgj37oLUUDG0b3c9D9dbRIOiDgRaUWN/Mc4wBN0JmJw7NgxbvTFF1/Qscg/DTh8+PCBAwfmz5/PiNAh3377rXaAp9qr8UhxNdj3rvVmTROCffv2ybf45JNPNJohb6lUqVL16tXD5eKUnQ+zoIvoKMSS56LPEUKNOPlcpTIu6DHqcccCE00N6FHsh9sKFiyIE28SwZtg+ItokNo8ffp0LShIYXG26HOVzEDkGJLGbNnBmxj8/o+7KiM13rhx4+bNm0OaD+9iLBhdyBiVkJIA9AGBgJvRkDJlykSXq7kjSigHNvp6Yq9evQjQo4Gywh399p+dTsk0IJqZRtL2BXcslyZRicM42Lt3L6btpZde+t//+3+rbxHZunXrciA1Y4AgeC6PjsVjA3qBjNk5QGH79u00b82aNZUrV1bIaEkaQxwNtgieMDo6hnvcWR+M4HvvvVe+fHmq6t69OwE3VXHH2GVmKnn11VdNIgs0g1vbCSEag98D31MtoTNB3oIFC7gjZXAOrI6EgEnF9mmnLjE37lHhwoVjTSojJZuoJBWOHTu2UaNGjB2+8smTJ7XMGXrBSQvACEDI/VXjGWX+QxImNwCFU7nm6UP8t3PnTo7PnDnTrFkzkmg3/3HrE3oDsYzOOtD/sW9haT2uRIkS9DyUoOMtW7ZwivCA5Lhx4+SIMCK6u8AxToMaiX1bsmQJngqMiAwQLOKjPPiEf7YgisXdZFjLlSvH6NDC2rVro5406eDBg5o00m+xWLRv3x6nUK+wuiRNJcizSFo5BELwNEIrm2zzXfCM1KOdH4BKFP5GFyIFjIY+UAMYQcw73YhZVlNhCu5F/8ttwulPtcMjE5BjSBplwCrpYyByPPG7dQqvE6FHMVAbioVWiTSWMMHixYs50JoWykC0QXL27NmQPQd2+C0IX7CVmt9DjJSJYSIH9ZBHCVVjmjGagwcPRp9xArBEFNMqTkJE8mSBpMo6ZAJE0nJpATJGeMcBGq4DFBIEJ+8AatGan8yWRdRbf2yQSSV0IDa10++IJZk4ahgvDqZNmyaSVlwyItjO7cLddYGoJ8w5CwMGDCCMiG4gEtfSjQDnQLOUXbt2xbBed97g12QP7gL/BaT3o48+SsVJ4MSJExRDKXAX7OojTY0G9HpGIlQlqZM4EjrHw2BYMd8K2UPbs+k9Mnko10EBIm8klv9uuKYoLWEFPU2g1PgQsi0CXIj1/+yzz9weCwGZ5CmiUwVEhJgXk7gbK1euZIibNGlCP2Ac7IwuVRUtWhQm5oCW4DkNGjQIq0LYZxsgKQqBqzA7cJ7KPDrguiGfq1ev5qba0qUGSGJxl4l2QnNa2tIl/wPzSA6qMX/+fISHHAjSJWO90YoKuySNPYebjx8/jpArWKeLyCfZsmVLkvxPJa6TJ0+mABEzYqN5OG3h1KS3NnLr4zO4Gogcljy4LhORY0gaU07nItyMHEncZ9qDKBNV492j+XrvTftxIGa4c9GiRbiZJLVocfPmzQoVKpDEx2dUkCoNucib+jl20a1bN55X0yNIAwqJpNIGkmDmzJkYPh0DzDTihSxquU5CnGo17olj+fLlmUPS+pSSJWl6UtxMpnTbBYbA5qOBHGPsGDuGKbrD8/EAM0EzmjdvjrnkgChf1krmiUZyjEcIX0LM5BwKfrw5NG0L3yCTWBCO9YzR7+eEIPcxuucWo4Ns48LiE8A02h+LAwE3qIAgGyqRpjz/uSQ5JlP4C91iminMI+jdFTt2FihpsWLF6tevL211gSqhhrKVJisLLVq0QJfLli3buXNnkxWAJyJmlWuO3pncrM3VsbOdOQ4JvpFw48aNnj174uphVR7Wu2fpQwaN0UGQNGWFw0FjdAyiTUI8uAQ6JEjFsSMKYmTJwS9kECHOBg0amKKBmwJ5IxhYUSSHAIkYV74vIAA7ffo0B9hzPBgcRIQH8bYOcRQ4QFyly1E9uED5GAocAh1zU9x9ldE8SmYix5A0wNmhDfA05o+xf/vtt0WZeOjWdWXYMB8YHfIBETZ2ykoSDj6y0qFDBxjXhiAMFSOnYxf4sHKTcQUwoNSGL0n4sm7dOhSGqzh1/vx5gmzuHtrmgDedaq0uE4B9t3MDTxyaxrROA8eKMjlAD5VpoflAhVOxn5B7/Lhy5QrNoDGIBC4jooJ1wOaSJF/TswqDMHD8l9snPrYQ28lTjLJRLERR0cfHxSHfJLJAlIznahKBT4AuozhakyZYadWqFVcRbUf3SFp8+OGHaJwbXGoWKjQFLchGh9YpATYa8iZeDDVeW+foFnwdd7qYEUede/furX6zH3TEO8GIR9/y8HgUwHEsXbo0sVDCL4iEMG/ePAwmBhmDKUPN0C9cuFDMiiGFj1VSoBiuwFtvvcVw4wgikPjixNaM+IEDBzD4qgRJJkJLxzNDATHgRGvW/keBZ4/OZuyUp5CTSBrDB0+LL/WxCNy32PdtEKn9+/efPHkywdW6J1AhMImcD4QyczxHvVpj33LhGG4Ww0VJWvv4tGYhYkvQwMcDTcRpVhloIle8lTt3bj0CASWMSD44cuQI1grYlmObkGpCBCU1/+9+Xnju3LmhLaxUWLFixapVq5q0A3iOy0ORmV1LBgQlxDSYQmyfSFr53377beXKlbmWR1BOCLVq1aKASWQBPzg0Oy0wglrcHTdunI2nNV9q36fSVBbAdmN8eSI0GucDcywFR4WxUIULF8ar2LVrF5doL8Xhw4dpdpEiRaKz/R6PCPBZwuR/LKwQQrGhz/tQm+acQ8BfTDUBSeSDoxbd9f3UIyeRtIBnDcdgAkza496RUSRNYxAtu9zAMRGbwtNPPvlEmRba96FXNrXOqvwnCAW+xA1KIplNmjQhyIML+W/3o8KICgUgGMiJA4IG4m99yYTY0dos7Tp055C1L3L58uVUDuFhyBQuW8/ABW4Bp0IK0q5du5deeonoHO+BeChXrlxyAlySBjdu3MCZoJ3cwmRlAQNNvhuOC1WqVOESk7gbeCF6fbZ9+/b4uBDqyy+/THRFvrwWhq9nz56ETZSpXr26AmtsMc179dVXCZjy5ctHGX2xRDMuo0aN6tu3L4yO25Gxy0keHg8ROY+kPR4cGOjMIWm9pG43vxA2wb442naN1oX2EOlH5Zo3b16yZEkIe8yYMZBB48aNYUcyibDv1eV/ECjwXbx4sUkHtE3jBwwYUKJECTd/0KBBUM4PP/wAg0I2HHMhZSZOnOgGvkSNhLlyRISrV6/az0rbHVvdunWLdVUHDhwIm4ZO4RkULVpUFzZs2NBuq6Yw5K1jQbPK0d1Y8Pcbb7yxMvI12aZNm2qzfSz0pLSHuxQLfu3Afr3r/Pnz2ptZs2ZNZMDtAQJuOJuegd3tStaFCxeohLbROTy7j6E9nhF4kn4W8dVXX6V6gfXxQ4uXllYJLrUcu2jRoujKE82uXbu2DHSjRo24UICBiMww95UqVSLMepwkDdlAyaEl5K+//vrIkSMmkQV4yP1CBckrV67EEm10Gw6Fly1bRhxMoAylWeqKYseOHfShSTi4desW/RlaHtq6devw4cNDbaAz7dtT2eLatWv0gEmkAF0BreI/KSa+bxCC48w9gxOeHs8yPEk/i4CkQ6+oPkGcPHkydto2W2zfvn3evHnr1q0j9DRZAewK6GMDTkMs1+ZQ7N27164+PGvAGcINGjly5GNwBW7fvv3Etz16ZD48ST9JbNq06WrizxQ+IhCKPZHvC3p4ZDj0xfi8efOm85oT7qA+5eFqkz7FZRIBfv311x49elSsWNGdvkLxyXn++efr16/vvuiMhxQ7y7Vr164nYis8njg8ST8xXL58OVeuXLVr1378L/hC0iE74uHhoT2Mw4YNcxfIYwE9L1myxP4C2+9+9zvtkwAYyfz587s772BoysDH7hfitAm/Y8eOXFu1alV7x9g1/hs3blBMLzV40Ffnz59//L+j86SQM0j61KlT0Q9zJuPvf//70aNHt23bhqur+U9yVqxY0b17d3ixVq1affr0SWeFbOrUqe7Pgwv3Tau45+fOnUPllFy0aBGq27VrVyUfGx4dSV+/fh1L97DefHts8LuQPK5du1a4cOGaNWtmK73YEwXchMJTpkwhdEbmLcuSD8qXL68PsR05cgQdb9u27euvv26/PYkdyJMnj15d08e2pmX9cAjE37JlSx1bYMoo4+4lfFjA1ShUqJD2MLp44YUX3I0dgwYNsq+k/xr8XDoR/4YNG7Bgc+fOtQ7KPYGHwgjTh9BK6dKlE17QBxhhDDhN6t+/v/YPAryZ0OaMn376CVdm+vTpoTe+zp49u2nTJndNCgPYrl07Rpx6cIAqVKgwcOBA7a7o169f7ty5yS9evDgDt27duie7mJVBJE1HIJ0dOnQIUSB9pB2tyMTJkycZIbpbp7iEs++++2716tXxQO2O5eXLl+vrNoK+MwczccwD0+8MD6JJEq8ZHevWrRtlLNq3b8+AffPNNzgHlHE36AK0sWjRotFfvEeAKDl8+HAuR3oQPu5VqVIlnGX0H2km505rAplo3ry5vpWvd2kQdFXyePCISPrSpUulSpXCJKX6/d3MxJ49exiR6IB6PFMgtEV003mtS19eg2CidI6mc+qNN96gqmbNmkHnipUJrOvXr28/32E/dMoxZbASkIROQQz25/4ssHiUfxSbPSdMmNCkSZOPPvoI5wCq/jwLX3zxhctMPCy0fevWLUw0j0NjXKTaZsijYVpts3/88UfMOznQPMESXaTP0QwdOrRx48bcnfpnzZoVfU2fQeHuY8eO1df0sJlLly6dMWNGgQIFMNemUDARkjdvXjUJmrAmDkLRd4S4qc3B/vMgAwYMQPHHjx//9ttv04BixYrB+uTTzs8++4zyLwc/askDZju58uiQQSStbx0DV0aPHTuWL18+uU4zZ87U6y56hZQh14/55M+fHzmjf18LftkU2iaTB/vyyy8RbkZd30zQVyTtNBQCIXeYAoxKyZIlxdDE2fi8eFjk4GZSIOQnqn7rKFjY7/JDxo0aNUI5CZERQTwMmk2FZcqUQTlXrlyJtEHzAL8PcalWrRoSc+XKFVPRo8cjIum33nqLx9/2JH7y9j6ADdIUC+onScASPUFV9HiCwBq433tJhn40iUsIiLEDwLL1ueATbNh9fVINK49t0YdoYOgaNWqoGDfidpYF9QEcYm7Yi4Po+2/6yjQxg0k/AgwePBjWVJNQ4dDbj+PGjaMBxKNQAIQKHRIyHThwgEjj6tWr9hX/EOSy6BMChw4dIlzGPkyZMgVqpFs+/vhj+9V3NFGB++jRoynjxscYSSwnHc69MPLwtDkRfFEcW61jQmfRBCyAxYat9RuaAAtPPoET/xcuXEgOjaEBJN2v6hJHkYN5h5jtq4aMrH4kLdUXfh4DMoikN2/ezC1eCb74T0+Rg8VEshkzyeicOXNE0vQmZ/XZYTw+GVZkRVsl8fUYrei+D0aOa1esWGHSWb+jjo7Bo9FXclGY999/n7ujjSYrgDKj1lwfkUhl5dFPKzRAjdGnQxEUjrlcpx4DHgVJ61tgVpTRdgKFSZMmca/QL+PeK1B1rF7yd0xx5tLnV4xd+/btER7kpEuXLpcuXaK1WiOMfqzjPjBixAh3amT79u2ptq/TZgwf7YnGZEhd9A00zGLDhg2JPKx9TwV6zP24Zgg8Mv+5u9wUartw4QItAdCMMkMgk6sokH4/pwJDGX3fOn3QWtz02J/pvG/ou63W+z9//nxCD2Nh9J01+7OhVatWPRn8wjdDRhJ7RXc1DX4QHTFTYADTEFRwwCkMqea6BX1MDfsmjo9O/BLakp+KCx8KdAsJhijZtXv6djejX6JECUJhk5sdRNI8F8MNaxLOarKzU6dOEKHKhEDn07cVKlTQFx7RCwIevAdN9dOB9ss52GdK2t9AI04jsKb/JZ/cAquuR8D2litXjnyGCd9I++8w+7TNyiHDrRiDoWfI7G/DCNyXCx9c8u8PGUTSaAi3gDgJYYsXL4686uvEyIc6FH5FSjjANcOmcBD7O2UEpjhTlGTA1q5dS2HZdxwxXatiQB9+UuXRjwyDWrVqVY/8NC85dtrKBSzLGJtEBFziqiVAau2cgcRIx48Bj4Kk8ZkKFSokdxj90SSH8MILL0De2CYMK0OGOcCVfvvttzV1gXbxX5UAglr3dzUgeC0T2B+eCwE9RLsoEP08GSPOVYULF65SpQqGj1aRyX+EPnfu3IMGDSLEQSHtENM26nnAlT9uik2Rwy7ooyscYAi2bt26e/duhBBLh5TSM3c66Lnn7DdBLRSKuexOV2iOjvxly5aRgzFVKHDz5k09nQX18+AmcTeWLl3KffF3cSaKFCmC6bTNENAXaGPmzJmMGl3EACGcWnICAwcONBUFa6uMaWh9KooQ6zdr1qx8+fImEUxm4mrjVXC7dGZ0tUCLFJn0wwB+Dx1LA/QbTaBy5cr2U7UhEE4QFGKjevfuvXr1akYTXSa6gFHkqpJJMTpn2LBh+il6hh6R029GQeeUoVf79u1LSI0RoB5ycBMJpjlwbZSgYC40xA8XmoGXP4F94BjjiRXFg2RQaCo5JFEo/dBfOrgY/EwZ8k/fQpAKosBnwVf3U7lZ9B7lMYl0GoE1JS1ltmnTplKlShxgZzAgnNKSwf79+zl2lUUf6cN3VxsUg2l0FEiIDuRM0zCMM0l9zRdHJLRPSD5KaP37sSGDSFq/nYftoCsZJHpK6zoMleYrsEeWpPF3OHj99dcRGqwMDeNY89Ja5Q2B3rfX6nZ4eZgelA25JF9T4i6kV6HQCmeKtmHfTdoBmURmJhEBTBOaTCtatKj9fTRoiTZEo/9HBJTw4b6CJbtjaVIfvULtMd/oCWErZ7dt26ZxBHQU1rBu3briaesOA7wZ7JdJBFEL9IByWu7E4rum/P3331edgGvtJ0SwaNhN6IchhoY5C1VfuXKFppJjty+gsZxC6jhmcJElrDNDr7P3gRkzZlChtUfAPpFMiYDE4tZgxOkTQg35kS66d+9OMdpvV0n79OlDr+JToheaQaUA3MYBgkTLXU+fyrXMyeV0tSIkAbOFN4lbgEPcqlWrDh06oETQ/9dff42jDLQVQ0BKaT+FaSo6gpKeOHGCIYDC7d5mGknbUnUaHU7YpHYKVGg3MNMGHkr1AB5NprZjx45RrhKIfigp8ntYoD1Yf+2snjhxIi477guCl6Zd1qBDGICD6IqPYkpklWO1H15XyMiNsDN0AmrCYMU+mmbpTOLRQDGSFIGe5zgKpBptLVOmDNyGsuMnJZssmVyATikyFpA0MvERkXwqmTZtWkh4cNoogL9Ot6D79uy7774LY+FM03sUwHVQvjsNINCH5MAIcjisftWsWRNmoUK1DaZHBVAHxtqKKN4zkqBjgeel8KNYIkwHGUTSkgxtpV61ahUWFsdTG6FHjhzJKUTEJVqYAGcWhe/UqROjVaBAAWwB5TFVixYtkkHBFtOzCBZ2RDPM0CFRAlLChSSJzuVeAdVgVylEPIiLkoIYPfYXrlzngI4K/dQgTXWpCClBMqS0QPNLrhw/Unz11VfuYsyDA7tG+w8cOKAkj09v6BiInBYvXkx4V7BgwehueYCCaVa8QYMGDI0yNQlJ5ygJoAd8HdVGksHFrOOqYxxxz9E0wkfVQ7DOKa2bAMwByeiio7YdWM6Wtb3XVwlcwGc4ZCYRgMdBAjmQCcZfxHFJRWkW2CO6MV++fHAhJh7BxpTjsnAKQlVMRm1aJdF+CHe/HoGLJgbpKE6Fvl1D5YiffcsAcxlSbTqT7kLdTPpuyIHALcZSw6k8MnYtVTwN4VGYodHWWUD/qENwpLCY9A9PceHCBQYOa84j0zAcKXha5UPQD6uEvmDzgMCNU5MsFK/HztVFgddIYWRJVBf9UpDiOQ3WpEmTou1nvOgHrXxhnUxuFkTS2crMgyBK0pqmBqihjBtyCGVyAPAwGFOibV0eC5lr5Db0upRMsYBlRsKtKAqouewz3rwVG4DcwgvEtfpKLhSO5UfwGKZQgCQ/gMfB5lAMP4BHwHPF6SSfAeLpOACcxQ67oo5LbU2QMH78eEq6LXmcyDiSjrULqCsjzQGdThmRdAj2B3ZM2oHGQ/M5FowW+ZyVmf7oo48IDubPn48g6iptELNWXlADuMSkHRDN2O2ReBVUZU4EU7KIgrvsrXrstyQVJLmLQI8UD/2zoPinZcuWNYlgUsQdRxwmHhbFIG5o3bq1yXWAQcQ0K/LDVloNqVWrFsPkzvLB5UQesLIIqXfv3lxonRuibW7Ur18/KqQ/3YlZQMhI5ulgU72Fet4OOlWRJGpU8j5A2Gr3tmBriEohHhGA7GCaP/ZHGFGsWDHZGuhWfagdFahhiKRl0dxlgnLlyumtXAUlISspjbBc0qJFCwyljgVFezLZIWhKFtuXJmfQwzgEXGLdVoyOOgT5J98NUHhActBlgvtUe4br169fqlQpk3hIIIDGzzCJAHQOLXEnACyWLVvmLmcA3BR8GqRO42UnPyxEV1gGjnEyZM1cMFj4ryqmSVeA5NMhGBP9Lr6Vc+LX9evXx5rK+4a2rGvE5Ua4MYO8BOIfZBv/SafcmZtYyNEBDJk7ygp1pk6dmrBbVr+TFvrALTYW4dExLh2aThm8QGQsxE0Se7pIi2WA4Bu3EqHimEvUNpSd/2XKlNH6keCaIIHRIYR7pE5SAjKIpJF7bhFrF+xv5InbMHbKdyFfNfan8mWItU0MrWP4t2/fbh1/SaQ7Pylot1poimNb8FM8sQ1o3759qnVlraBbSgZIGzn2ZT4kKWQlHyno6uj86n0DU4I7nGrLFZJNlIBi4ywzCig5iodXC09oARt8+OGH9Aa0xLHVEC0acSoo8k/YPVbYCOJm+1qFgBeMT60lxlCwAjtSoTs1gp6juu6GPoCkpaKHbMHDYqxHjRpF4wlPCRO5I9AeLlEjoSeOP847AUqC2tNFWG0OJJ+A2mQWMfEIG91OpkhaM8+Ut12Kqqo/MfGMjjItNEVhVxBwjxo2bKhjwQYiJu1AznT6Th7hC3GPnWYkh/EVSdPP1apVC0oZaLIB1Wvbtq1WH6PAb8NLM4mHBP1Utt2phy9II+nnqFkACIxdXEAaJb1aAiOy5HhT5NUPsa8oh+APdVC+BdJCgatXr2KR6SgiChSKASUTedaiNZKDDCMYmuylwen/unO20LDiU3IcDdyVwwH6m2pcopC5xi8n7Ka1CKRYmV4ln/BUxWLB3eHFkHbz7G4wgBNMXIS/qEUrd5EbeaYb0RH0kfvaceQShrVr164aEbp00aJFjKbbnhBJMyhcgotv0o8dGUTS7nxLCNhivUpvSfrw4cN2ilL45JNPOIVDRCjjKsmJEydw5Ik8tHscqjYnsqDZs6hXqK0HIXdVPyOo7eUhMLSwkUncDU3vWGcNyUB0FAwBkcfYsWOVfAzABD/gTx240NPFTm8AHpazGJ1bt27BFhyDXMEuJIRPenX+/HnUTLsucbqlIbowYVoeAaAAUbtJB9AWD1TXrnpa4P5zSqwmaLdISORgFFHIfQAbRIWYYEwSoJ7p06fzmBAVZ8V8AJ1XV2BfdGEUstoylITRWEZtR9ItoHlty1BwhpV5OXihc+LEiXcuDkha2xIxc0WKFFGmhUhas0SYLRQk9G6uAhH8FWqmKt1F0PIQhk8Lk1jtZs2aoUR2NiIElIJ+kMurO0LYxDQcQLch305jioIPHz4cIaFt5kQWNIixm0IeBHQmXMiTwqCYY27N8DFe5vTdgInRX9wLxkhvo2D0ZUBwx2vXrh0yTQDhz5cvH73E8YwZM9w5D4GeoVvgkl27dlkOxhugK6gZspGlVj6B+6pVqxD1bLfspQ93InPAgAEMjfIFl6RpiTKzhTXXeMNEShwXL16cWyDVHNN7plwKoIkh3xGSdrdDEmtRD/0gsbEmCCvNANFmLR9gfJQv4NEikCJpLVwiutgckvQqSc5akqbztUMt6ng9NuQAkka+yZcRsaOO+GIKkV2VWbFiBbJbr149DD0HDRo0kMXHIyZKwCZC1ao/ulzEwLvPRZ3Hjh2DPPTanLs8iZtJEgLA5mIsiFoQjnHjxqHVP//8szu0ISj+hoz379+v+RaMlJ1N0rvUWkl9PEAWQ9P4DwKtF8SGVvhSPBo9I2vLEGD9UQ+SkCuKRIigkhYVK1bUYiojzlDSw7BCaLZWEIufDF59sdDqPgi9RAHoYfLtCreWnxl9JQXMB9ISYqz0wXPhHCBOmGO7goVU0AMcEHXx+Dw4Io15xbLTgFQ7+Ii6OBuN5DRVOGHChO+D35SkE8jkjrBdk+AtFH09Dc6W7x9rVbX0oyGTtaJCnRJoP6PTqVOnYcOGTb77/TeeUWZLwJq/FvwgdKpQg7t37NgRtaJtioDpDTIxf1xlvQpBSoeSclMO3K1AgsyxnvrhAstO86BqngiWQnTNiTisWbMGksbTYrjTVCWRk0kkAs7A0IX2ZKECPPXixYtjg/sHh0vSH374YWhfBWLAWeQWt5JxxJWpVatWyZIlETyAjYWDTVEHMtcrs15z4gB3UHuy6GSkS/mp0KhRo1DYoy1jspx4q8RjJNFrZBItwxnFPhOG4QoUKlSIYno/SFvWLaSPiBan7HQ6hbmcCqlKlpzBQuxxuSiGqpKvko8fGUfSUVsvkh45ciTHWkjAK4dmOMAnwpfHOnCM1y+emz17NsqDNPBsGFwO5BFruSvqBAwcOJBi2G78U817ACwULaEeho2R7tKliyIVekBTKy7wphFuDS0VYiXRYTiA+IPoGfMkBUBu+I9UcS8buCvCSHN/ysMCgZRWNx8KtLLI0Jh0FrAy+MJYPWl+FChhiRIlTCILaK/WrbUZygJ11eQe40uncSANDAUTderUUXn3TWVBgawib3xwPIAaNWogXTorEMdQ5uFyACIkkg5B9wrNBFjI9YmubiKW5MOyimhlARFLvI1Dhw4hyVhPRA4jqygE7YiSdLt27SgpH1ceZGhHcZs2bfTaWCywX/hGDKslEhzNaLwucHccBQ4+CD7phafbsmVLFA0q4r6hTSScQgDQDmmrXGRZW5HTl8Ha/Lf39R1KjwRoF7RV1RAn4TZhJ9G1LVu2YBUJVPCkO3fu/P7770PPKCy0bYo6kLl259j0ShUyQByF7uNJ9+rVC+cSccVWYDDd+0ZFF3+Iy2kA5fPly4c42dkOfFbCNs6CMmXKEGiRiWXmWAUssNJESshwwYIFubvJzdoijsjpjRIMF0n+T5s27QkyNMggkhaTxW79ZRQ10mgvxkiv2cB/DBWX4DeFZttOnz49fvx4BgC7YFkZe8foRiNp+B6Zox6sDMODFwkH4DFwCgmgck4xnMTuU6dORRQYMGQF5wC2pg02YNLuNkvzFog1wsrliDJyYANogMFFGjDioc2NjxpQlHZHPxRohjk0cBBAzZo10SL1ZCzwyrmQA4KYzZs3y3GhQ7QNHrIpW7bs2rVr6W2UGf+dUcBM0F2UuX79utYCXf1BwcjRK9qhuUq6HR1GY6kBz5qqIIOo96A3p2MD9/sGN40laW2SiF06AeLOaJQmXxY3SwZLb/twoG2Jelekbdu21atX13Iv8QqGxo3h6GrGxYY+eAlcElrdxP3VFH2awCFItSEDjRBJ09v07aBBg/CGsbC3b9/GgXbnPNEUGoZmcUxhWgUlc6y5VsSMY+IwtCzkmXk8OPC38AvTjPXThAZRU8oCmsU4cq+JEydijTlbuHDh119//e2330bfkVi3AUhC6NsS4PDhw3hszZs3R6jc1xkAVhTtwGLI++Q/vmNoix/A/9O0NrrjajoMorbxH8uDKcAVdmnlSSGDSPrixYvYi3uVknsqn0q3GRi74yYKaMBlglRgUDE9xH/IH3YQAb169SoBR2wLycQAEVXTpXL6Hid27tz5EElabOGSMYyo7wSFVoNwSuzqJjYaH0s7aFBOaqBDNAWqN9Nwa/CQgrJ3QBITz0jhhmt1X995tV4XnhAKzyVa48ejUj7gKliE9jAutA2ap+eJRHG50FikjmPagwRC/6ne/LlvMMTaf4BNmTNnjpUHrTqHpustNFUY6kAgksa+aGJAMSWPZtfaMW3kA63eKT6woSc+Ac/48ssvW2dR0/4hHwteD33PwYLuDW2bZwgYmug6q6AoX8fdg89kYo4x0CRx46pWraoO0fDh0DBYJMlEm6BzdBZ3ihYSe8lxGTBgwJ26cgjQjtCPPTw7uOWsxMciZFfRQXP0pJE5LQEZRNI5HbFknAqa6iT4SF76ekSApEOB5oPgxx9/xPLaFSbC2ZIlS/J0UC/MIYwZM2b//v3jx48nDCLmmzRpkualtRt/2LBhb7zxxuXLl2EOMqXVer8WrkKTdRyiDTiVUIy4mUAc8iM4Rj6hEAaiSJEi3F2h+d69e/VrK/IPxGGQkBx5C84qjH7oI8IoK5RUzArZEAfjFmC/tPoeC00VRkl6/fr15EPVImlNFNFsOlkFAMecAlhJGIIbEc6OGjUKT4VMfBQqN0WzFr/thBAgBCFnyJAhdAUxBwV69erFI9A/uBRUzu2sZ4mjA+XT89H1Y8DYUdiSOmXsog9Jxf0MK/4KObTTfosGtG3blkyNV6VKlfjPkBUoUCC0aT+TgQTOnj37z3/+s0k/e0AfU31ZzCNNPOsk/be//Q1jlyqaeXTAeBF/iEUePyDpVLOs94d33nkHAyp6kz2NAm6Gzv/rf/2vSubJkwdupv9Vg0CHYIVl0xkUOPhf/uVfCLwoz4WKsVxA9gSRqvCVV16BMJT/7//+7+TATFWqVKEA94LFdWrx4sU0lWq7dOkybdo0YmtsKKE54JKE7db3DXRMJA1mzpxJIBu0984W99Akswv6qkWLFtEtFDDorFmzrl69qrl92k9msWLF7IY44f/8n/9j3/beuHEjmkvh3//+96NHj9ZkoAW1ccqdOVSIHwK3oMH0FcID7yoTx4j/5GvWPQoMNIXdNX4tNmtuHHeqb9++qu3NN98MPaxmREDFihV5XlyE6tWrR/esZDJE0o9/qszjacKzTtIoP1oUuxD+FAM7m2q/0v3h1KlThEHFixfHHtGZxHkY3HPnzml9AVYg+rEzSOQTMEUZV/jhhx/s0sPKlSsJvAjUYKDQDi+LgwcPMoLc0fV48IGmTJlCsF6zZs3BgweH1phDk2yA5pUoUaJw4cKPwuuHogh/TSJg33nz5n366aduOHsfgOHWrl2bpp9HMXcIXFy7do3GuHEwRDh06FAi5i+//HL16tW4PqHOP3DgACPSv39/IuwxY8a44W8UjGaokVu2bHHfrEMSUgnDggULOnTo8ERmmx4KfvnlF0/S94qzZ8/atRgP8KyTNBYKLXr8kfSTxcOd7hYI6fLmzUvMiu1OkzkyBHgSlStXJuCO7tLy8HgQ4KB4kr5XfPXVV9rV7yF4kr5D0qEX6Z56QNIPceOYBb5Op06dQq82PhQQzP3xj380iYcNQlLCNW1GeypBaJKzZomfGvzlL3/BvDxrE3UPAvx7euxA1q8AeIBnnaRPnTqFTDzOD4lkAh5FJP1IsW/fPobJT4LdH2DoR+GTeWQL3CNRzj3tKn2WoQWCZ3mrXRTPOkl/G/yW2bP22uUjiqQfHYikGabQjiePNIGLE90l7vEYgMSiaIjuokWLoOqMerEnMyGStjtAPcCzTtJ/+tOfkIl169Y9U65ujoukRdKp9o55JAOS/uqrr0zC4/ECw0I8jYURVR89etRH1QnQdLcnaRfPOklj9zWVunnz5mdHefQpDJPICSAKYYzWr1+vT7J73BO0Ad5vX3qyuHTp0qpVqxiIb775xotxKniSjuJZJ2lB8XTCS6tPGXbs2JGzSBrVZXTmBtDnTcwJjzTw888//+EPf0DC16xZk/BlPY9HDeT28OHD8+bNQ4z37NnjZ7+j8CQdhSfpO0B5iNIQjujvGTyVwClZsmSJSeQc3LhxY+3atZ5s7gOih/kB8HL8jOsTBKKr2W/789UeFp6ko/AkbfC3v/3tm2++QT5SfVfhacKWLVtyViRtAdns379/zpw5CxYsOBX8QL1H+kC2N23ahJAvXboUO+ip+klB70/vi/zYj4d6xu/uduFJ+p/QTm9cOZN+eoEjb3/kNSfihx9+mDdvnv/iwf3h/Pnz8ke/+uorv2H+iUDxYvSbrx4iab9/woUn6X9ix44d+kHMpx6rVq1au3atSeRMzJ8/f/v27Sbhce9A2rGGv/zyi0l7PEb4Sd1U+OmnnzxJh+BJ+p/AbD0jb6oQSG3YsMEkciaWLFmyZcsWk/C4d+ilhmdh3igD4Uk6FfT5l4f7g+45HZ6k/4nNmzc/OySd0xluwYIFnqQfBPv37/ck/aTw888/0/l+5TWKkydP0jN/+ctfTNrDk7SLdevW5dDtVPcKSDqnT3ejyX/6059MwuPecejQIU/STwo//vgjnX/69GmT9sjCmTNnPEmHkDNI+tdff71+/frNAByAX375BfsCdIpBDQFfVSUFLpQ9+vvf/87B3/72Nw7MuQBkrlixAvbSHR8D/vGPfzypFcE/BDCJtEGD6aU0X+6ksDl6YNy4cePWrVuhrcho8s6dO03iIYFbcK+ffvoJ+fnhhx+wF+BiFs6ePYubT865c+euXLlCMSs55voHA5JMVTwpN/reASHvvizsCvDdd98RhB05cgRxFfAvLdavX79161Y650AAVXL06NFjx44dP35cDwU2bNhAH164cME+iEAD7BNJWaRi6pYEXL16ld6jfGikEkBJbkfNujCdaymj9qDguq/ab2sAElGJK7C/Wa5kgmRyShZGD8uNzIkUgGUZCPWwQCdbMEA7duwwI3c3tCFg27Zthw8fNqUDUBtDZgrt2/ftt98yjlvuhobYJBxs3rw59OvsFjwOD24SAXhSeowHxATxvPQYOfynWLKCS0e4xIJLzFEA7oULgr5cunTp8uXLKAvChkhL6izMAztAROlAHoSe2bNnj/pToCdVRtdKHwG34F5AkhCCLcPxtWvXaFuq/kkA8omkpWn0HhEyl6QZewZswYIFjNlDx5w5c+bNm2cSEXz11VdLly4lqg7BNYiBXtwBukFSp1auXGmKOoAOdRZQctOmTWvWrMEhWLRoEc1Aps0DO0ATEG4jod9/jy2QwCHrJ06cIAfDjZ6rAWgsFar+5cuXb9++HfsbtPGfoBjabsED0ioqoSpjD7IsAuEphYmzaaF5gABcMnfuXPUPg8KNlixZQmZI+QGaQJMWLlxorgz6zT2gl2wOUKdRlQU9A3RsBYADBkWZlFeOkiCo6Z+g/j/+8Y90y6pVqzjmYZXPQ5HP05EpuI9pH/BeMX/+fNomJ89WyMHq1avV/7oX90VadgcwnZUF6D/V3RES85AB6BnlUx5ZYrA2btyouwg8stpA4ft+ogcHt1Zr1RtAnSCQtA/igqvoSVMoC7ocibrvx0FUGCOTyILbtqBrvzInsoCJgGZSkbp+QC8dhEbQinQq0FRTNDBEy5YtMx0RQCIdAmW4EPtgGudAUyZAOqXjZNBC9YlJP0VgLBYvXqxOQx+tZQDKpCc5xrgx+rYHODC9+SSQuSSNY0XvYIDgEnwoiErOFCyFM0VMoKSCAyhNNCbIfbPAAspNE3ShORdAOQcPHhRd4cdBV2JB/ge8tpPohKTsIIZeIyrIFnPWLS+I8wRMqi6kMM8FhfCAsVskULZANlICUUOMxAqqUPYadrzTvrvBTV1ZBNg7aylci4D4cpZqRSd6FqrVAQNBN+Ls0z+cpRiX46WaRmcBo6aqgg7YidNAG/hPB9JIDoLO2KJoj2BC9VOnOn/v3r26EKdBY0Ef2l4Vw+kY6BKCS5MOQGHcFB6B+9qYQ5WIzzirTAtaxVlJGvJA/+OeY4VxoTDTSBShs/xx3GrlKDhA/OgQmmqfC1AVkPcmkCnPCRPA2NFvoR9eIzgmU/JJ/Tg6eD+pHH98OM5G3aNUUIRETKBYR+BxeCgeJNAAA5TL1RSgIEZTCHdUKwXOnz9PAXqD0JCreBzGRW6fIPWx0OjT4fQePWlvig7SdaZQFlSYcae8Qs9Tp05xOy7k1hxY4yCoKkDl1AxLSU44IEenOJZu8j9o4B1ZIoqlfj0s9TAi/DedGAGyQQEq1DAh9hqUEBLmBuw4ukgonwAGjsbQGybtAMnEueGROeAx9fiAnqEbJcZBt93pN4abHqCfKcnw0UsqDDSmPK/6R5AdlhG2wKahPoFcGMWR7hjJC2CnQl3ECrx0AehC1QakhglQDM0BdCAJ0SNIN2UqrZWz8imDg13i8TmFOcIkYtDub1weCjKXpBlpxI4hN+mnDkhPKr1CczjFf46xsFevXkUiETjsAsL9ZOdeLMQrN+N+QAz+RgFMwuNuKALDRJp0AGwH5G0SHhkAaIZhwribdAToIwUy5LeiFS7Hzs9LTyE5k/a4RyxduhSP3ySeBDKXpEVUT/EvPePf8YCxJI1rwimsgElnJBKUn+B+9erVJuFxN2TcCUdMOgBRTs768dCnHgoSYie6BEXSxGcm/URBpJtKGYl9OZXt+rpHKixatOjJhhyZS9KnTp1CtvBnTfqpQwIT69kznKSPHDlCI2N/zweZhqdNwuNuaAYFF82kA/zpT3/6+tl4syCn4PLlywxTwkyenK0MmepTJB1L0riDnLruv3V/v5g/f/6OHTtM4kkgc0kaqdq3b9+tp/cnhGWsY0kO95xT165dM+mMBObpq6++ilX+9evXe5JOBYz70qVLQ96nNpObhEcGQIFywqBcunSJAufPnzfpJ4q9e/fSmNi1pwsXLqCMT3BJNadj7ty53377rUk8CWQuST/L+PXXXzHiqbaVZj60y8MkPDxyJpDhBG5DPfG3MoT8fv755yNHjpiEx0MF7tqTNcWepD08PDw8PDIUOYOkc/RczY0bN74PXvm4dOlSzg2OHxw8/tSpUzt16vTmm28OHDhw8eLFj24zy5YtWz766KPQDuooLl68iJtsEg8Vt2/fvnDhAuNOG86ePZuZ486IrFq1atSoUW+99VblypULFSr00ksv5c6du2DBgi1btqTxptz94tSpU1r42LZt2759+7idOfFUI0cbK71kaBLPAI4dO9a9e/c9e/aYdDCLefr06YzaDJ/pJE1n1axZk/vOnTvXZKUGBrF58+aVKlVyf4cRmTtx4sTatWs//fTTrl27NmrUqHz58jw2qF27NuYJ82GKZgFJxUJxyezZs0eOHMlVVPvGG29wScWKFS9fvmzKZQcG+7333vvd735H1wllypShGQ+42Azr0xs70/ve1tWrV+fPnx+78p0KM2fODO09xu4sX768X79+HTt2nDdv3r2aIcqPGTMmV65cphey8PLLL0d/MRMlOXjwIPmzZs2aPn36559/PmXKFI6//vprLH62zEHntGrVSvVXq1bN5EawdevWevXqUSZv3rwQlclNAbh806ZNuFmpXn5DJNatW8fIMtwIVbFixdxBByVKlKDxpnRqXL9+/ccff4x2L63Fs4FEEUJGIXliE2qcNGnSF198wXPt3bvX5Dr44Ycf6NUqVaqYxqVAw4YNzQV34+bNm9AtA7Fjxw7YVwTMTd0FUYavQoUKpiIH+fPnb9u2rRZ6cWKWLl0a2kCXo4HDx+jg6DDcx48fN7mPALdu3UIf8a7wemPXoWOBamSruRo1d58UA4QCzpkz59G51EgpEo4GLVq0CCXq0KEDcl6qVKl8+fLRGOxG3bp1XYebp6Cr8X0BUvQgXkWXLl24BRZeSYwMWkZO0aJFM2cjJ7xDk0zibmQESW/cuJH7Cl9++aXJjQM+kfoXYHmxd7AshiZkLqMgbuByaKBOnToFChSwlaTC4cOHKc//hNfDiJwmTJjwwgsv6JKSJUsi/bYlJLMN8mj/O++8g8iadBYQaJieSvBdTFYiCCgp3LdvX5PODmgL5Wm59SSgzJBBp2Hpe5roNp6QLnz11Vd5IpyAwYMHq5+ff/55u8WM/mzatKnttFjAf/Qt+hzrt9Gq+vXrUwxDiWJjxcyJuzFt2jTuqwoBzAGlmXMRwDcyFoCb0p+2Z2jJkiVLGAidDYHhpjzQuKP22ZpInHpKUqdJBxg2bFhQ3z9BhZ999hk215RwgJkjFDblAnB5KI4fOHCgTlFP1apVkQ1GBB8C7sfqHThwoFy5cpzFnVX58ePHjx07Fnl+++23y5Ytq2ujQOnQVsrjIiiHTi5dujSSz1VuqxgjiiEJHI8YMSK4yV2gDfCEbTa+0erVq/FKN2zYsHDhQtxEAcn59ttv03eaY8GgUANOBt6G4n7hXlkWMlO/CUiyOXE38G9wPXv06PHuu+/i0hED4KmEtAnW4UlTeYT0jCyAQPxgTiQCMX7xxRehW5OOw3fffac67dvhuAJ24F577bV0pp3wMnHCqGrz5s1I4/79+5WPHZg4cSLyhjD079/fSi/SrvqT0atXr127dom8TZYDjAb6Vb16dWpmKFUzI5js01+5ckXWRu+LYpNDxie5ux4bMp2kpckycwhZKs2huzEHlCGM5j+gx0ePHq1jLkR/WrRogcFCQ3CRsCZQOGOAZYGBEKAoN0DetWrVgpDef//9cePGQQlwA6OORrVr144CXIKJiVpeCnTq1EmV4Klh+JSPz4tCSsgQ/YTvJACuohhBv0kHWLFiheJR2pbma7WoFuXxuDnmkVEb5ceCFsqVtiYGY5EnTx5yuC/Gneelx0hiiFUgGXQOISDl4bkFCxa4bCEvhFOvv/66cuhhkqBIkSI4TG3atOncuTMdiC1r2bJl48aNUdEBAwZQyccff0wx/utCi549e5KPlDJMqRgRQqIMEkU0SbUw9J1bBmRmSjjgdjrrgi7V67PWqAHsZseOHamTIcaanD9/3j4sdEIBRjzbVxXUV+7sguQfEF5s374do2nnCaBAvA1TLgDMrVPIZ8WKFaU1YNCgQaZEAOwmoQOSEJ1fQb8QOS5hvHYH3y5FSm09LshkmDAfRI1Wd+A2O4jdunVzvVh6g+SWLVsYUCSBHJ6IYrGChK/MKXnDdKYdo1TA9KPCOE90UdR9hPIJBMXlPA6dhs/Rp08fJIpRi306ULx4cV2eDmBouS+VK1fmGVG3qKWiYViSqJ0BsIvrcjVo0IDMevXqRYNXVBhrxlnUEC8quPq5dN7VxrmhZKrZEQGPgTJ0ppLLli2TL4sbSlzBQbNmzXRKwDhgE2rXro0JxXvGM6ZMCG3btqUkmhJy77hElE/oRZIbMRbcqH379hgZQiaMLRLIhTNmzICA1wTQtclAIPFyZD+p07U5IejWlJet4NYkGUGERBYe05cQiT02ZDpJo07cFxc+RB4hIApqHtrCAcDfRC0lGaHQxAVlpAkYOBw9jCAOuyK/WB8fWLspwP0hXRo6dKhOoVEmywGm5JVXXuEsTp/JigMSTBlU2pINbZNB6d27t7VERBIQNhFqqtlvGTjU6eLFi6owNJXtgqCKMtxFHih6Ip8Aq2HfRaEZ5BAHK5mMMWPGUFisabIc7Nmzh7Owl5IYBd0rQa8EuV/YWZMOwIiTCVBmkxUBOk8P8IB2ihuiGj58uC4McZ58fMrjzHEKq/3hhx/KR0GTcTJoJ2PBKXF2LOi3woULcwltNlmpgSxRElJXklGTlQx59AcPHhSdo70mK/hmmcQDSSZJh9MhOA3kAOyRiiUAEWKkKMyTQmzKJLwmh5q5I6PJ6MOdREshLkSq6du9e/eqDahAtoMIGVDS9UgEKicfaA1bQgIQRewpV0GuNAaPDb9c/YMKQHIyrATEqgdgDVq3bh1c/dyECRMOHTpkJ0WiQA5xO3BuMDV0rNglHXBrucK4m3aWJQR6A49TN+IWQ4YMYWiwJHjzClWhdlP0t98UbwDMndvPkJb0Ef6GPKhT44XimBKpAfFQEmGOnYAB2Bm6lzKaVYL45Z1jpjh14sQJWZKtW7eqPHBnDqJA7KH2yZMnIxiqivrRKayiWAd3jUqktoiN6kzA7du30Qgup0LMowwj/YMK0zz8s8GDB9+58XPPMe50jhocXc0UuFzsIBcWr1qiK+tBL2kUMA5B8SeJTCdp3CjuCwkxBhwATam5wH/XKYIYkhJc6SrBDccoQ1AwXWiCkbDMpB3gIMuTxW4SlMtG2CUNgBOnwQY2hg4BP5GzuM8mnQKq/MqVKxwjOqoWZ9w1fxDVnTsFJow42+Q60FnZXE3MSjeiwEyoMI4RSZ5UFg2XJWSRoSjyU81qWEBdtIqnQA9N1t1A2agHB1zJ+fPnk8T+KpkANJ+S7777rkkHaNKkCZlE5yYdAWpJgE6ZTz75xGRlQSOOKbFDhk+jCXlCEOXIKNCTihjSWUHAfMi5rFGjRjpv/Ddv3pzCiIeStWrVIokdV9LF+PHjOeUueXALcqKDKxck25mbr7/+WgRQrVo11+dAj8iEV0w6NXhALYu0bNkyW4bG4EIYFFa47AJfgXxkz6R/+w1NISd26gjJxOnU0rt8a7SSYxqA6RA3oDgMFtyvtTOGtU2bNphmaJskQA4fZF1T0y0QPLcwWRFo1YmWWA/MAjoMaa6MsvDee+9J8CAeAkpy6tata6MCOTppzsq6hjEK+I+ztFCxo7xABMzq/pw5c8jBj1QSyGHF/8N127x5M+4UbhDC4/oBdKzmDnGq7Gw57hcUzr3oMYW8gAfU2fsDN0JKqcfOFmg6M5Xxl5gB2TFFg2irFV1ZaYZV/f8EkekkTaTIfQEDLCVELt1eQ9vlxjZq1Ej9K9GRLCqSc0k0HWjA0GSTdqAJVUJhyS6mjSSwFoQoRzkgFUnLq7DTSqkgpcJJxHuVZ0CAYs5lAc4mX3SOkY3SIfkAM8SxWhvLmuiVFrqgMbqUnsSLJwkfR9kFY+cuzaYCGkglI0eONOkIsE3cAhFUEheeJKOsZAKmTp1KSXeA1O2ofYLrgA9OGcYuutpHWKx41056i9tC83uCjDu0l7xdGUuqCUniCSjf5CZC8/8TJ07kGCEXjbkxloV4y072EC6QRACiTWL45Ci0b9/eZEUwadIkiRBxZyjSkmlOZ+FTgwIvpvN9j1OnTlEYRAM73RG+V5JulPBn+5Vs8QoRKrppw1a0zJ3FQfUsVQCViZ3mSRNHjx5F6qgkYboO7VP3zp4922QlQt4hEqiaIRuGlUCFY8I71xWAkMjkkU06EeofpNek7wbeAGdbtWrFsSIixMn9lgs2Afl093lQBiTbAU0rYspCHoxcKNSWwVLnuFus7xVUIgcXB9pO/muZKVUs1KNHD86K0dE1zSLIwxM09QhkPJ8gMp2kMTFy8CEqdElS63qjdCs55NutWCSBhlzeUO3atXUqTWiSMBrS4WOqMQrZBRlWxti6t7REwVYqkpbrkGrq3kKzSURyYmuiAevlWdigXBqI3xdaRFGPiZWRRYWSuDXWQRYksoQvarP4jGsfxH5lC1iWu9hpf4Wz/fr1UzIBUj93ge3DDz8kRyYmFbQmouX5KMaNG8dZeQx0VLFixUjGzpzD6Fo01dpqLKhBi8d0qd07ky3effddLrG+vzgeu8yNXFfJ7syym7flq8FMSoagxTxMYTRYQaI++OCDoLI7AkazzYksyMgOGTJESRgudjsxF2ryMM1ZKwIvChNjmbQDuUfWV1NJhkPJBGhNkQY0btyYA6QXRQvJeQjS0127dpn0vQNxpYZ69eqZdBwU0hFKRvU3FtJ3VA/XX/qr//nz5w9NPFAn+TNnzjTpRGj2xQ2FLQh/dQsJvES3e/fuOhsLvCvKgASSRlo0mQ8lmywH9kIR5H1/7R/Dq3UijLO76oezSCbPhcKarCygTZoMl9ukSURKhiZUxI5pdu+jQ6aTNNAcmohZi6aYSHEJvQ8tkePOPZIEcn/Wr1/P8T3tAQGpSFp2/OWXX3Y1/8qVK4rdXZMtNYsladRMpoGIwWSlgAhVc840Jhr/AT0gt0MftIiChXJNrVpi57iso2PNLtBiMNB+aUzJ66+/ThLnWgUeBXDS5UHbsF4UhWFFe7/99lv6k9gaLyTqYoukrWWkwQwKOQmsab29VOvHBGqcBSdPnqSXOKB8KhPfJXhz4+233zbpu0F78DwoQFdv2LDB5KaBEEnj7SG65ADEABmgc8RAAGJWMaAFiNj1DoA8qB43UBDsTm9kO5ZC1CT0q1evXrJrPBTcsHz5clMiADynUwlTvi4YKcrHcpt8KSufmtZq166dkkAzPSbhQLGUlJGmxs5AhBDSjnsFRKXbJb/Fp714dhXDgssJ16KOkVolC0bor1sQXke9PY27G7QkYNOmTRQuXLhwtPe0ZQwlojGMoBQz2blESSkDYu2SoDmnMmXKJJQBIqHkPa2pAK3KTqKtUV3TnEQ0X3OKL2S9w4Jsk2zdurXOWsi7SidseKTIASQtLwnzxDFDoviSWBATNmrUKI4RYjvLh1dFDjh06BBJOwuqs2lCm4ejJljz6lqydYFBIV8vlghSsyhJo8wFCxbkVN26dZMFF2hBHWBh3Tk6F3SCyiBtu3fvFgG7019ax3KNCBwQXGFsOjVrpteufWq1hqrS2TV63xDPVaxY0ZoMLZmjbHoKFxhuly9F0vShkuoErkrVSwBXgDLuIm4U6isUWPMTTZo0MSci0FaJVAsWCuuxdO6MSzoQIxLamnSwqv3RRx9JnFy8+uqrVn5wO5SZyv8AerkrFBsp1BCocMCAAUQzIc5QeBoLBMaOnR45tDpAINi1a9cKFSrgYTA6ECfHxHPcQnPjPK8pGgB6QIb1gobdxEcNJGERTG2bNm3k4BJYc8eQC1W7dm1OAfQlzRmgByRprdfQmCjRupBcffLJJ8jn6dOn4d2ePXuKuQFtGDZsmCu6apWdZSUMIMCNfdNMvmnIYUoFQhotoNhdgQL+qyyA1llEYJhZnU0FS9ImHQcF+oy4SaeA1pLxIKlTwHLimse6Yi4QGK37QAGx3jA2nLPRPSjy5zp06MAxUqQOZ1x01kIOYoIdeDzIASQt+2InRaNbNLWdVWCAlelO2wLMBxTL02JYCUGiK2EuZHFCFoT7konlJQRErE8FX1NCsDCpsAWnXJLQqFuSRtqQOa3yAgKI6NsvUcg8gaj0WNhJJ82DIY4c0xIbnmqA3RowKFrdx95h1rt168ZxgQIF6DoV0NR3dCLhIUJOPXDnkxkaZQIeAUKFm63lZQStURZJ16pVS0mFZRh3JQX8OdcN0rLI4MGDTToOWuEjptTEuxuqhqAt7iVKlDBpB18G73WANLfzuAhF0gLjpTESZGeBfRb5HyVLllQyFpoPJ2Iw6QD0T+/evTXZaEFc4i5sE98oHx+U2BSBgf+kkgD9UjFJVOjFdPmjUdBFdA4HjRs33rdvHy4RHpu2RFhYidVykoL4EEK75LT0Tsn0FxGlp/dN0urV2B2mLqRQycCxsOYiRNIJULekP1sjbQp9FUDalCdPHhklhRwIhs6mgrW0Jh0BDKoCREomKwWwhyoZgl3NicXx48clM3RXqvVsBSQtW7Y06QCIN+aFfKwQSa2n5M6d265X3rx5k7EA8sVjF2UeJ3IASWsqBntt0sE2Gc3HApxr1xa7JE2+BiOKgQMHmgvioLnK0CyHVnQgab0yGAu7fUwzqyRnzpyJDrt2EMsSXSOJhRbneITohnYXupcWYzDochLx7uV6a4BDL2ngTGhCQtNlwJ0olujbXc0PHdxdtwjNVSxZsgRHaujQofv373dDE7syZx01mXg7daGOwi/GLjBM+ExaCcO/JlMKLClKdurFkVhebaJJ2I+jzU201qSzQBSiqUK7Ae2eoAa473/TD8oErVq1ItDElMgVA9olB59xTNSiS2KhtwBSWV48ztmzZ6NiajzRidv/OAHRXwFSjGJHUFOOodU7Bm7y5Mn4YXiQ6OPRo0flh40ZMwZe4SAKCTOw68R24gcZIHZft24drZX1pLWaMBM0twkPhVYWEyC5oldN+h6B9edyyQk9Ri8hmfQkrO92IPrOIFrvirC1Xbt2aBzDR5QMZcqbsVss0ydptT99J0NeBX6PSQeoVq0amVY2FHLgSCmZCrScYkBJooXTp0/jwNnwl17l7IsvvphtQKz9NCFAjQnTIQcOHND8RNmyZRP2imqxmWjEHQ5t6aDP5fRrcz59juXE0Q9FgIBOzvYRHilyAEnrEw12blOg09H56CiGImltTQIoD9HPqlWr5s6dS6a7vyAKrYqFXmx14zyANUGMCI4xHLRQU7V2aVxlXKCi7du3jxq7BGjWHSAlgwYNgoHMibshD8CGpBTTOn2LFi2QLdFwdFspLZFFBu4s5Q8//KBM++GehwsUQ6uq6FiqJ4pC4SkKr3BfmwbsdmUtHfHfmngXPCaXy/GK3cBioc9r0O3ixYRNA5rkcB1HwBDIaBL43p9WKx51PQltg6Ba6/8BKtdeX81P6jsVsRvRLfQhNnfOKRZExnoEBRkJQJUoxojI/GmrUbIPdOvWLb0TReVcxYiQ5HavvPIKjiwPeObMGRw4CgArfrja0BhPGto0rnlOdyZTu/kAptYl71Sw98KSmKx7hEYB5cLuYw1Um0B0GGowkn/y5EnCOJcwhFBUoMlnOxmWClQY3Oq59K2KRg3VM2lnvcy+TyxKSA4MAAZWF4ZgPQZ8bpKQqJIJ0GTJ4MGDMQgMCvSPqJhzcUBKtU5P/ye/uHX16lVZOdeaadTsmzIJQZdF+pbqUSAHkLQGO503NUGIpPFGOcZ262ya0Bd/3OlKqEvGC7cLssdnDImR4my75MmxCyq8j7cAFUMoKATIJTl2ytdC3oO7eUSf9gSzZs2SX0xAY845kGkA7mQ4OkYO1jNqSh4K9A4bI5JqhioWN2/elLLpWwpaj7CznVpH4BnLlStHQEkvQQNEb/zXhgbGTu/kcEqXxEKTgYy7KCfVfhx6RkGb6/oQN8hwwPT33XUaLBuPYqb11FHy03cbtJ1bJB3yYl0gM4oPCENNVmqoM0MfKYtCH8cAWgjXjs7Q/HMImpbHW7UzSXgbob6ypj9bfdGsrN0Ejj7qQjlq3AUnO3kg7FbB9CPvEOQf6w0xgJhhAWrVqqVRw/lIs2Zpol2MkFHONj62ti79vSOQjS6xXzSSIGFDlASK47Ml/liShvDsdjPNotepU0fJBEQnkBKA+ZUpxteXy54Mrf1bE6dVS6BOsz4K1mPatGnQ/8GDBxFpDZzdtJHmFodHhBxA0lgWbk10aNKJCJG0Xvi712Zr64o736tVz4TNFGrkS1nf5eAYYK/tWhpmHevvzsxnC8WL+NfIpZ2XrlGjRuilW800hsI+rRpCG9obD6uZEw7wWPWikbv4mu2TPgjGBO+eoWPuRrY0IV6UsunpcJh0SuQKZUa7F35SXKIFS3tJFDCH7Dsyo/q1VzEKbRfCNFv/Gh9OM5YErMlBQDLk43/9tfmyv/iSmCwal+tzLjgTHGujX/HUrzAQ4lOABqezzqLJwNh91y4sSYtNly5dyjHylrB5TSsOyRG/Nf3Z2l+5xXa50YbFcJu+6wLefPNNu9AYBW4iZaDz+5v2ABItgA/00UcfyeYAGE6KT6ZykqHdeXYNTkbZrvengmVce990oMqJfDhGVkXJ7jqFcpLnGoEdqSNHjkB1iEGoq1evXs3Z2H0bIeg1tnRI2jJ0p06douFKLJA3ylvvHO+TJNZAg86Dk7S7W6LQ7e57QeShIAeQtIgWE2PSibAkLd9n5cqVHN8r5Uj31js/W6SJUJfMQsB/vHPX556TjdYxcoztwNZbqoZO3O8DJEMkjZfNMfQzffp0RdVly5Z1Z29kykMLqCiMO/+Wam9L7969Oeu+wKZvLycvcN4fxNAg2+WuWMh2iKT1yHabvda0YmcL6Dd1voLjhN3dEydOpEDRokUZQREADr455wDTICrtmvWFHLpakxnoEsOtzPuD1ikU7+p7nCD2LV4Nk4zL5cuXVdLd8OVC71un+UKdNvfyLCadAppxAdqDSbcoZGnSpEms9aSXtIg4f/58kxUH1DaoNXuSlkriTinpsjsjOGzYMIWzdevWTVWVnhQ1Mel7h7x5ovnQzDbQRkWENlu/HLdGW9btuwASJ3d+Kxb2kRMcoyik8pqDwQ/gGKviyq2mfzdv3mzSKcBN79w79TzEgQMHVCD05YYoNLuWLUlv3bpV6/o0Pv3JKrmGWoZHVtXV1inRulXCBJt6A+fApJ8EcgBJW71N3pItMHgqrG0XepemQYMGOpsOMDGqwd2UqFeQbYgTRcirdY8BcjxixAg5ZZiq0BcJUsElaQGPVZ+M4L+1yFpBD5E0QLDIF0JbRSzkwrtxtiLpV155xaQfBrBTcpZBtJ3p4OTJk7pcs3B6tcNOHmj3bGijnyBbSc8fOnQIq81B7DwqBkWT1Vq1tRMw0ThMb2UQcxNKKkcvWaL8yb8gmS0QXUmInlFbMXAIdDYEvcLUuHFjjokJNO8aa9bJ5BQgGiDuzHaxVn5tttSltx/dRahNmzap/S1atIgabr0yW6BAgWiXutD6FJAVRshjKZ98TXvozX5gJURJsGLFCjm18HTsTaVf2c4ZJEAvScZ+5J8euNOarNcuMB2xn/pi7LTTkw63TyrxTp+ks3VoXGi7vsZX7MhT6JQgly5BT+lM/EIbDkUdFIHHkdOZakYK0lVIo4+uJ5P0xYsX5aZjytJnaCBXDK7lWPs98+TJY+VT+2cTvqPyerBDObqn53EiB5D0vcqiLIW2XTDwHCcvlYWA/gd3+2dccvz4cZI4cQn2BWnTVdqEomNL0sKePXu0qxnZtSY+ATIiNlYQ4BhFJHXq1JFWa0UnqlSIsn2txX2H24VeOnJfydAcYCoyE/bv30/wHXq6VMCP1oQ8HJnqa18AIkcfeNjYTsYOUgP9Jv2Ualkrpjkr+yFJCwrIlMsLUfyNTXSVnPsuWbIkpP/WvoQ+QIEHI+myQbxMALiPCfwQ7HZZyYZ8fPwPnQ1Bds1+YkxfDatevXoobsN31IMgJFqRqVy5cvJcjraOE6PfvHmT4Bu5ir6hy5jKpwmFIOvXr1eH40S6ew6OHTum8sk7y4AlaSXhV0TXLitYSOYZNWsTdGHIQO3atUv3bdWqVdSy60W7VP5rOpDgxW6XsQZBvn7h4FPV0Z7U/A2q4crPvZJ0tNoEoNe6Cu9Bk0yhuQ3GlEweKtpjV69eRR6QKEwQMhBUk7TtTp4c/msoLEG/NK+m9RotTyQYB6CJk5dffvleJ6tkvQE0L7azFlWPQOcnvBCr/UnJe1keNXIASdvVpjRJWlGFol7t+7WuLtq+ZcsWLC+ihsElfooKot1OYm+n9TYcTCVTQVcpgpcLH7WGeJ2aPyFCkheZgGnTplEyOum6bds2lyrc90BC0MolSBUuaIusu0OKDrHvR0XX6q5fvw6jy+7TPJObGiiwlr0B7eRGAlE+gde+ffvQEw0B3KxVBpqkPrQgspSpDb2jok1kwOqh3RB74cIFRQmgTZs2ugXkp3qwy4jHxo0bsQtaqwZ0kbtkq23V+fLlo6nYFKyM3ssC9IwqxI3TUjRe4I0bNzDHmFo9IPXT7FQzgbGAyVS/rtK3wODUkNfCXTTiwL5Zx/Pq0YYPH25HjUx9fgfThh2nq9VvL774IsViAyCibT0RVolLJGaAegYPHjx9+nTiMEJ8yXDsN3YYAo04to9uQcXWrl0rgWFk5VYmwJK0npqx45j4e8aMGaIiVNj+qIwb3yBp5EQNlJ1PiiqIdh4kbFPIFvShusiKooUmMOhqjabeaOBedjQhBkIIeol8hE2Zghaqsn372c7epb+CJmi9Rn1L+0ODCJnRbE4NGTJEn4BF2rE5CKRdtsNLZijlkCXsAOUZ5U9T8v3331+xYgVKh6Mm1gETJkxAXDUFnbCr0Ubt9BjdQj2oGNLImCKoZAqYu2glNF5RjXauEGvZGS99abFatWpKxkJzjQkLnY8BOYCkERpuDVLNq4Qgw8QQcmzfjMKy4J9KJVzkyZMHX8mNP6yZsMZOE4/ZBgF6A2T79u0cY784DpGNgBWTDri7x2OBIFIsdmVUP6oDhWB5NV3mbv2wsL52qq2/MBNn9SaPxeLFi3UVPYMco5/YWfiM6E1MAHC002EgPUIyUBs52gTo2h0GGLjRo0fPmTMH9dBN/+Vf/sVaE5ENDVMSwLvkULJt27ZVq1a17AJPuMSAZ6C3gFxgIwgfQz4To69oNYT+/fvbChXsAqyevWMISAKkTqQb2u4XhVZ5aYySeDAygvRJ69atYRTCDrGjgNF0vSg7ajw+hIrY6HL6yu5NPXnypJZRAbqA34mVxLHg1niu2gkPiIPloVKnjGwUjFqqvUWQhwyii9KlSyfMzViIa4EacOrUKa00CXgbtp/d77IBiXqsgYIaOUWDQzGf1okw7iZ9X1Dl9JJLdcizPBU71UEPq+WM5ltvvQVnW1WyH0C1UMmECFWA71UDnpDJSg/2PXuA9TC5DhTfA1gZhnBfHSYHXpQ7K28+OeJn0GWQQ2A4tLRkR9zOXEaBborI00F0VVQvAgju/husAT56aLYsBF0betnyMSMHkLRdbYq67bHQZxa0EPJK8MvNLtANXKc333zTnsLNdw00hI3b7o4cvhjGItsgQBG8fh+XWAdpTuXhau8G903mOTGc/V6ECzxc7dOhDBaB/7C1OXc3tKaSSsj0GZAohbtqHAK+CP5KmjEidgQa6NSpEx1CnwsNGzaE1eAbGSPU1bpfJ06ckF8VAj6B+4D4FlzrkjTEYOlHIBn7PRasOU9NVEed0B5+QChUtWDc7aY/KI1eCm24VYDoAkpGuqBJgiFLJ0K2s5eKvTD3Jh2sqkZtEy3BxMd+mJpnsS/sCbTE3WMIEGP8ObsOEgWjE/o6BGb0yy+/hG9q1aqFvaDr8A9C1YZA13399ddNmjShE0DHjh1TyWcIVtntrAbRGC6p29V0cujjPIDn4qG09BgCp/RyRGjSElEkM3apOH1cuXJF3+ZEL9CaL774gofV0KOh7kT0mjVr5Ltb0OAlkd/OUtRIDQlzsBYablcR0gEqgNIFTbjrt4JcjBo1SrGEwDGCgZ1xFV8ufrbBBvqF/FCYiBbg+uN/0wad1Xdp0FYlU2H16tUQKu4CfYgQ1qhRA2lkBPF4cMRxnbt168YxpsZc4ABHQXqEGKTTqy54Oi7E6TTpJ4EcQNIMJ649ZGPS2UHEo8AXo49MMLQo0ocffrh3717Mh4oBWJ9o4J5WdBKg6SPk2KRTg6BK8RxNNVlx0BYPBNGk78bp06ftK4kJIIrCpKbyyumB6dOnxxpcIn7kHrHGEOB/IKY9evSANlJR2n2AsYBcQxMkRIcEkdhTgmP0EPcC7gl5SFgK11gIOC7wHBfiYIXWwB4EOG0odqgBAoaD5mEjJk2atGfPnlCTaA/dziCOGDGCeIsnNSdSQGvGoa/8w1UQEpENAd/nn3+OC5jMdpzF6hFJDxs2DFZwpd0F+TSYOjGdxHwoCIaA8YX73ej8wZGqAalAPzOC0TeXqOfQoUOI3/bt20Pr7hbQW6olpO+++27y5Mkhp1kb/lNta0ofR44cccN9oX79+tHQEJFYv349dh8RJfyNfRAyhw4dGprcSgXd9z72Q9DJeHuE0ak6EyB7W7dupXJMQVTdgH4h7UHWC8DBgwe7du36qLdPY3I3bNgQq8XJ0B5SO7/1RJADSFpIX9thEQb+PsbjAQFrYkfStHHaJAxVJ2xZx6VAkR7pT1F5ZBQIYR+iD+SRjJkzZ5YrVy7bGY50oGDx7bffbtmyJe5RwjLtwwVu4meffZbmFGMIsbx7T7hw4QKBeLbeZ44GPIILHt1z8DiRY0j6KQMOLLG+/ZZnKrhbmTw8PDw8njV4kvbw8PDw8MhQeJL28PDw8PDIUHiS9vDw8PDwyFB4kvbw8PDw8MhQeJL28PDw8PDIUHiS9vDw8PDwyFB4kvbw8PDw8MhQeJL28PDw8PDIUHiS9vDw8PDwyFB4kvbw8PDw8MhQeJL28PDw8PDIUHiS9vDw8PDwyFB4kvbw8HgyuHnz5sWLF/lv0h4eHhE8oyR95syZDRs2rFu3btu2bal+g/bpw+3btw8ePHjlyhWT9ni2gTycOHHim2++GT9+/CeffDJs2LD+/ft/8MEH8+fPP3nyZPTHYcn5/vvv9+zZM2LEiM8///xBfusQYh40aNALL7yAVcmfP3/Dhg2HDBnCfR//L8w+ERw9erR69eolSpRYtGiRyXpgnD17Fpv29ddf7969+15/xtsjk/FskfSPP/44atSocuXK8SwWBQsWnDhxYvR3oLFEq1evNon7wqlTp86fP28SAa5fv44levvtt2vXro1h6tevH47CQ9Soa9euofzYu9DjYPsGDx6MNeR5n3/++Y8//jjhd6wBTaKqe7KYcD+G/tVXX33xxRd/97vflSlTpm3btlOnTsWsmxLpIeFX6AENgz+WLVs2ZcqUoUOHQioCBPPpp59Onz59y5YtpmgW4BKaUb9+/SJFihQuXLhatWrQw6FDh8zpewRGsHXr1tS2fft2k3UvcMea7qXNtKdYsWI0rGLFir169eLRHsNPSnPr5s2bIwlSgVg0a9bM/lIqTfrss8+KFy9uzgVAj44dO6YCFqgYkoaEd+zYEb5fsWJFVNLohJYtW5pa7gYdYgplh6tXr86ePZseQ4/eeOMNRuTdd9/Fddi/f3+av+n+IKADBwwY0K1bt/tQ3h9++AF61vMyBJs2bTInIqD/+/Tpg9w2btx4wYIFsfpIA5YuXVq1alVVKNSpU4e7mBLpgSGm8xs0aFC3bl0eDTmP/Zlq8tFrnAyTTo3Tp0/TZkzr2LFjkepz586ZE4lg7I4fP75y5UoUHD1FtUeOHIkTyX3JN4XuBrqM+n/55ZeYrKdyVuZZIWlE+YsvvqD9gQw/B4tUqFChRo0a4i0wfPhwUzTAvn37yEQ9TDoFkJtUgTgKxl1eeukla3PxcwsUKKDbuaAlD+tHxefNm0eFRYsWdW0HLWnatKnuZVGlSpWoEkK0MN8rr7xiCj33XO7cudH/gQMHqvCuXbuwg1H9JxqzfRsFPLRt2zZTNBGzZs0qVKjQxo0bTdoBdgHTb8crFUqXLm0uCIDqxjaMoYFC7snCYiK7d+9urg9Ar4acMECgiX2J/SX8xYsX58uXD9OjJF1tKrobeI3jxo277wkenJIJEybwdKtWrUpFVwRwuleuXLlef/319957D2v40Ucf4b317t0bP0/8zXBQ+ODBg2XLllV5BBiXQsegSZMmqtACc2nOZQFq58HN6QDchXyqooU85pkzZ9asWfPmm2+S2a5dO1MoEXR73rx5g+pjUL58eVeEcKcwczNmzDDpFGDgoHl0p0ePHuo3tImmRr1G7t6oUSNuRO9FBSAZ1EyncW2pUqVatGihg1j2hdVknS1I0khzOgCeCr6Uzr7wwgu1AuTJk4ck+ek7K8gMxlD1WDBAUU3EGeIUoYVJx4FWde3aFRVTPQIShasRMnS4Bbj13333nU1a9yUW77zzjttX6C8U7vqatJlKYvsz5+KZIGnGzIoyPiZOGT6XPYWjRz4iRYimTMBIk4lRNuk4wFtw2FtvvWXSdwPCC274nEQQeydheu211+A5rBJuJqKsGT9O0Yx0lApXY/PmzSYRQc+ePamtffv2Jh04yMQZZBKrEVAuXLgQW0yzQ8XA2bNnX375ZfJjQZspgxXjGOOlSwQ4SWUgSJr37bff4uLwdERU0LNOQU7JIbIgccSbMeks4BYQoKsqRqpSpUrqN0IZzCgYMmRIly5daB6N0SWMLNyjS9D8UaNGYXHwFRgIYi/l00gVzhbURujJJVgBWJZBVA3UHIoqdFNkzKQd0EJOdejQQcnatWuTRNIOHz6MkBB09uvXz1IggmoD2fTBJZCuagDQgBV1FxTjvjQy1k3ZuXOnLOzatWsJU3A0OYZrGVz6AYkihpYnB6WZawLwFAw0+RodHpDu4gB8+OGHKnP58mUNJSqgHEEaB/mZdCJgXAojBrgjOIhwxvLly4n1GSO1HIWaM2eOCuN/kMNNjxw5opwQUPxQZI8Aky91CPmyu3fvRpXIj+WwbIH4cS3N27Fjx8WLF9VRPII5nQVuKseI//RM5cqVOQZ0r6sdonn8lREjRljXmcdUtXv37lVOtpBsYxbGjBnDKKNWkkNCalMiCxKGCxcumHQccBRUG72KsvTp0weZlPXjP7QqQ8d/9STyrwvF0JRButq0acPAETv17dsXbobLOQWQSRUGWBhyGHGMsMZdQDBOnTplCuV8PBMkjbcrY4FKR4mQHGmjqyqS/pkzZ5p0HObPn08ZZM6kI9BNMYWojWQI1g81AH+Z6IFToFevXiY3BbCeFKMqDkzW3ZCfi6Ypyb1at25NDtLvThZZS2HVA+Mr4sGvX7Jkyffff4+ZoN+IoqBkwjLNB0iZ3W7h6cgBnTp1il2k3L9/P8Ya45tt2IoDrqrs3IMFDwL5oavQAE0lRyF1dLpV4F6E3RSgr4hKoxUy1mXKlEkzvgc8HbW53YiBlk2h39yoV90YO4dJkMopLKCS8qjwmZQUeLpp06aJ6rBxUXFNhm6B1UaAZRbvlezxsTT3gCtDN8o41q1b1+Uq8jXVBOyz08kVK1Ykp1WrVnioiA3PgouAjVZJhV9wJ8cE67rKQho3cOBAk06ESLpz584m7eDHH3/UYGHoldO2bVuSoF69elFPkXYq9ASEeoUKFeJApkCZdgaVscAFlCLTLa5PnyboIpEfw6Qczc0gq0paSNHwceVj8VB4ohItwnfJLQ1joOFC/Ibgon+CB6Hk5MmTTToRixcvpjDS4qoDY7d9+/aQ4ijwwANI0OUDBw5QBoRWlDA11mmWx8ajKakCAGuDWkXNCD2PByZ5xrlR5rJly0gyHPhnJPcEQNk1mgQM9zrhn7F42kj6zJkzCG5U6KWosaQLTcrx3LVrl3KQCfFraHIpBOLgVHUKmDYKYIWpmZiDYzTNnLsb2GWJ4KRJk0xWHNAiygAMkLgqBMU3NtJFS0kWLFgwFO2hYyo5bNgw5RBTkiTaSF5ChiYphmuvJIwlOqEr7pVOooAeqAorZtKJEJGkGqBPPvmEs5iz+4h1ooBdqA1rGOocfC9Nuk6cONFk/fabAtlY+mf0OQX1Kvn555+TtIG1C+yjyCBqfxPAKOsq3EeStEGjA2mpQDIgMB5EYS7iASvL4CKZ0QVFvCVOAWvHx48fTxLXJ2RkETYpAuRNUvPhIX+UShSiRWPKWKxevZrCuKQmfTcItjgL3SqpiXTBdYmQ2Pfff1/52EH5VZIrTVbplGw9HqTcCIBzEGKvNCEHhR4mhlbOmjVryEG03JV7KQKiFfIDKCMvvHjx4nK8+B+7PCw9tbNKyZBr1a9fP5NODXiXkskaqs4HmGKT5UAyj0Rx9tKlSyppzqUAPW/DmI4dOyoTWVVkxQgqx4IO0SASn5isHI6njaSxbrQTl9Oks6B5WteYClCdlojKly9vae/ChQvkgNBMVwg45pSJzs1ayE3Gf+QY55HjVCQNBgwYQAF6OGFLlyJpwTKlC3mR2u929uxZGVx5miGMHj2aU2+88YaS2B2SBD1KpgKaTDGrGIpWq1Spcn82KwS5xjVr1jTpRMiyxNp063WlaaSyRaVKlaht1KhRJu1gxIgRnMJsWeFRuBNL0kQDnIIzlNR8Bu6jkiFoG4H1otKBTHPlypVtoKMuBdnuIqbBdp68du3axExkbt26lSRCFfIICex69OjBKQRM96KA3NClS5eqjIstW7ZwikG5fPmy5p+KFCliiQpIGuGqZI2zwDmjfNmyZU3aAaKoXVR2eVurGxUqVOA/9KAWYuXlZAOeReEy1ypH3pikCKO/f/9+TT7j9uGU37c/KtmwYTRA2V2dFaSMsfNqdoZ87ty5JisOqCRlYsciBPUkvp07HKkgb5XKTToOtg9jhxJp0ehgvuBpDnDOzLk4rF+/npiYYgwcJtQK9pIlS8jMnz8/FK4cFytWrOAseFh7fZ4snjaSlhMabadsSogjcQy1fILuuRPIsilIgEmngHz/hNBz5MiRFGjcuDHHWj6J+n0W+JUKg3gEkxXBiRMnKCBgH0maE1nQKT2L9iXhScTaFKSfs9xR5klr9lOnTtXZVCAQoZh4BePFMUjYnnpPmD17NrVZDkuGFtpDq+PCmDFjOEUsaFX6QSDHqECBArGTxtCVjKbthFKlSpGMXQ5UGGEfUEkbWIegWRDGxaSzw+nTpyU/IcdFc0ipdicB8vG9NJFDDVhPOyfMI2uqAEdT1vDatWs4K+gLmcB6igptQzsWLcjU6uPXwZ5hmV1MD6YWh1icBHBizAXZQbKHCoQeCv9MglGwYEGcVGXWqVOHHFitW7dud24ThML4ghzw1NOmTVMxcOzYMRXQZIACMrhBExIlS5ZMnlpLBoYiqPsO65usAJrZtqu/9JXuG+vnAbn+devWNekIkEmNZjoT8tpQEl19iIXIL1sNpQyI3QwBPvjgA84SE2syxrXV/6nQ/2frNmOH8eesF4VchbaqaVYDF9mk7wYWT4a9S5cuJisAARUWDGFGEjDI0AFhG2YHM5LtvsIniKeEpK1psGqmJMqmNTNtHkE+OB44cCCP7W6SIqYJihtMnz6dTBxwk46DXVBJJYtAVljRqqY6aYZORYEHKiNrZ92jQP3u3DLYGcF/WhgiYJ1F+jGvsiypVN1WRWGSb731FscIrs6mAixOMYifYz0Rcdt9BxYhfPHFF1QYO/0bheYwY2NlLaM+LK2Te5cwGaiNvrhESsrCqldDCJE0MZmbDAHDwVk71ZEtNBwVK1YMDQdcJblKFVfpRgKh3sKFC92FW3lOAJ+1U6dOCpcBoTAxsdU77YlLWFFWOCtSP378eHSLIuF7+vMxdlcmYqwcOhyek/fAELjLBHJAeUxaq9EU4PjQ/j5tsOAZlZQzIfzrv/6rZhfuG1oOII406SyIJvEAlBSX07ZUbxNpegMajt0CAqSk5cuXN+lEjBs3jsJ2vx5Oz+HDhxcsWICpxFiNHTvW9jCQqGS7A58yIJVh7NWrF2cZiFiS/m//rR48zbXy6gCjEIrykRP5jgmmUgvtFLNu3MGDB4P64oGOZOwa9lNC0q1btyauRbusXnGsEEeBrOZpMSIoqo0DLBjLVatWqSqgqenkrd2MqK416TjIbrqUljCfLAVAORNY304lEbfJ8ob2J+vsjh078Bk5YHTNiQjoB9VASE1ScVvx4sWxEYDw4p133ilbtiwjXqhQoWrVqsmcyZUmSOVYsciECRPuVHc3sPI4wunbXEH2AvfZpBOhmfbonD+mTc/FU5isICKcNGmSXrvEOmCA7PaTZNBLxGTUljBbQA9QoEaNGkqKpDdv3rxv3z4iRVrIHZEBJFOCZ2cLQ5wdguQhzcl/iBkrT/nYuZA2bdpwKlXITkeFXmyjte5c5bJly0KfFojuadfdXSUKoX379hSwrgymX06ki2LFiqW5h4Bx0SUERnCwdpAI+K+hGSb5c/SnkmvWrKExOByhnU1AE0WWsRSUA/L/9re/KfO+oWne6GYu+l93UeCLk8QxgaDORgE3q3zs7lFUT3M5SJfJSoT8ElSGp8bDk+64wCbYKWUt0Lz77rtKpoIujLVjuIwStrlz58aSNP/h6VWr19ndfIBLRo8ebelWU/RoU2gexYVd8D5w4IByiNYYdywA3hLWmDHlmJAa8ahbty7HCbU9WTwNJE3nyrGKhcRda9LaiY0B/fd//3cE7quvvnr//fcVHMDof/rTn4L6TOHYNUgLLagAk46DiFlWWMeptvBcuHBBzQjNz0Rx55aBPiNVHKBCv/zyizmXtZ8cW6m10p49e5oTcZCvignmGE79/e9/TzIV0F6USvtcuCmXiL2iq8L/83/+T6tgeE7/43/8D9cZTwB8xiXRtz5ioTFC30w6C3ZcXJWju5TpIjR9Eos///nPlMRzSnA4tHCAyVBSJJ0Aq0TJJI1XwVlLGMnQjh7GiAYvWrQId+Tf/u3f/n8BWrRooVdgIUVG2VxwN+grvTX33//7f6ck0CYvCy3WADm+gCHGY9NZOyuT8GaO4qf/9b/+F8e4FNoKRIOHDBnCKQiMTiYHgUkVIIagxSYXkNPSpUvdaQAhRNIJ0KI+TVISZ4Vkml5jMogF7zQxeN2I7sJHnD9/PjYBB46R0im9TS5DQb4ujIXmIUJvnwvieIYpnTVmAHVppdwFDiVOMLZIbqWdlNJkQHLbQFDHc3/5y19MOgsYEHl7GBAUKhVJA3h68ZI/YKUZOwkGQDg1uPIVkpfGgSzqypUrTTrH4imJpPGdUULccPuVBjw1NOHIkSNyA2XTUQCVd0HQICv26quv4qGToxhx9uzZKhAL+b9YGZOOA4E7ZfQ6shZK0YfVq1cThWiBE+O4f/9+fDq9+EH32oW0VFD8gXxjcEWT7mdYxBDIpXbDJU/56qY2Fl+3bp3EGhAY4WPSA3AwtUm1aKcWaHlqtCUo+E9H1cK+0WhRoUKF5BcrBZkn+62PZGhA8a9NOgt2vcM11vQzHgD1w3z8l9XG0pnTqcHjU5JRM+k4WA9A0aeGANBLZcuWrV+/PiTE6BOydOzYkXz76kEyScsJy3YrnyDpwjRHw1MXffv2NRekhqw8QMaUo2l58Nlnn8GgFNBqCw+o+UZJBT6fyseiQ4cOlNF6iirkcne3FJKvrovOjsRChevUqaP1VwFzRq+6/hnQFrx0SFrzcPZ9Da0Wg7Zt2ybMrKYD/GZVFZq0cKFpBiiQY72klAqQHGWimwGRQKkwwmOy0gB8iRGg2zEXBDCuS43AUJvdGKFtLtaJSQV5cjwphvS9997r3bs32opZsPsetAYnksbZ0lXAkjTQvDcHGDpsAiWBZEMTHtqQm4AGDRpQzI47UhG7yyzz8ZSQtMW1rKXiUNCgNdexY8ea9N2ANREdCshqaO7OfWs+CmzKnds895x4PRZSci3UySK7QGR1UwHtcmdoU0G26eDBgxyjVBxTiX1dWC1HLrX52TWCISCyFADu5y1xq0+dOhVdm1EgRUihiA1gDtR4nAxTKAtoINx2+vRpehVXSa5AOi94iKRjHako9P53dEDtMkTC1wxoGAUwJSadGvQkJVNtwBasJGh+TwNED9gXiC1kazBYSiaTtBzHNF91tR+7ADQAb2DEiBGIx7Rp0z744AP8LYUj6ewVJ8zVNm9MIUlkUvMiLm0gPLKA2kCgKVM74R8LvfL35ZdfYig13xOdqdLud3erfAIoRmGEjdGkKgm88MYbb7jT9VoOt9SbCnYaWV8yAXIELXAIQtuX0oe8KIvcuXNDWsgwbErjW7VqRaZ2b2mjX/KLCRoRLVS50BY8BCDVlMm9Qr5F3rx5ZeW0aBj1jEPg6SgWC0TLrjSJpIGSwCVpYHka6M09fFBcCulRto6IPhZkJ8xQN1S+bt26aFyLFi34jwyXKlVKnZmma/hE8NSSdGhFRJtHGCeTjkBrnNp9LfqJxogu7JpHgj7oYxcYSo5lkYl9lemiatWqEyZMSNPLs7aJY4JFWWc7i67hhFrkUKfaNQZEVCD2dcYQZGJatmzpElLCnJsL7TyinSadGvdE0oqGYwdUnZDwjsrGjRspQNhk0qmRziKcVsiADJlIOrbnFRzb2cIEkr5+/bpoNeHrchbWL+nSpQtWNdZrFIfZj3AlA4NFYewpxww6x4hoiDj1yi8hNcdyZaKfCLU4cuQIBQBShzpwgOsWXUG4cuWKVC+dHQMaZXcVHLeMUE81EMPZftBO4NjNEy7sONqGaTc4PaB5b4Hxug8KlHmhJRs2bCBUDW3u014wWo6jIMKW0YiF7czQ5u1NmzYpXwtYDwXWyjFwJOUEJFhRQZcsWbJk+vTp2oA2cuRInKRQEJItSQPL05hHaQSxkwxF8jIEPaz5BrtfUu/apEKqjeKZgGeFpLUHJGH6F3qmAObYOtTJM8+YABWLvgclWPlW1OtaZNx8hB4ZJTC91xkYDZjlAM3HEpTLpdBUM264XusMfXnRhbY7FS5cONamh2Abb0n63LlzmrzN1p/Vnu3kMEvQm+IJX3BzoUguNjzSl0wI3aKxrCASynaTKlDjkyNpsQ49r6RIOvZdHZG07bEEktaw5sqVK9UWXxfayFqkSJGQ6XcR+hQdEeHp06d1HIW+R4FDCZ2I86L7udRCOTp69TnVHjdaJZrU7hCRkN1BFoLmD+h2k06N8uXLU5JmmHQW7KvhNupVQJyt86enwIc26azx0kwYGqclJIB7mv4XNwVNJGj3ZRTYHPXz9u3b9d5RQmCnmLJChQqu5mLuNIuW5ssR6UNhsQRAY5cc5QM9i3g9AThVFAP2yxBRkgaWp+UqjR8/XvqLUKlALPQuLnBn1Pbv34/bjeuA6n355ZcLFy5ESFBV3J1UtiIT8LSRNPwXDE08Sdv1iSiGDBlCAWKR8+fPBxU8ly19SitShZJEcpzNmzevhj/BIt8TQiQN9Bqo1o30mJ999pkCIGuUQ+DRFNBrShMkU7Wmu9955x0u5AAQfyvK1B4QUy4OYtNs17GANtWnMzEOEgYUatEUVuwbZbRW0wzZzn+C5cuXU1LxYizoNzlGdmeASDo2FtQ3O20EkCASmvgJ7d5KBU1CJi/RaUlYoyAas0MfBZaLAojuypUrOShQoEBUPOS+6IUifUGIB49u2iL+1pYxDLeITeSa6uMqkpZx48aZdGpIAGJpT9ac+yqphdVs5Uq+nbtTL+RUAdwXTWXly5fPrtlnCzpBvCV/PRba+w3/EXpykGrLJ8ynFV/Xj6Hbte6Oz32vUT7KEt3lbrF582aqBVpQk1XJdj5GKpBt/7jTcnTR6NGj8/+/7/oUvHDz1m3xtJwtQl5NwhcqVCjBK1VTkQSTzsl42kiaYVuwYMGkSZNC9kIqncouc5XmjfHR7OfGshV3bfGAukzaAUZNvy1hJ6IfHUnv2rVLOzLsfjGCBjmbPFTUvMJSKkaopGfENcHhSBW0Xb9+Xaw2ceJEjjkAaCDqrc2fCZ8y1WdhQDqRh17Biu1P8Msvv7jegPYupZrZw00ObnvHTQlpsnoG4iF8MVmpgU2kMBY25PNZIGwUoB/sryHJQrkr/RaaKrC/ayKRsLtyLBhQ8kHClgIX1r6bdBxEVJJGvUdLKBblVEFd9Nprr6kbNe/tAqFSyCvmww3V6xV2E6Kwc+dOffoK+bTzt/JpYl1bLLWWq1NFnC6k0dFIGmivhp0l0uMkT4cATYe6SxvyGkObmS9evChbQTyNCpjcRFgp0nbRWMiYoImSKHk/IdDPeuqKFSu62jpq1Cgy6eT7+KyQJjliJzYIeDQhZ62W9uQn6Lug10buiaQV+P6HF/5f5tzd+Omnn+Hp//r6nWeHy+lGeSrRVXkhOpuSo/G0kXQqaA9Xqm041mFEsGwsnrDzSND7SOie+9sVgrbAcMpOe8oiP7hnp5Xg0F5TdJtMNKp69eocQNInTpwQc9t9EwCbRZv1fUR4xX7QlOiBnNjd7OiDHNjcuXPrpQ7FBHouwkeOCVtjp7boFi0LuYYvAdqZb+eNwY0bN7DXmFcxH7e2O8U0E5CghOpwULdu3Y0bN2JPMQrEH2p/OmE0gOBlpxhQk+WAauWmuAtaRYoUISf2Y7EyppaVtZSL2VVSoJHaS09+1MGKwi5IJ2+hEANphh/ZULOJHXXWBe6UtogjRdoRFloTQUEge/LpSfsDLaofSSBYnzt3LmG6tu0A+NulUsX0uLAhhuMW8iSIkFK5RC5EVyG3QLDWX580kauR6kPfFlrpdGVVOdEpinPnzunFCsI1k5UIRX4Mq0nHQY1E+NEaDujb0AsRsLIWtrm1y38QkjQdgTdZ94KlS5dKIxYuXGiyAuAwyWaievSnMuVJhBakvv/+e7SyTZs2GBZ0jfhBkw3ZbixwSRqhujOv/vx/NOciuHDhh1y5fv/c8y+qnQwKFyJjtFMFLBA2CXCaZifz8ayQtL7ngJBFDR/+qbitTp06yhElhJx0bArMhAhCDJzCPBGIEGRQkkCTOAZnEMyfP1+cB9y3ibR/KmSR7wNyIUNuAVIuOhT0iXJN4KOBrVu3Jibo2bOn/SQFxtRdZRSfoVpucMnTYQH1UgqwZK/d2vJhKa+IlruHtjjRV2oSN0UDTW4iFHAAwt85c+bAzdFtopYONUbWB4oF7RcbhdCxY8eEibIQtEMKtXcdI2L6CRMmaCwQG9dSSKNWxr2dqQUCfQoGIEskiYqUpBKER91LQJlqr0MI4lHGLpnREQmKWaLSSyygc+fO9sczGCa6Vw/FU+CfYUZlwfEnrl69Cn9joO1LRG7sTodogtEFVUHnof1NKI52AEE2NENL4zjEdsU3nTAaiKRTFVawqzUIdVHCmoWgl4DdiRxNgMfaei1mAbsVPAF0FCUxQSYdBwkDPYYYaLLBfV8OOdfWP+R5y5YtJve33yBCSXjJkiVxKSz69++PM1SrVi0EA9G1QxwLNY9BsdMb2DoNB+1xuVYdQrUUQB0YPmsfLIiztQCfbRRr5yz1OsmdBZTUJA1Onjz9H/5DPhkThEpM3KBBA6wuwo8Z50ArSsqP8ncOxbNC0pq5AkgVNhr6HDBgwMCBA9FJLS0DO4csjxUx3b9/P4a+e/fuUVkkYKIkVsxeHkLXrl1dKYkNm+4VeNOqPDpViy7JngKt1CK4+jFEF6h0+/btQ3bTcjx2Fh1A3HFXJRkAZYA8TNGsFxusB2Nn/3Dnu3XrtmLFCmwipl/ePQydbCBCUJjlArrCWnE7VNoNsETS0Q1NIeDN9OnTR9MPAPNBTHxP2ks3ymDRva1atcICYrUtUSFLodq0IBo7LcEYcUqGmKTmIUhS4ZtvvqngDJQoUSId0y8oqNXmpgRI/OgHJRlifQIa0IAaNWrAAVZ+CHMvXbqkklrwDoHYOhrC0lHIiZ6FbsHzS/U9ja1bt5YKvoolaCiFD4IP96YDNJfyIU/aQoyrfW34ATxjtp+F0df0qNaks6Lb2CUqHlarDMnfCxK0KTX6ypkLy1joi7YCgHbt2nEVWqmhQUKsjQK0QTFrtoC9zDVxwGHVPnYAAXM7benAVoR+m+dA1s9QukDTMWsQNiIBbty4QSXkZ+tsUVI1aD6GZuR76Z+v2l+/bta2IObnn8/LHwf/5b/884sFOAHWibeiKyDb6ey4zCl4Vkgas4hNRFeDQQyDMXY3YmzatEkcEwLF0Aq6DNhdlJcvX8Zwly1bFlcUsa5SpUqvXr1cXRK0Bcmdy70PKNZMNQpoBVKbN29ea2EBeoWe06TBgwcvXbo01UTi7t275ZJDyXJRATnY6NC0JBHemjVr3OVheF2voYcgyjeF0gPDhCf++uuv0404xWvXroVOzLm7ocXONFdtAQ1OtQSbLeg0bcxxAd/HLqxq6SGWNQlGZU20gK0pOxecxX1MNUaxYEwRqiNHjph0CmAHqd/6BwICY90XAV8NenMHl3ga3pI6cHmdOnWmTp2aznJ+MqiBAM791hWRbuwaQSoQ1qPRdiY2BNxQVasoDT5TfgIoc+jQIffR6DRoPnZRACiYRlkSVpoFrAH9lrA/SyhatCi16ZXITz/9NGSCWrduHXV6sEKoPByJAuIe4Y/i0epgxIgROBkwmd0tkQBUA4l1zWOFChViPcVx48aJGjF3jRs35hbqYReMC5JsP0iXAEU4dm7A7u6GoZ977j8uWXrn/TroOXfu/4jbF11VJAfhtM2mx9DTe5KiHIFnhaSFK1euYJjw1iGA/v37I5fwKyIlV84FlggpRNQIE5F4AhHsYChmuifgzhMhJX8PPFvgEdMq19kPAVK8bwO6c+dOOyuAvRg6dGhU/RKA+0/MQQ3EZEQAEHn6U8r3AdqGij7SW4SwZ88e3B3EZuTIkdi+VJRPuFy+fPlUL78tXLhw2bJlajasQGEkDSGkZozavfo09wSMV3QvD23YvHkzfAOQrlQSjidKhPcoohNYduPGjShXOjx6T/jwww/R9FRO3oODmtu0acMtHlbLqcdVXgZryJAhnTt3hrATNhzct+sZBTpFLDF//nzoOaFaHpwwIMEYcm0q5ykEZHLmzJm2A0XSMHTu3AXefe9/FCp053W4kydP/9//t1kSigVOLaaAAObBfcfMxLNF0jkC6ECC2qMbCerxgKDm/fv3E6M8ult4eHh4xAKShqH/r//rP+nF6Dp1mq5ff2dKkoMlS2J+FP8ZQc4mabiEIPhxhlOPGtevX8eTzXb28ukDQ3n+/PmnaSgfHPhqu3fvdhcvnhEkh0SICpHlowuR7xW0J8PlFiMZnSumze66Ribgv/23epahAQel/r8VODh48FC5ctl/svABgdQ9+G+dPQrkbJL+/vvvZ8+eHXpXIUfj4sWLPFHsMtK2bduyfSssY7Fv375kz+PEiRM8+NM6YXV/+Omnn+iTVF90P3PmzB/+8AeTeIrAc/HUqTadgb/85S8USPhi2uMEEktjYmX79u3bCxcuTHiQx4avv/46+krx0aNH582bl+HuBTE0DM3B//P/VFPOIwL9MGfOnNCrrRmCnE3SKCoacq8f2clkpCJpvHXys/0+QGaCiBBzkPwZajwtHjD683bPMjToqXZ6Ex5x1iSeIuzZs4fnSgjyfvnlFwrEvpr/+IHxoTGh1yUEDd8TdyagH5oR/fHp/fv36zWQTMbZc+cJptu0eW/X7nv7Duu9QkKVzjeXHj9yNkkfP36cnn2awi8FT/ZXrVwsWbIkumk8RyCZbIQff/yRMleuXDFpj+CNO/ok1bck6c/oe1BPAbZs2RL6sEYICl4zhKTlVcf+Ss21a9c4lc7sFwoShTmXBZObhfQnZq9fvx4rRU+r/NwfJFSpZq2eLHI2SUNm9GzsKxAI8a1btzhFcIYiXbp06erVqyQBTrqR9AAq4wKmxD6G1IBwUOU5pXoEajNHWeByW4/JCjLhIVryww8/8P/s2bMoNgcEzRwI+ONHjhzhiWJnz3B7IWk8d66ygNWoULVxOZYLbcRrxtIRua67Gxs3biSfs7t37z5w4AASSQdaYE3UDGqjTj0CsqvuMo0IgG9Ojn1wjJEKA5L4pKHydB0PlfyyJnenDL1k0umBMbozJAEYbrcl9LbbtxaE7KbvApBDrGO64NgxOpBuAXQjVsyCHqPfwI4dO+jDDRs20J/fOPjDH/7wdRaWL19Oztq1aynzxz/+UQWAW2bZsmWrVq2iwPr166lw06ZNtsI1a9boANAnf/7zn83T3g1alaaRvX37tukjR9oZWfUSnaDhlrhSxlz2hIDcJpM0Mk+3MBAaKQaFrmAQGUqeJXi4O9Cz3LhxgwMB3ZGmgBMnTuhyQEypkeXAZN0N9FHiwVW6HKgqLqQxdKBpnAMKcIrxBWguYKC5C2O9evVqBhcxYAQp84D46quvqEoCg9TpQOCOyBVlaIxpVhb27NkzZ84cukXdxSNYG4WOuP0DeHZq4KzKqxiwhgIok4Ogs+8AUxkI3V+1V9yaUEHNuG9YC09VHGB2VD8HWHtacu7cOXSHxh86dIiHxf5oHLGTgAONI5aHYsTQ9FLCLvoniKeBpA8fPoxIiZ+2b9+OaD4U0beAHVEDk3gsQHTMEzqYO3euOZ0deHzxBLaAqwjBUVRxANyAPvM46Kcp/SjB3W3XoSfmSeIg70SMhTNBazHW9hhSBPpSCli8eDHVMi6q+RFh/vz53MVCtwbq26BH19FCiz/96U8hFhf0IAIFBEy2Ho2qBOicJGX4L4KHxclP5bjs2rWLHqA89926dWtQvekugWvpsUWLFpnnSRtUC00iNjw1Xc0jBw38hgdhEAOnZd93330n860kFpCHohm2Aa6roX4TaJIy9YwWyOrKlSspQLcnr7UrQrVA2h9cmPWkJnGPoMGxLyzBBMg/zYv2AM8rqbDuMuYLayZwTPeiqlTu+g1uGZOV5WFQFRWq86VEAImikkB4v4LMTLOyoGWFxwZ6yRwlgqGktcie6ay7oWcBpnTaQKSBSaQAt4baTe9kEnI2SeMrmQ7OAsYFGcV+IeXINHqCA0jXE1RxCgmWDxWCyliQhDOkA9SDAcLPQpeskliH2tampAWuKDCJALqFXDyAv4nxDRzQOzFN4HdexxUFqYwy9zp+/Dj1EBDoQrc2KsGFxKPEnTQXBECgoQ2TcEA0TOHAo70DN+CgNhpPtdyLm9qucGF9Uj0d3avyHNNLuK6UoeswBNasx0YbFsTlmHXFndhrRiqw5N8o3FQmdicguDugWlk3tUTg7kF/3IEiAz0RPaMDG2rTYLpax+TbyRV8f6xqZu4fCYH20zMiNqDuAupG+g1HgR6DwhkOV3QZJjvHQEdRj3qMJANKVCHGBfQD/wODvwW14i5yf0OkKLspOqc9tEqAM3QtHokqxIcWOblOjIVO8T/b734g+ZrjASQZOJIMLoNuRZeHxX3nwRVkS1bRHUpir+kW5J9r0RerMgRnOpYwaFOVjgH3khSBq1evak6LY04FV8fA1nwfYKToWx7KpB8AsT4EbaOXJA/qNPoHiyqloJfsc1GSxyQTsdF8G4V5/CtXrtwxc87UFONCAXqe3qbmQOLM7BQmFH/CaitDbP08FxgKVFvSEgUCKWOCpC1dupRKAHUitNyRyznASNIkWkvzGDIG0cbxgbz8SpfydDyR7ANDSSZnE8bxySJnkzRA0+h0+jrKTyEwrrG/TfR0g6e+j9/GeZbxbMpJmsCcwRyYXRm1WOuf+cgRQwwX0tWpXPZnHPhYyWsiTxNyPEmnDzSToTWJZwaEVsRVJuGRBggW8dlNwuNuwM0wByGRSedMYN8J2U0iUyGSJiI0aQ8HBNNz5841iacdzxZJb3jqPuuaLbSu+f9v785j7SiudYHfRIAQQqAnBBJCSEYgQJbAki0EAlsgC2IjmUE2wgQ5YkZmEBZmFBCb2XnMYjIvEBA4wAtjDMYBggMhzMRmJuYCN0whGEISbsh0c3Pzft5fn3pN73MOx8Mx55j+/tiqrl3dXV211vrWqqqurg5aDAAsY68TBC0gJM1EVsfDE/ywod/FLUn3AxKocfofOl1r8DUi6QULFjzV76u6ayX4JQsXLqwOWgwAPPQ2ku4L/zWc39cvuPfee4d+F7ck3Q/e6GxjNWRnkVcvvi4k/dvf/pbxfeyxx6rjrwcIsTD67tqHJlt8KYRZX0NnboD4vPPS7b/38VbYcMFdd9019En67bff1tRf+V4oQxOvvvpqS9KwlpD0X//61+eff16PPvLII1+rVRh/+tOffvKTn9xxxx3DPe5Zk6D2LPjjXXsotghC0v/R22Y7wwgeof+39ocCxNBZS898/W0t+jryasFzzz1HT7M+f63H2kzS//znP7n8edtV4msygQFUmg0ixJT8NwP7ZlyL//mf/3nnnXfuu+++O++8c7gvjBo8rAUknRH7YdHFqpoAY/78+d1fyPg6g33TLFT1qaee+t0XP3i/9mGtJemPPvpo4cKF4khS/jUZFQneeOONOODPPPPMX4fYV26GLOh59o74+c9/3r700g/WGpKmJtXxkMeyZct+8pOfRKMb2yB+bSHi4rVg6Ni6X/ziF2ux2q6FJJ1NHvTcI4888ula9O2NLwXr8/TTT3vwxx9/vGWaAUKjZdThgQce6H+7lRaQ96T72k58WADPeYThtUD973//e2zaWh81rijo78svv3xvZw+yJ554Yq20e2sVSZPgxx57TG/99Kc//boN83722WcPP/ywZ3/11VezU1KLLwVWXrBgwR2dT9R9Tea3Vh1kbOhP6PaDkPSL/W5SOwSRpVLt5HSvQNW8LlE1XX722WfXsiXxaw9JY2U9hKiWDcn9VwcV2R6VO/lub5/Ma9Er/vSnP915550C6DY6GTj+8Y9/xBGsjocnWPNh95Ydr0LLt8Pd/YAH88ILL9zV2aP70UcfxQhrR7iyVpG0vvnkk0+q468T8rZG+0rlCuGzzz7TaMN9ofIaBpJ+7rnnftv1vfPhheFL0tVBi77x17/+9fXXX8/nUrjgb7755nD3bNYekmY49MrXahK6ANN49v/6Oq2PW3WIpFuS/npiOJL0888/r9rVQYsvwz//+c933nknM4Dz58//93//9+FrHtcekg5RrZaPxgw7JJJu13KvEP7whz9otHaC4OsG5lu/D/29uxvgVdx7773VQYsB46OPPlq0aJEe5+K8+uqrw5Gq1x6SzkZxwqPq+OuEX/3qV569jaRXCCHpD3r7dHeLtRhI+u677x52kXRL0quC3/3ud0888QR914aYYnjtmbH2kPRbb731tSXprPxsSXqF0JJ0r/jss8+eeuqpFVpxw+RdeeWVEydO7PXl47/+9a9LliyZP3/+vHnzvnTzuzUwEvb3v//9jjvuGHaru1W7fa9yFUHl8ybbAw88MIwmqtceks430r+eK3UZVvaxXfm5QlhrSHrGjBmzZ8+uDjqYNWvWrbfemjTa48MtXLjwBz/4wamnnjp16tTRo0efddZZP/3pT//yl7+kTB1nn302Te91qn7atGnf+973qoMaZs6c6RRYd911x44de//991d/dCahxowZk3+Dgw8+OJ40ha0v8/zNb35z2GGHbbnlloP9Ltyzzz6r39u1CF9b/PKXvyQALUl/BVi2bNnDDz/czsu2GCBQ1COPPMK/qY6HLQ455JCRI0dWBx2MGDFCpsTNN9+8zjrrdMhxObbffvsDDjgAVV9//fUO0XbKFyxatOgb3/jG0UcfXR1/ERtttNGll15aHfRgwYIFLrX33nvvs88++++/fyg5PK1tOQTbbbedmyLgN9980+n+zfUnTZo0ffr0zjWWf0Z244033mSTTQZ7bZSYnoF+5plnquMuMCMqc/nll3/3u98955xzhkjA/V//9V99vbciLNFrt912G+tX97r++c9/ihrnzZu36mtpOVVr01qfxYsX33XXXdXBcMDaQ9ItWnw9IW7GxNVBB/gPa0qce+65mPUXv/jFW2+91fBfjzvuuPXWW++1116rjjux7KabborIex1WdQUWAIFVxx0gD/7B+PHjUQIW+eijj9xlp5124iX467zzzlOxN954A3mU3dzOOOMM1xFGb7HFFhdeeCEi5zTIQfCD/WZXlm48+eSTvU5Jvvzyy3vttRcfRWW++c1vei7m7qSTTvLX3XffveeeeyLClCz4/PPPq1QHJ3Yggdqvu+46T/qd73znW9/61oEHHti9wdnf//73Sy65ZMKECfWBh16hJXfffXe1Ovnkk+s119QasO6EadKMEDhl6tSpydxxxx0b9SzQ0brGNVWvnwGMcePG1f22999//6GHHrrxxhu5XDDsPhn39NNP33fffdXBcMAwIGmyuHDhwq/bLlr05+2336Zs1XEP5IsD7rjjDupx++23J/O9995jPW+55RZ2hK3p1QYFPOsf//jHSXOQX3rpJZHQTTfdROX43Wlk973oootOOeWU2bNnKz/sNsvUaF8raSEJdLMuKsJWii3hr750FqduvfXW22yzTTb/ITPoBG33tZsYHXQX0XB13AGZkfnTn/60Ou7g1ltvlfn4449vuOGGZ511VpXbg9dff92/V111ld8TTjhBBTDi3Llz+xHaVQd5yCcZBJ193ej444/n0PzgBz/gVcSh+cc//qHwhx9+iAjXX399/F1/UpXni9QDXH7GbrvtRq08kafbcsstNemRRx55wAEH0Fl69Oijj6akK8t0QQyqZP/jBxRWGZ6Q3yuuuCKZnJtvf/vbbiQHMbvp888/r55z5szx78yZM13cs3AXZHIyBNznn39+3f2SzulOdGW/uvjYY4+t/u6BB1SMv3XBBRdwp+qTF25Bui677LKq6DABL63haw5xDBWS7majAp6mWzMHFIarTtkeeeQR2gKcuEZ8ECgZD7E6/upAE/jLAhrcWbb0UzfGi39Nh0U8RP+5554rvEIr+K3x6DU4yyKTjn33u98Vo8gMaI4y4hsWOTnFp95jjz3cV/zEl881A6GSMoIDBpR3nMJ1fPDBB+rJUrsvIxLhWHfddZnUwWtMz6sfb7755osvvrj/b0TSrq222urwww/nRlRZHXtXpXrAeo4dO1aCUIH4af78+dwO5lL4mIiBIH3/+98/9NBDJ06c6Ekvv/zyvkYF3333XY1cHawstJ74g/V3tXpLEolf//rXS5cuVZ8qa8Vxww036KYyIOmaRx11VIOkPbXebygLvtTX++23nypdeeWVLlJmsrvBmhO5xraUDDfxaGR6TJdCIX6Z/iq3B3pE/j777OMXtttuu8EeUnZH7EiPaIR0ldsFcWqv9s2DqyezI5jedNNNi5xMnz5dfl3FjjnmGI9DVeWTriq3B1dffbX8iB+3WNqv+tBfrZEyvYKq6k0lYxaycTqZadxFJ+rNc845J6RbVg+wk7peI8tsjPPrO64JjvcXV4CvINHoMoopc/HixQpLUBbBgMi7zvfDC6jkoYceqg6GA4YESfOj0U910AUeqFuTuZEjR0o0MGrUKFLLCpNR5Cci3GuvvUJX/GIG/YknnsB//poxY8YWW2yxySab7LrrrkR5DXxNnRzHUw7cncLIj2tM3HHGEUccwR93+MMf/tBfGMsprOGFF14oxuXYMsHykTolQTMUm8IwBEuWLKFOTOEGG2wgsI5Hz1zyml1Ng1A51/Hg8gNPLeedd97RkrRdW2FHJMErB2qsoRiC3XffvYx9uax42gWRXHIGAlerUl247777BE+8AY7Ld77zHdGGiweCFSajKtcFqsUG6VMlNUXonJfD9qVAwJbpYq3K9imfK4NTNu+AkfXUGo2QTJo0SRdgKc2C/pExym8wmaBk2223lWDLrrnmGv7K1KlTqQ0QJD2iI1IS0sIuWIgHMXhMt6vq8W//5ka6RjU0db2Go0eP1iP9sEhfSCRNvN1Iz8aYSuQv9dl55539yszgbR0MrnxMQx64LP2MQBBFklkd9ICjKcKrDnoQktbUfrNGrA4PLj9xIUyePLmfm646SDKfHkN/6VamnOBe7ZuO1qESXEPNePrppydfQv212wsvvJAcspQr6NYzzzwzmQW333678uJyVaLyhZj1eD+El8a89tprpWn9xhtvPG3aNOk0I4HplFoOciiHaOnHDTfcsDHEjaf9yzhUxx0wnvw5Au8vsQQ/T83rQsKoEkvyo49oQT/qOYyAEZjW6mA4gATqoOrgi1hzJB1L0Y+kMs1sEJtIsllnfhyKxS4kkp2dNWsWVSH6p5xyiuvsv//+AiMxATc/vE79pCVQHbI5+OCDGTKUcP3111c3GByw75jggQceECNSJypBybnAWbZTwsGMj8Ulxy7qxrLnrwL6j5Cqgxroj1vUeeXBBx90cTcVE0sUv5iGFxaMveh1EALrQ3XQA768dq4Ovgz6RZUa0VVBfIiMdk6YMOG0006bN28et4OBYAjqUWYd2ord2XvvvV2W2ULzDkWlDBaXoirUQQZgKaGWVEaowWtWJezLXwkFopZddtmlLm9vvvkmGRNLETCiUuV2QPDETxI/+MEPXFnvuKNmZKPdwiOUbTEYawVIl+ppAS2PG0gmIWQB9QjngI+y77776m51UJhIk2f5eoTcyvGMK8rTc+bMcSIXcLfddhPMce8Se/mLaqiw2moHQtWtYhqcCDndM/7+97+vcnuDJ1Xz6qAHgksPUh30IBKoAptttlmVVUP+5U/4PfHEE/3yJKr/VjdoVr5ASmaqrL7RK0mTHDUsXEhctSdVkmZk/OWUTMnLOfXUU/WshCb1gFqbXBHd/HvXXXcpjyyffPJJCe0g80uhc4lQma1XSbcQt4RZOdDxznmQY8aMiQ+KaAltyhdQHOWRvcqwnyrD40T5DIt/nUhyJKgAh7KMyjz33HPOEkxLY2suqdPdYiVcyaEDXTC8Np8fEiQtvnTxfka9iB2b6O5ktMqqATenYgwc9UhmQJhYKFJOaqM/wbJly7jwbloPg1YvxPfumymigCLRcFrBXrs1WZFJ6CmGQ/rw2muvSVD+lK+jL5KOyQvfc1N4LZiJsZZmofwl8k7JcEwaOfai1xWbblQnafYoA6FUusr6MsT3b0xeFiTsyxBiP25ZA8JiFj/2CDwvh+Pwww9XK91aD9yZUTmu7C+3iH1sgAF1bnXQgfgGSeMMz04wqtwO4k8wi5lq7eu5QARDDlVGowmXUZro0yluV5XoQLRNMJhLZQ466KAqtwN0onxZajBA4IYGHfIett56awl/fanO5rnuvPPO6rgP8DzKYuwCVltQWA+FNTg1lHneeefpiEb7axxc4sHRnptSgSlTpkh48KrE6gPxzhDuADeVY1vIgICBGHA+ONYyU8/oF6HKGFh0Kp4u78dvuuz888+XFsLGthRQbf8WknZlAjBA4WegsebEiRO33HJLXZmRpHRW59r/HxT/sccec33pDMs1IH/HHXfkjXWKLx+48pvYgM8arc9QuUbonLF8AN/do186TtpdFOARDur4R4s6hgRJv/feey7e17J4Js+/mV2j+VVuDbQrsU43k1FUjLX99tsLLxrPicOIaRzJwUAGqON0FzBzpDyz7NQJbWcRZsbQQt4egW+ubhSSfadvXA319IwCIxZEgF6Cnri63BTmnl8szUQWMqNLZfCK3aFmScdePPzww5x6HlJ9adhRRx0lmmTaXJPHw5oAW4/1qxJfhpgJ0WF1/EUw6x7k0UcfVWbp0qVVbr/Qhsz9//7f/7s67iBDI2E1D5JMlMCWsfvScUqS34DGrLPjSy+9xHhxBLkXHKbtttuu+qOD+fPnuw7nJo3Wl8VH8ypZJgW+973vaTeF9WA91ldVxTSCNCptjBWrP/HQv9XxwHD00Ucnbi7wgFFVicZf3chADgWpjvuAC3a7yGkT1JVDgkpU5BDacH+9i91I12gWIpfeoZ64atddd5Uppyq3OkAFMuNTdOFLwXlSJdBiPHvKKFNPaRwcRjzyL2REIVpMZhxqHA+SETLyr9PFpvPmzfv5z39OxzuXr+ahCfP+++/fz+xeHZwDpxAJtzjzzDPZwLPPPptViVKjTKIV0t1jjz2yrMHtHPbq5ynJPcLKHu39999HvUqee+65/mJzQtKod9y4cTvssANRVGCdzhKWztn/kqkdOCVOj9uxBkCtqtSggRB2r2sZCHhj+rrhhg4GhgRJ022S1xhmLGBDI3bCBXKmxkANCm1EuySYJMKaTMBAStKxhQsXZmyqMU9z8MEHjx49ujpY3eAcZCqrjrlz56pGKpNoEg455JAMH/31r3/F1hTvwAMP9FCMddZSKunRNBFvAwcrH98WfvWrX+UiSN0plKcuNKiIBZQg68qUccU77rgjZwX12J2uJpM+q8ANN9wwwECkIL1ZIvgGmADuAs5zCxS7ZMmSZ599tteB94L4Lo0Rqscff1ymv7gmJ5xwQjITB+RVmdAAItSk4iEMkTLA/8Dl+FikO3bsWMVEfhm1xrIqL8ENyii0iyvAq8jyZhZWX7iCw87FKuR2xSKLaRyy0SJ7Lalf2HSXIo0MdFw31+me5VWxDDwOHLpsr732qg46YFjzFP7qdQCmAYxSXwDVKzSRxqwOOuDb3XfffQTMQ/kr/o2nRieE0L+IjZ5SOgRG5MpKCOemudLvWsNFHGK1zoWXt97K2c2AxLrdvffeO3CGhvj6dTkB3aElRcZXXXUVyierOlEOIc/ECgXE08hMGK3+ctxdp7M81SV6kBEp19dZXPMqt1/kgo1t2piszGfHbXrnnXcmTJig2OGHH+7iod5ebakerM83K6xkbEIhaYhX6uniVZTZHI3juZIebJCfa665xgOqAIvxaW1R57Jly15++WUdwXRwYmI5C5yoO3iBWCM53BHPoiUvu+wyzSXIoXd5EFqJL9yCG8Qb6yuu+Nvf/nbAAQekHVgYksCwxzeCwjiuRjb4MYIrGrHNNtvMmDGjn+HhgYMsuVF18EWsOZIGgsv8VQdfBK/crUPV7LtW1tYc/6LGGUGVSNTCM6JOEydOlEmgM6BdPPfOGRWYbya+Oljd4FIkPq4jvjYT71ev09UMH+lRfNDrCBIh8FAEq1vtIY4z9fPL+t955531lWJpGU8dxStrO9MaBJ333bCGdFXNCdkmm2xCHOvqMXBwJrqfPRDcM+jFtwjcqPq7N4hK1adRz0wWajRxpKrGYxMWKJkJvNhEIQgaZlVLtAdMFbbo3Pnfdt55Z61RnJ5rr71WZrSiDhFwjDKTwaIhlcMOOyynBGJE2kHw3FezJ6DMwojOBZaDsHGkCg0Q44ZCse+K9d8a3eCKNZhYi7mOhN6kMsyHZ0zA7Y6gTYrxBTFZ90KnBo466ihUpFu5bloVe3Weafn7V2eddRZFI4SHHnoofq1O6BGzAm5ruWn+KkO+XCJCTmyk33zzTb0za9as/LWiIFoYmvf25z//ucoaGC6++OJGd/AzVDIzsgUZvEEP1EciDDp79myCp0OTw83q9v6LmWKaBuI5gS5rVAmyblHCX9lpjmpkpN1lKbvO5S3VAxK8BarkglVW3ySNkyiUSEB/0Y5ilBT+0uGW1QK8qwHdjtEjmYQhY0sEg1Mrvw4F4hlTYcFGLCEgS5mEk9AmRwdpMU03fvz4adOm6Sa2l83kNc6ZMyf+JfVkPxmBegSfOQ6CzZHNdTSXvnYie/vII48oQ3PVc+utt0b/LADxZgHYOpkpsCqIOaoOvog1StJ4i2/S69BB5kX8pQK92q9IvwKslXZPr5BU6lT8rBiFBkmzX4pVB6sbLLLYojroga7VbTHceVjsIiaLL9xYqBzwPAhQXySdseWHHnpITEOjpEkGC5V/E4OyjJpXy5TFXL22RsAEUFc2iFFWVcHQeeed13+k2w0E1ojtAg/rvjQhJE3KX3nlFen+r083PFR10IPE4gsWLKCHEp6UNeHrZCgSMieadOP6HnDSpEk864iKOKm8wJo1jNxqTcSnEYphODl33XVXwnS3S8k6PFd9OFTXc3QkdGiEkwD7Zfjq4wEMq7Oqgw4yuFLfYGQg0D57d7YuKRBdcSkkLrroIhcMtKEHJwl8FFamXhMt8KW0oSnIhotsu+22aEbQINb50kABk3kovqnWq/ugrJsqlYEH4A7mje3Mbmic5A8c//3f/03Uaf3PfvazFZVYwEAN+xb1IaLVcQfx1TwOpZPIGgWEx2uhL3LIs8BLE6V8AUlId7PjvMbi/mqWJ554wt3L0GABsqT41UEPpk+fnnryafRCMiHzC5zFVJsrzAVHObRMe2oWVaqvt4gyskjSdZIGBJNnKfY2jO6Q1XJNpiPoNa5YRRBad8+IvUYm3urPyUiEc9111y1dulQj6xftLEcYxi+n+846+OCDnahw/L/bbrtNAWFexq4K8EIesOia1hD+yYya13c7QROaOgZHNxXPsg5nrb/++mnMAl3slDhSq4KhQtJR2rwCCEjivffek9CaMS7SaCYzKA3EtJEYopbAlPHlF9c3MMrbfvW3UfWxHF5Pdby6oTJc0boQE26uFhahA0Sqyu2A6I8aNUrQjL/rS7ToBt+FcaerWQoUKE/sWKKQtEA5mSwIZ5OoPfnkk3LIk7SmYFgJdOfU5eiHpOvqStbzMuh+++3XbUH6wdlnn60j1EcFEFUZddQjriYnJM2CJ79/IHXWrTGuRVddQQ1VbKutttpnn31yzfLmqJivL3H1gHlGoRK743QnCgd1ViZZtWpKQi4rP4leSTor/gSjZfwti2m1fCwLYabAEU6ZOauEVoHKMMoZyVwhEIPifjXw/vvvqzlfvv/3sMlSfQBmDcDDCrvrGlogbCK0erY6Hhgi/Kjol7/8pXSVuyJABg2BwRYsb2MIR1eySLg5JqW0m0aO3WeaxWqNgRYIWUq8/PLLEhRNjuBPMOcskV/DsaA18ruXgGmfrBNEHo31j5lHe+qpp/LaZIHoxcU5Z0S9KtoBsxB5U5m6fcCCnkUldVNyCBjHYty4cQxXddEOZHrY+qjMKoJIUHbKWB33GI1LLrnEXSQ4NDJ1Mc11KJagthxu6e7x6pjH+ihagZ7lTNetCouhsP71V1lckhFc98qY5f19bw+HSuvDh2qVYCzu8qpgqJB0eqJQ5sgO9ETipLze5+4NVyUolONheEMvvPCC6FMOqtbZcXzy5k/ZlULnCU85v0UKVzvi2JYXLfRZhOCxxx7DuDvssEPyAypE8ehSJA9PM69iHY4hVcEBiEqCk8gNpyp0QzHCRC4l6hPAv//970eMGFH8A551wrh6GdZBjpZRhlCqpPuSS5aRrjbmHaL5ClTHA0CJk7JwXdiayjz88MMOSe0KkXRkoM6Orsx3mTBhQg6zm4cn9csCJlMjE6GkGygkHbCzRx99tHMJCSWUUL3qvx6S9kQslwTOq/6oIQNiDV7RR+x+hDM5IsX4/rlInaQJgGhYF3PJk/P1RKYbtFt1PGDQFwxdZiJXAnyshuusGr36TBFmAlkPZIFnnEEsPErFkllAzAqZEbOMteBC/U5+Gq4AuAtb0QgBQUxC+CVYg4ZWkiJkFoeM9fDv9773vccffzwVfvfddxsupvvmCnPmzOFYJzNgvhrc5lykTnFYabfmPcydO5eBFbIPcAXoQBBdrnvJMHbsWK1UvORf//rXDqWPPPLIuKeZPmfPd95556lTp2oERgZ9aD35aijYYB/qw/XYpMS4n3/+ufBPyQge48mDzF/K6CP1YS0VIJ94nS9O2Rtdhn3ygitOueeee3bv7OT6pbNIA8FQIWlgc0WBWlYTuBeQad4iaY6Pueuuu2LfFK4jlKMdPUxxwfAxz1G+a+Itfm4uSF7vuOMOvMVfi1M2SNCXOpul5k8tWLCAPKlAqqfjE2im5GeffZY5mIULF8qk+dIBPyNTYnlGoJ+kzRVY//PPP9+5LtWYK4qly7AEImT6+f5l2hWy6krgnh0nAvfiHGjhxpJjLSZHyUYs2w8yYXzqqae65qhRo6SRnPxDDjmE98paFZJ2cTL94osvPvTQQwxcr6GVWDnv7ShGJ5WkjZ6oDJamgAuKRIvmIOmsoaVdmG/evHlUV0PRLoamsabPFdQTmADXqQ84xxnX2h988IGEjnALF1ENrHDbbbepho7wpI32UUndWidpYA5YOpIsHZL2REzJvvvuKy3sTrGvLVh/zmI3Y30p0LPuWKHxngboVCYyC3RoXPzBgGfktMWyrRDCuGsrsnKiOugBp4eVSyzLlmZOCoRkMQLMJsWcMWOG0zF6hjT8K3KT4KwjdQTMMOaCIH+jjTZi2fBxwhjxT+SHmUL2Ei5Li8sYgzLIKAESxCErEBrR6/hegHcaBVYaQ4ikE44IMsIxSBS7SBSfdK+99nLIkvKMELBfdCX6jBOElT1MI9TWo/5imv0rwXCL6iTwUz1aGiQwvu6Yp0CuV199dYiZlypTL06ePJmUeFIFPEVRP14wthB3lkCf9GAavFuovWDx4sWN7y0S3O22264sE+NBNwYMmB4SOXHiRJEuj1j0iTjZCxc/77zzUF3DEDCdarhC/nLiWrE+kuN+UQNXlsNl8a+4Rxph59kLep3OAJ1VpB8Y00bYqn9RsiCjOv7XvzICVh+d0+a0l59EmbVPoyVROKLlgCtZH6HSdHJED3/605+crnEadR43bpx+LIs8CxgLjRCSdm6V27P3iGZJ0KAjyIYr16c5WqwoaMG9995bHbQYtvhW53sk1UEPLr744qiMXwTBv2EMM39EqQX0VbkeCEgOPvhgxieRdGGQAvZNPr1jgiSgvBoObJTLxuT6S1CXfIVZnuuuu459YH8aTjkTh5viH3D4VsLR7AtDiKQZTaGnhhO0MevCSo7JVbVdo4VZGmjatGncHIEUO8s/wjSZHFqyZAlz2d3BCmy99dYuIihXbIcddhDVrcYW/FKI49988826jy+cQiecDG4Hp4GLlyXoQwHEuowYFxDHXmPcfsAzoEUZ0KZdmffVQaEr3SEGJcqYG409+OCDbvr222/3E7hwiufPn8/R4bsMJKbX5iLm6dOnO4VLK7gXs7q7c3kbeU2rDvnAU0HhdXdEVfnO55xzjjTJcU3PJfHCCy98+OGHdJV/wKnqbjSejfD90Ucf9exatcrtLHmjz08++WTmAngGhx122JeuwGrRP5566qmf/OQn1UGLYYt99tmHVa8OeiAmRpDx7OvzTdSKfyyz+6vwecGBevr9UddWOYmwsQmVp6cCAKxcxrHcwr80OpPKZUkNshR0Jd2A6yiJrZ544oksMsA7q0uphxBJA0vKjuPRRpzUP0SB559/fhbidi9hyJSqRkQzPKA1Sc8tCmjF448/vhKDe0MB+H711jx+J44X/w3egOrXCosWLfrZz35WHbQYtpg5cyYXlkmvjjv8J8oSGZc56eqPDjIPeNZZZzUcayHv6NGjE3zf0/WRseSj5xyi/8w3oXaH2d9XSIBu62+puKZqVAdfRFb5JWRHMRIZHru17y/WDBxDi6QHA8xrPY5p0aLF2ge2uyXptQBZLiPGrY57Nlt99NFHQ9L1qahPP/10u+22E9RtscUWRx11VAIwv6eddpqSCxYsKCT9i1/84pJLLhF2jxgxAos5RX59+3Q0ke30H3nkEW6BwD2zq/WleRMmTMiiWiGHMFJMqFYEz8UT5ectm0AOjsfTfe2RMnCs/STdosXXASzL1VdfzTy91e+HNQUZ9QnyrwpsIlQHqwNsZV47bDHcMW3atG9+85uE+bHHHsvu937lh3FxrQRg65GdPewk8hZumDXLUGZ3Vm4nwA2UHDdu3IknnihcFnnLKZF08Mc//tG5GWzPflPw61//Ov+Caqy33nr1xTEFL3beoq6TNAgOMSY3or6xzEqgJekWLdYGzJw5k4aybptvvvnve7Z2ZzsaS0wnTpxY33aqG8j+xhtvZMvEHxmWD8oIJFs2b968Sy+99Nprr3344YfLjB0IGsQ97OMPf/jD/ofxjzzyyDFjxpTr/0/nDfVdd911ww033G+//eqWcYBYtGhR2ZGmxbCGOPWwnm/kkwecSiblk5btt98++QG+1O85i6hfdNFFJ5xwwqmnnordy9LXvNOByOtM6d8tt9ySDFfHPXjllVcyvb1s2TJsXd6WDoTOhxxyiOtfc801P/7xjwX9L7zwwrvvvrt06VJ1c+vuSWhxOZVUn+p4pdCSdIsWwx7PPPMM9RQfSIgYEkbAlM4HLbIrVjBq1KiDvvjprTr+/ve/s00ula8tletcd911W2+99T/+8Y8HH3wwkcQmm2zC+kj4Pe6447gF/nLIqmZrxg022OCqq66KeWW8XLYeOmePl7zWzHoefvjhDgU6Z5555qabbtrrdgj9Y/XOSbO5eavYI5x77rnvvPNO9cdQAqYRq63eAYkVQl4+LB7h6sWHH36IMhujPh9//DFXjD8HEqsSoYrF6zPfg4e6F7tyaEm6RYthD7wrgI5FO/bYY9dff/0EsuPHj6e2wuJOqeWgwhk87BU/6mxMffPNN2OpI444QjpvKjKI0k8++aRAXGLJkiUYAqO//vrrmTK84oorEv1kW1asNmPGDIe510033YS8S9wM2Wx1/vz5OOZb3/oWT0LUEkZniFfC+D7Q+Vx3dbCy8OBHHXXU2LFjNaDqARdE3VBCCiBFtD137lwUUmI1kK57QsD/mDRpUmM1jDLiwkMPPfTAAw+cNm3a1VdfXV6aWLx4sZxsALDLLrucd95577//vnz9qPEzkaGAtuLQfPrppxyI8nohx4sngXVyqV5Rb/wGbr/99ry8gE7KRZR/6623FixYcPnll8+cOVPnlv09CrJDVHnVs8UgoSXpoYu+9EpAwwRkEu4/e9vasy+4IFsQUxgw6/3rdouhD3Ycl5QNbZ544gmqmu2isrGDf8vrEtL9xKl77LEHix/BQ5YK42BpZOOaV155ZXZyqG/slbdcLr300pB0ffPa6dOnuzsaPv3009Wkyu0AOSmMe8Lx3W+yrijwffebHSsETy3632677Y488shLLrlEA3o07sLLL78cPnboX7UNtFV4FH7eeb2+vgcOP8azz5kzx7kuSFXfe++9zGgecsghJ5100tSpUzWmHCqpsMT+++9/ww03aAp8vPHGG2+66abyw8TrrLPO6NGjp0yZwunZfffd33777ezoef/99yufrxsAm1Dd/osQ8urKd/v4nN3kyZN32203iZ133plrpd95Evqx85TLp3Ldy02znVYdWeS1urbsaNEXvnqSLhvNrxAYJhJMQE855RTCysHkwj/S7/dGKOGyZctwEmH9CseIAmFKY+9D1SuWFOj/yJEjKU99WzQKz6kv+gOUOXvudIOBoPPVQQcJX7LxpEtdd9114hs5DGj3bMpXCxaNZc+LzuiHIYihDPgWCoRL+gcje2fPl2ogGxTgBuHIhAkTSD/b12ilFQVRZK2IIqK67LLL+l+3NRjQODqx7LFKtll81lZ6p512OvjggwXZAsT8q2T3VFwg/PVvfVcm4jdu3Likt9pqK42We+GkZGrMHTuf4hZZ6pSzzjqLTU+/IBJxoQpIC+VpaOeMCjxF1zn77LNRUT/D7wOEO/7oRz9adRn2II1pyAK9zH0ZMWLErbfeSizpHYrF03F5kbrgO1tUFowfPx7tMTieVLSKpyXqcSfTRwKxNVJE3nV5zp59RNQvlc+65QK6oDL1TUkx65577omJNXuVVUP2cOwr5BW78xsk9NHee+991VVXaQdxM5F2lt8U68Zjne+xruKEa4svxeCS9G233Va+mdENZIkeXPbUU0998MEHI+70f9q0aeXl9E8++YT/zvcnOjzlyHF2hHEiUJtJkyYdffTRLFH3Rqmk+Re/+MXFF19MYcp2bsAzzXabAcXLXlefffbZ3XffTa/w2T333MOauzWE2FYj6IPIozrowO1UrDjj7BpV4UezemUvKk2hjHMVfuWVVx566CEueV+h8JgxYxrbYGVv1DxL1kNSRZaXgYD+v8GwJoEtSJrIgOPFymfssZCfyMO/cljAYpIIBklr2DJPFPkGcrVo0aI4JYRnl112ITM8PIJRNsAR3glW3FfowEUok21krx6jEFSS9uijjxIVDmIRRXxDxrpHBQcbpNTdGVMyLGhj2bWYR/CXxxcAZdezbLcikbHNbkQCiYdWZXk98n777edS+XevvfbSOG+++aYyPKeZM2dqf2lMXJZVf//735fDv9S2moL1j/pjte5NsJXUjK6P/on0AQcccFwHRLpccID4y1/+gqRXaEe8XiFQFsVWB18EfWQ0MoRA2PiI+cISGZDjQbRGp+D/h1NweSFpzrREY7960TOEDutDXHwCOXl5t9e9ETVp1iEX/O53v1PDXjs3AyH6tzquIX/loy8skqfg17q7w1RYsC7NAdphhx3K4HzAe1Bg1Zu9Rf8YRJJO9xOm6rizAT3KibUV0xAIFySjMpVkBTjj2bk6QsMi0HOHzJ9fQC0LO9/eFygIX/iPnQsvh3PrUh5kK0qyG4PCYPEGFixYwATXw+5jjjkGS2H0+Z3vLtfBBqnk5ZdfXhVdTWBJG5ujsaFuF0WKvqEQ2iISku+pcQb+YDcbVNQX0rX1ITgxpRwmOMuLOB8JTxkO+X0FWGseYgu2u9RcJYsD8cYbb/hr991316Fag4uWIUdGxCOIycoYCUuKGDg6mlRj6nG0odk9e33BiOgnnp/mZaMxLs9G40gIVjht5MqVcV6K5RQ5Weu06667okB3z9boy5YtW/O+Tt4KBS4Ir5fGeQSHWkZ0hfa0CSLMZ0422mgjclWd+UXM7nw6qfgcBWlSPAqhnEDJG264oT4oFc+P2sYZIuEx91wH56ZMkFa98MILqWG+6aLmJBYQmyuv0HIbvIKkew0iVwijR49WVT3IQbnlllvKQG62bW/EANRw++23j/Nx1llnNR4Q6JfWZpScy8/LvEAZhACNQ5jRatiuvrs+v1xO3K9eSVq3cjSrgx5ovcTEDeh3N+p1kCCja3lS16QCyYd66J9icZ7U07M88cQTzKlMMt8p3mKwoFu1c3XwRawqSWeMhb6hnOQQfTmROcGrdNZ6kOMcXnLJJciby5aNXSjAJptsImSUZkOdzoHNZbu/4NYrOPIPP/wwO8IuOytDeYwIFzXmI4hKCOCyFOKyy9vicKYAAE9ISURBVC4jmmxcxq+6uX/VwZLWtZrNygRPvlUVJz1ONwO04447apOsnv3FL37ROWP5WFn/MwXxb+pjYtl8zb1wlTi7PjqH8yZ2fQH3K4F+ITO8q+q4BjSp0cTW//mf/6nyXHimJ99ciWgBI5X+SnSCQaU9HecG0TamGOpAdVhc87JoAqa09qxZszJ7CsW8urtDPg3h7B68WfMQALGt9QEVT6GGLO+4ceMy0B3Bfuihh0gFHkqxBrg4XFJ04sQXXniB/OMPZ+XK+J7zFO1DrmhVAveLEYuC6DX+jQQ7row0MdOAYsq69Yds6tS9OStkRH2FJphD0n3N+wwcpKv4KBw7vk68WIQtp3tQ8OSTT+YpSogZukmaX4ikJXiKWdjlIgRSGwK7lGEY3nmE7eijj/YUJFkXEEVeYLxnzb58hOG44+rj+fSaWagOOtALKjNz5szq+IugAkKR6qAGhtQtEg17nLqFjxXK63Dvvvuu9Pjx4xsvQQGLnfItBgmDSNLItdOJ///bPnWS3nvvval98oPddtstw7P+IvGJLLu/C0QW5ec7DSsECpOxINbWFZbUtstOxeQnEbdgUHHooYcyiKeeeuqUKVPyykoQUqGW/n311VcXLVqkSgmVWD2/zKI+o42d4ss/zxA70g3PS9UZyuKJoxysFjvbeJFfdKVwdfCVgn1XvSOOOCLPDhymRLHxYzBNSkLcDtYz02NZu6T1OH+aiNuRE8VqJIprorVzYgP8SI+vhavjDlhJEWGaC6ZNm5b8WFtBpIC+18+yrWFMnjy5wRCJU3W3580jawdBv0iRka0PbtVBrjxyddBBBsDJoTQ3UQuQJTk6RQ59cU2HFDljWieddBJhXn5mB48++ih+Qg9XXnklOawPYOTzJ9zl6riGqGdxiQaCkPS///u/V8crC82I+Tw1Zqq75tya//W//lcZSinIhx+E1Bi0m6T1y6hRoySYzUxLKVzHZpttlvV9caH4McnXVqIU3mpIWvOic2FrfahcmN7we+LcJCbuhguW5QUsxvPPP58HZEA4Chmca5C0yNsF85fKSG+88cZUjOQTAEaSEWNPUrjF4GEQSToSxiF1j/S0rpVDz6krQaSoKRnwAYUmEsSdeWWjFSYTZIWPyUCIMnMdBMZk0KW77rqL4e6c/eWgMDx6CTbdlXmytI7mPPfcc9/r7MaOt7Iytq4MgwRanZYR0wvvhH0Z8kLSLKy/pBv4/ve/f+edd3KHp0+f7pS5c+dqFvm9LpfTUP6iyZq0LMyhVCNHjoyD/N577yUzEBfKXKG14oMHFk1l6oh3JTQRCNZt5UcffeTfa665JsLm99bOF8akPXh5vTXjFscee6wG//DDD1977bX7778/3BMk7G7socHuywz9841IbFb2OV2O/opNv/baa7We7qgP/K5JsOCNqRNAjVxeWpOFuxCFgozQNqDy2q0xIpqI3InSm2++OaGN5x2SBuaeWGoZhOTQb/zsgryIFf6gaMnUL7wfhflGGKg4keCCJNwFE74PEH/72990Vn3d5cpBh/bqwcgsEQWHoDjxyDur2dFbgzJRIA7O8j2Wh+zxYzTCeeedpz2ffPJJtY01g+g+7dMgHJeyGCJSXW+fAqrNBlYHHdc2423lmg3EQY/uZNor22NxNIuE6N/6J9gF6yxt0hk9SghRoPwKMUKvUKUXX3yRRAHL3Ag5hOk333yz1quPImglyvvggw/+8Ic/5KYzDo2Qo45PPvlEGW46KvlSz09lCOfTTz/NeaLR1EE7F2kHXSMAuOOOOzQFo5Fasdhy0JkbqdJLL73UV+BUMHv2bO5RdfBlGHSSzrxFplqzcImuJkqO8hdoDpkSu+yyC60g5Yw1waKxpHxM54PB+++/PylMpQOaMMDxFpVPuyQa6IZ2T53FB2ycO6r8IA3msESeojroIMs0SCQhkPCk9913n4ZCCdpNI6CoqmgPPv30UyV5GNVxDVEqPi9Rk4grI5ScNGkSg7Lppps2xOiqq65SrFiHrxbqRl09u54CUTWv5a233ho7dixNqwp1EF9EBFxIWubSpUuvv/76OuPut99+7G8GbwOERG9LIxx11FHdM3wR1xCMZsT6seC5lzARIYkUyRX7KExZdZJYOXDCuhXew5KZs846K45vgFTUvAwJ1BGlyCqhgqwxRsPSFO3MM8/MszfGos/tfCvWFTQyVWXU3n33XYdnn322dibJiG2jjTbiU2pw/aiMQxfXfdtssw11i+BR+byR1evsaT+gpEi67nWtHPoh6e233z7pbMOCa0UaIstMJ2Xy2GOmDLDychCJtAd0hagky54CdWSyr9tFrkt1A6wlhzVp1EIvdHf9TZAG0JhLvf322xqZuEoLihLclwEkpFs3SrSmuCY6SMluks54/kqDmlMcVy5go8rcPDLOymIsAAp/5zvfIYcpWUDCE311g5Iqr2Vch5+tcKbVsfXo0aMb6x5wLZuQawbO1SCXXHKJf51C0Vyq+q8Dh1gsr8kpTB6SL8jsxxpk/C9bCAwEg0jSCTjYOKJPnrRIZI57nkRDqVTac0pw3+rTJ8U3DJEwECp9cOejKH/84x8HHr7o5uygFHtEu6644gphpdZ/prNhUyFpgsLqMUnoYZBImtLWv68COtWt+dSZIG+sP0ocUx30gBArGRlqQLzoL26d9uFf77TTTkSfXB5yyCFsZcM/gHyULSNgQw3vdzav13fdod7zPR987cecAUOgTzPE+tBDDxG8RrcyW+UlpYKY4yyZYeOydJkLVe4leOLGVaWHGPh8HAtiUF/XQwd5ab2u50jQ3Bh/Zv2pfEidbp566qlCB8WypLkggw1saFYjF+gvTBACzlCNuJNdY8vKAJgLchnZ2QMPPDDznTo6Ad8KQZUWL15cHaws0FKvKzMy0paWxMRMh8PUNqtq2BBpbdgpvnyAR7uRujwIA+jpKJcyjFjK1MHy+Ks7CPZE8rvfcXIp7aklpTUvY6JYY2CyAT2rjK7P+NC2226rzfWONHuYMtOnT69bhpiLpEPnjTUE2QF7pY2GGANxghCOV6eGEiL70BtZ5cy5PjvJt9hggw2mTJmCF3gnWbOpWT7++ON+7DOBJIHCrTygevJB40iJhVyheAOBO2oTMkwm9WD9ueJNUgGUocf9y646XckstyzzRLrDUyjJpDiL/9oQyzj9JG3gzDKIJO2ZnTJv3jy1TOASmeNoI1qJukn1PIhc1aX9pSeSX0fGJHni+rWbsfqHNnWuJpaOoeFk5S+ICFIV/SpRH98YJNArEUZ10EFWkCJp3iKBqHJ7EL+EY14fps6wVa+1xUP+evjhh6VJFX0+44wzXES7ZT1Lww7uvffe3cz9VaGxIO6dzvu7F198MTcrb8oFIg8OMveF4mVspq+O82gaPKYwnNEAnmiIHIFkpMTKVNFZziVCrAYjEotMhsX3vS5wG6Zo2KwA08flR6tLly5lWcTHZR6hIC/n+OUWcGv4NExVfTCDvMkRyutHZarcDmgfH5E68JPCeSsBF191klY9Ju6WW26ZM2cOAiMz+JVqxGLgpBT7n//5n8zIKJxG+9vf/iatZERxzJgx6667bomlSkjKxM2aNSuZdWQGqpvtYpeECtqHqyQiT6xG8G666SYJuoxXWFehfGNsrAH/qhWRdgWOyCuvvLLeeuvl4lWJzvAebSqWgZnNcD0khMgMekHCicbE2cChKdS8uAh1qO3UqVNVhgWLj1JeHJCm5tJfOnDCgfaMjdfGgowvdntFurveIAX8M+1c5g3r4B0yCx6k3v7x6siGNuRklL8YebZX+V6tUF8YRJKmz7ghg7GiPaeLZvximnQ5jklJSJjCy8iaF+X1fWOmQaNvuOGGWlY1usd++0eCzqydTtxcdxGiDDfccEOC7DVD0lAddBAqEhQiDCagyu0B6Zk8ebLQjaKqrRyWjhA77BY1iBwzLjnk7ukLIouks0ql7qMILuXEg/nK8cILLyDjuBcBYlZ5ZkUUuNtuu8WIaC58KX/hwoUOs1oYfXbOaIKqcH20rTJ5ZasBxqvRHdhXYS2Tae9En/GCI8b33Xef315HL1useQgQ60tBVw6XX345idKtbK5AmXlFjXlj7dRTT5WPpx955JGLLrqIIWKFFMZ8eU9k/vz5zgrzMcT15Y1sYKauOQG9zjXwZnBDr4OCiRpdVkQorj3ttNOuvPJKhpFqCy7lu6DQoirdLzICz4ZEBdxUZFm/Kct89NFHF19ByWKIYhjLUEHAhshsTJEMEO6ilYoT0EDWBmXWPAhlhBEyftaXshdQ6kR93bjwwgs5OtVBDczs9OnTq4Mvgn3odTEHxPsv6yIZKMGDu0tn3CKzHqCzeG/FLA8Qg0jSQDQzcK3epNAVQEM7HDly5Pjx43mgOCZrTw477DD5CVyu7UCCg5zTsQ6hjJsTGuOV6Kebb75ZjEi29Hd5s7YbggBXY1ilQ2B1Dy6Tu5deemmvDuNgQJc3BCjzf3HBdG2V2wNxBgESK3DGaabn3bGz0xO3vSrxRWTUofhrVBG9yWFxpHfaaSfX0XRMyfnnn8+4cO66p8S+EtDeKVOmqJKup6vkR7Xz6lQ6TnR7wAEH0DExQXGnYi/60lvejBaLL8JF09Tcc9600E2ralt31Jhvd1601T6JkzLRm7UCEQkesY5zCBnjXTkL1WL14r//+7+pzKpH0iBm4tAzONVxD4glv42Q6HTGirP7ySefLFq0iNUqXvJLL72Ev/lzIo3kBDTr3c6WnE6BZA4cnIB6lFbgvuXWAwTPPuO9AwHlKkvkPD5RjztSQFP4DWU94Aohk6HF0rJUPAB3pMJaj5nCNcVdgLwJiQ6lM3QfaugH48aN42mx6sD98rtgwYL07He/+91euYw12GGHHQ499FAJHlXdg6H4fH1/iYuEB9kSKghJl57NtFr8CR3kggktsgnHiq63gMElaa5HCVC0OGvoIldffbVDQQlDzFnLrLuHT4sk5L3mmmt0FU9Wepdddtl2220llIwZbUx9CbyU0XaN9Sx1xBPMTFjMa/2tyqzp0IvCd4lbbrlFbancbbfdhsMuuOCCVX8FswG+Vd1PBI/PPZeJQhpKDqQ5Aq19zjnnHC6O5+1nZbsGjCtXINbU4JmV59+kbUEmAkt0PkQQ5U/1Ntlkk6t6PqYE2ocU8W/mzJlTHxXP+FWvQ1uQpYjlZaoC4ofvXZCh4dePGDHiwAMP1Av+KjOjof8yWUsVOTTan7HjLO69996EnC2gGuAKXM+V0MMWqwICg6RXji1WCKIl6tngqhYrgahVYkpNGu8nOP7447EgjkzJIFFWiDkDn3f1fPWkL6Dk+mWDmZ33yPsh6QxriwrOPvtsxrb6o0PSLANzwVcTVdYH+UPSeA0xO1d66tSpxc+TKQeVuKPnqu9OMUAMLkkvXLjwkdoLQh9//PFmm23GnubQX/xQ9PyTn/ykuIpcD5Yu0z9UQjw9ceLEgw8++P/+3/9b/Jr3338foV533XUiLS5qt9vbDbdG7eHaP//5z/fee2+5GuAAT6f1qZ8EjymWuqDX2YjVjoE8yMBR90MDUULdJUda7Nof/vCH6ngoQT15FaLeMojUPz766KOG01MHBcuIjmDr5ptv5oQ9++yzdQ2EJUuW6GXe9wknnJC9HQoaJUlOahVHZ8yYMbwcpD5r1iyh+eTJkxvvW7cYbFBbJN2Pj95iqCEknXj073//+yWXXPLLX/4SW/ObkQKiaSjR//k//0d5BaQTcWVYtH+IviBpkQ+u+cY3vsFW9EPSJapsAA3lPcNuZPgzyHYLddsrvfnmm+evskxhhTC4JN0NfkSvQzd1sIkDNM2rEWeeeSbPS3AmQiUohx9++A033ECGPuss4Vuhef4WXxMI3Bv83eIrAZPC7W5Jehghw1olYAsytSQw3Xrrret7+THC22677d49e5VnTrrxBu9AMG/ePCe+8sorLi4Mq3Jr6Iek99hjD7FidfBF5KVWpoBzX4/9CrKgoXtjrgFiTZN0ixYt1m785je/uemmm3pdoDd4QNJrYLi7xWrEvvvuu95669Xf7cad3/zmN8mPv8aMGZNMkaiQSX6+bgJZXNL/EoSXX375uOOOa7zmJBoeMWLEP//5zyxk7p5V7IekMWVfrxQh7+5dFurIsuj6y5ArhJakW7RYG/DCCy+wFOeee27Dl3/jjTdkTp06ldWj7QceeOD555//wAMPZERODHrPPfcwTAzNFVdcUV8OAwsWLDjxxBNPOeWUflY/1OFq1113HXvKVmy++eZ5s6N/sJgvvvhiY0DiV7/6Va/vE/eDu+66a7UsHGuxxvDb3/521KhR3/jGN0477TSCl0/8CTr9lRcxLr/88meffXby5MnSeC5nQV49zdB3XyAMroz1y8BtwuiEswRbOlOxJDATfzhbsB66pR3vvPOOTBXA98ie7hx66KG///3viSuVOeOMM+gUbXrsscec0v/2wNms5qOV/fROS9ItWgx7sES77rrrRhttxDAxGWWh6T862w9ssMEG+++//4wOxCiK0WV2SgH2UXrs2LFZjIlfy7RZ4pWCgbxsNmfOHCVd8+c//7maSCf6UQ3mUjV23333+rtJ/ImsENx5553L0jzIlky9jhz2Cib1Rz/6UV9vOrQYsvjP//zP7373u+v07IKMBTPRSWDK20CbbbZZ/WVdyC6qXzrTlLcoDzvsMKKbq+21117xTfExLdh2222R66Y9n1i8++67jz76aHK7/fbbx9EsmDt3brZpK1h33XXHjRuH1H/6058i0e6XZus455xzXLAR1g8cLUm3aDHsweWnnrfccovgYL311mOMmLn8hfzqy+CZtpEjRwpzJbKn0KU9nyj9cec92htuuEH61VdfZYYOOuig2267bcmSJRMmTHDZ/l8BEG0zcGeffXYOEwzJ5EAcc8wxDDHgaZnl5RkxOuMleNp444032WST4h/kJZaBLwT585//jKQby/1WBV/hyw5YZODeySqCM5e3WMkAXHHFFSv6Cq8wlJBkv5GVBlF84okn6u/EBq+99tozzzzT3Rrvvvsu3v3SViJ4P/jBD3A8Wdpmm20IVX2pE8mcOHHi+PHj8SsngJD7F+NOmjTpuOOOQ/DCX43D85Mp6Oc4cjS11YMPPvj666/XGVcL1DdZ6gbfNN+5WTm0JN3iC3jvvfdWbglii68QZ5xxBrbLHFvG1ho7dwZM6uTJk5XMGivsSKMTW8DizoaAqJp1Y7yEDsWovfXWW/5ip3LYKxD5mDFjYrzYMndhGf/4xz8mImcH77vvvrfffnu33XbjIsQgyldSeeZ4/fXXF813rrS8Yk5PeiBA50h6db0nOX36dBXLW/L9Q0N9+OGH2AWpa9sqtxMIynzggQeQhAevKxRq0ZjPP/+8x+dRNfZuu/7667MRwlVXXeXicvBohkk//vhjzs0JJ5zw7W9/+/DDD583b173m2BK4hUExlXCNMcff3y2HxGwCiVFfv51+MEHH4jtdthhB48Z8J9IwoYbbnjNNdd0rrQcWtUjQD1mxeLZ/jqIYFx33XXV8ZBE99zzGoZeXhWj2pL0oEAgwkreddddRLxXZxA+++wzikqjaPL8+fN7nbFYtmwZz67bx6yLHevA0as7if2ADe3fAz26a2dvRvzXv/419VZbYMrr9qjFUIDguLwfoneQ5U477ZTDOjKMXKb3TjzxxO233z4k7RdHMtPCbn2tGNFNsWCXXXYRoFcHXXBTYXRePsn+M+pDLOUTJyeGciDxuthr11135QqU/Is6H0bMXo/7778/FyH5AwHdQdKrJfzNs2tAv2WjqF5xww03jKh9ZHbTTTcVaakJc1zPDw488ECcypdad911q6wONHjRZaZAjpKZg0j708csKs6253vuuWd24JHWROgTc5988slvvvlm6hxssMEGo0eP1mU8Ni18yCGHKM834gkxJk4RX+omVxBH1gdaimo//PDDrH2uhsLLymSu2JZbbll6Lc0V7m8xSFgTJI0Y+vdl+qcNwr3S6+ICd1+JtaZqlbUDuJZ143sOcNKLKi4X7Roa38CgCTzlxov2NIFaetIXXnihKtfzRiBqlEbDavK3v/0tKyAoIX3mHeeVbn5xTilwFyd+73vfYxaje55IeWYiW2kCl9/tytAo0GcyocVoMn9ceTHN8vr1gLZzL6rSKwi++eOPPy60qvvm4DFl1qvRF/oXFfj888/nzp0rVqiOe/ClF/fIL730EnPjwW+55RYmOLtErRA4ZBqNkXV6I7DTcZ79iiuuuPTSS5ljXbMS1+8VXCj9kmHqgHTJaZCWAEjfkTrBa9ofCSkmLCPY++23nzSbLl+sJghutNiMGTM26vnkEY0WExNXN5o1a5ZHJrd77LEHIsl3hLRARC5vy9T5Ho3JmTp1qt/6fm1CRpKWzXZcp9ftM/vCe++9h6QbQrVy0A5bbbUVCUdg3IjCRg2QQ3pHWZ566inSS2wuvvjijTfe2LkMBZLW1wmvPVc2T9Tsfj2X6Pb1119XZ0apbOklJPX4miXNrmGziE9fQL4pQGw6ZZfDfeUo9t3O57A4NxMnTnSLfOK67rKnl0md26lhNjpM72B31N4ptfzz/8y7bpX2i+aVJBjPPvusCpCcLLPi1bla2TdbdOFwRQfJW6wQBpekRV3ELlZeotvC0isOHSe0vHLeAMecS85kRKr6hzLEVOhZXwroFvRNBahHfYCIVhNr3iXwT6+77rp4EvSTIG6yySZOKcgjNN7q6xWh1eOOO04Y4XYMKGXLfS+77DL/StCNlEGQSMV9ly5dSruoOiPlr7KveK4WW5bX/2k+5dEgRxxxhNDHr1PQNv4Wx5QPHH344Ye777678nEFsvIC90iLumRmC1UVkMOIdE5aDrUaNWoU/pDPKGsZifPPP1+VPMtKj9toDVa+hBEEqZg/T5SpSo/Tv51lJlRJBVSb+09m+EON+qTFsioKHwgWc3EQAaCTBI4FzM3xxx+PFVKmQI/HNwp0ovaMs0iMEblGQ0UCHdUmop6Cn8HTGjt2LLmK58SLinfIO9HschTIuq2g2OhVQQwlklYl3Ycm9aCc+v7nkPdAApWJxhGYUp8QJGnUTXq8c9L/R3ZsyGh2FCpwKYf6F81EazQd9iKTZPu8887zyPWtKOlXysiPxhXstttuAjVtpUDDr+0f4kjq3JcNGTgi9vmcVDg1TNkNVEqGhc7VcQehQ86KOLXK6iA7UUd6kWWV+0UQVDLj2avjHgijtQmmdwU6XuV2wGzSqTlz5mjMKqtnUVV10DGJTDyk4+K9lcl7lRFbJ42P/ZWYmDxvu+22pdcIPJM4fvx46UhLeYrMrdQX/bVY7RhEktaRTuFasowiUZaLjWPL2JGoE7vvXxbh6quvpgzbbbdd/Lg6Tj/9dBfJTqJ1kGaGtXASEMcs4WOUSW3Rf56mQ/aUMyguLD6mWyvM7SXl++yzj7QLqoAaEkRONIEmghRMSCQMYm0H4ijkDbxusnEuE3bWWWcxZ+rT1wdCMh9WdnIXETrMd0FwhjROoj94JQXq8HQcFAlKRaOoH25mTdyLt4QUec3soKbjeiugSrFKKlasw0knncRYSHgEBbSGAo2RzxUFo8Bs8QxIgliTf1C/IDnRNZpaAdVjGvAon6lhc3UoS+ERdIQqMUbZ/hcnVSU6yMQqktYIyIMwcIlCYEJGf9VlBjArHSCTEVfkxCASEnbHs1eFeraSJQw8lTC6TlSfvFipO1Q7n7aM8+HuP/7xjxEYz+Djjz9mAcm53o+LwGLqR7ceiER9KbSq+wboef8OpH/wxa//AteNPGh8/0aoVIwiEHj19CskSgPWHZQgepSnEwtqYe0f0x+I1J3IFT711FN33nlnaVStfcpMc+AW/gJ/VVk94NM48aWXXvJv3MoBgqeFpFdiw8UGSJ1bZ56YY+15PXX+6gZZrX+MQVeSNJJMluokzWtkTOgUhWI/C73VweN0r7x91ICrkU+6oGJ1ks4GxqxN5LbK7XHEq4OeyYUychbdKZ/SqZ9LIKXvu+++CEDjq5QJ0NMmEgQ7okvGHJKrFGsxGBgsks6GpexXw9QiZvm4kDTob8SckRPdPGLECEReN1uZpCH63YNOIQ++ZCIViOfLt42YxsK6O/VA3tKiH/lYuVO8+k57WbjBNAipmV3mdcqUKRkUWgmI7ZANU8gci+Q8V3kiTvFOO+2UV/QSyHbjoM7Wr5ARJIotHaUKSSdS5Fh0in8BHhN/SyToEXknP8iImcaRZtGkFy1a5GElgKFPsUwNys9hKtAgthWCx/fUOECkVWV9EXg3ewl5QDbulFNOYS/Ihsw6B/Ae1AQTxMqLWuJhJLMq1NNKTz/9dHz8RjTpkfsyKLrMTYv3I26uG+jclLHL9fFrIyKHGKy6ALudnIwT4sJeDfSqQ0Mxmvfff39xDXkM7pvXlNWnW334LrNmzVJev1BqsiHNdSOiMeuN8QkXcYtuWi3QevwD4lemQugyGuPQNPxR6qydOQTZqLVAv1BVtCeYU4HGB5f6x5IlS+644456y68cOMccO9ZJx5F51kD79HVZnpDy+FXN+T16IW1Og9ZZZ51zzz1XQlQtk5mKV6qpd9llF7wLdaHt55HrJK3R8kIRd9B13IU1yItGVel//StvG1cHnSfSKXkEXcMqMrnFuNVJOhaVHyCg0kGNQY44dmroN5yR2mYdfqNwi9WLQSFpLi25JKDdvq2I2XUIFjmg86KW6o8eOcAfOVRSGbay1yVRESlgGhCtYJfdmTBhAtOZAZ+QdGg+hAd5FQR3SsddqA9nxaQ6/YQTTgjbrQQ4Hy5CnfwGxRGht54oX4osJK2eVNRN1YQxpfmeQutltQiWUjiOBSssHZLu1dyzhjpITKwpRI1Vbg/iu8Qp0S+i50z7uRdq1CxiRIdsUykGsQ7dMdnAUZ9OYyz0eJ16M1RQ1pTG4nCY0okl//HHH3d44oknSouxpDPmIQHja+uPcqKbjhs3buzYsckcIPQaVyBpBrpO0pn3dfGQdK/je3WS5uVoSW4fQYoJ0zWDQdIeXLXTMnXo0LDjDjvscMEFFyQzUENhvX+PPvpoAlnYYsaMGSqcBmxMqMcWI8LquAucIQUyywB6WQXOOussT83rSibwVwgb/0CXsQ9Vbmc/SDE071bDZoCkPl39pXjqqafuvffe6mBlwbPRGm7dAA+gKvFFiECqEh1ss802aR/NWGV1RgtuuummMsumNVgDJx5wwAEZyQgS0kQBG0DSHJ2oIeNQJhpcJ8RPSglACgMjk5EwyNJrfcpL1rY5EfR+XMzzzz/fYQpHm1iJAw88sNsbi9hn3P6qq65iNA499FD5dZofjli6dGkZZhg4dEeZCwhYXVEfweaDsqsaECTK5D3U7d4KYVBIOv295557EqDTTjtNdCKsyVA26+8v4AmWIdaAueF9CzgIUCaGM1RY/f1F5BZHHnkkcSF/BJFoxrLEyiggvddee9WXuUb/CZl02I7w5S8QDbgUy3LhhRcyJSojuGdr5s2bV5UYGITsVMVdOByEPprJ1YgRj7hHwY499ljpAnaTAkNKxnrSwHx1P88VtuALT548mfa6uPLL79rzaZdEkIu7dl8So2jPZcuWPffcc+7OSjJJ+EO4w1zi7KlTp+qCoo05a9VJOm7Zqaeeqs6sg7QuU4f8m/nUbHkBREKtyIw0P2P99dcXptAHtklfJErLEAgWjAzoYr/avHOByi2LZ9D/K0PdcErhUS155pln4gwhu+sc0tlzQxdkwc7ZZ59NTvQLr6J4ouk1nHTQQQeRRmmPEDkEF6Rs++6776RJk1ZlZKKBDGDWF2EE9Ih9l8jrTHVnNFqQNdiJtgO1dRYelV+P6nAPdfBv8YS6EWOd9XqcgBDVK6+8oncIWMogcvq16667Eqp0otbTFDwM+ZtttlkmRIED3T1Q0Q9+9rOfPVTbI2XlkCCB7EkwDpiVyZIjNq1KfBF6X3MRvB//+Mf11ZcRgwgAUUeEZfCGDNQ9v4IIba8LCQmhs6KGcQI4QC4YXxB4Wqxf0sDYjhw5MmmhvK7n9NN9jtrcuXNFCFnWGi+crLp4Cn/a+VyvytO17tm0jFNGcpTRcUSCE5B+LwNvKw0PVVyZQHuyRWpCYEaPHi1oYStKI68EtCGdLSOvAb1GNBLXXnuthmLzcQr7/3K/a4THjBnT6Me4WbrbX3wpncIsyylTGOScNaMO7EnpuwFiUEiaMutFEsz0O0XVnQvMdGyK/PqnvgqyNoopJEmEoDFgW0cRKXZBe7EgxdAXkmbxXYRNZFK5rkIKlfFXBlfDdo1PqWACpi06Qz5I9hVXXLGKq3syvi0WTMV4EhtvvDHh8JcHpOFkXVV1qg5eTtHf/jah55jjTt2ZVdwKJ4L0XFpPgvMxc+ZMz16W9aq5B/SrwbvloP5aZMGiRYvUBGFnLoAqZmqqzEiFCBMHrxx4J1tssYWLjBo1ilTwePgWzIoe9O8555zjr9mzZyM2sphQhuQQITYLqR922GEEXWZxpxTeYIMNJFI3nhDR13EZcYnVyIK4RGOoXf216hFHHFHGVLrBX3FKedWE5DgMaJegXEJXJpjwCECeaSPlzymxzoGOaOzwIIevprV1UBkuWnVkYOaZZ56pjnvgXpkxJVraU/tkuZBGywqMGGsN1Sm+XB20KguluSQYGv4cUxUu51uUx+wVTz/9tBbTrTSRGDtFX8tPm0yZMiWjwVzzMBYJ1w7pbvLMepaxek4PmuzfSjagfCH4lQYroT6NcTta01j0UEAs9Wl1UEMeGeswx7pbs/Cz00HK90rSGcPrdfBAeWdFOOsLPAsINsWpDjqsU8IS+d17aMQLTwCgC1By8uMHqLzu4GMlMxACuhRk8ksZssGv4l1lFj8LKlca2FcsRNn5mjFcxEMQ4sqq5y5kNQqowjlFAZZEVHPNNdeUQE4rKV+f4aLODGk87zRyhg8LtB4DmzcOdNNRRx3FGCaW0HRlQLEB6lBcz0ATKVy82CVLlhB1Xc/sO8wUkhgppvs73/nOCrk1Wt5Z1cEXsfIk3Q0RSZa3JHJiQRqTXoGH1EaJX0844YQqtzcUkaqOa8iALWOUmAB4tS7L3KAEhpUq8tpi4uvrUzjv/qIVhearP1YNqYZQplxWZCZR7GPAj8PKyym6ExmnX/2ybnxJOVH+3/72t9tuuy1u6Jz0BeAzzLHnnnt62CqrB0yPc5kbjSMW5CiIEsgQN1+/MMpanvh6fDGu/FhYSCupeQ5XDurspiU2ykRDJtqzepzCI1pWb86cOZ5CTtSDDEhDfbFxzJZEVEvdQslZnBySzjBJOpdV8lyYiaxjkb5CNOThlHgnaS4+EC8Ke/Hfy7hLbFyZragjHcQhoMASGe8t3KbOs2bNSno1QiXpS/dDkZkIEixevFgL61YxlopJkEBPpFlYqIsvvliTMh+MVEbnPIgySoITCcNA4loSjqF33nln5lVgEYPF5opEBSvqwwQ3Rvwcsu+Ni6c3p06dWh0PAFzMMjaz0qCApLE66AGvhdhUB19EGq06qCFiUOJCLj6eIHhyyMDJJ5+c/DrImwL6ka9D4zA6Ps6Ii0g6y9B0lggv5etQZ7pTHdQ2t2JyVaPbvY4X7srSOK88XbGoOL7OZPqR3PqL5CfEiospU5VIuJxeZ38GCM66ZvQU3ItUQCYLJl0P0lRDbYklmXE7DKJAoH3CJtrNYd1dY2o0o0y9kJESqI8yckbRv66hCGWK8/PPP7/11ltZRfrSkNiAZmVGgK8jkKsPfRPmyy67TD2Z4jA0L1kNDz30ULrgX3ZPHXgDKT8QrCGShgyV3HTTTX6BtyIE7A748hqDbuufI7nbipVlinUkDiZPed8gw+wFWfuwcOFCEYNEXYg573LUcFVIeu7cuY0QKpTsauWy9EFwQzhK76qtfkVFHY5eblu1DH0TgwqjM+cU5XeuPiseZR0TJ050TQFrhgrqiMYS0+q4A76ekrd05qq1BjeZ6KsYdmGbUkZt/buKJJ1J2ToIEgJGfu7lWep+ZRbRRD/dXZXUsy4nhaRJf6kbW6YB8USWoWbSPaN27hKLybj4q69uxU/+JX7SvIpy5SAkLdYJSTus/qihdJC0AsyxQ9YnJETni+uzGqFte/UYCHZ9Cvm9997jAB1xxBH1oTwxh7ZVSUysx+uaoszNN9/MRyxks8agv5jIXkfaegXZ0LPd8zsrBBdBOZlnqaNOYw1keWZ1UENGPutv6sdN50lQT/IQ6uWMRtlJqZZn7jfeeGPFCnQNhc1Qk+qpRtHKOnj2B9W+ds8fShycse5uaWdzXDAzQeKWsr9CIWlh6/rrr5/wlPfAC5SPjB1GC2JGuMjsklvI6WeA6kuR5Q5IFA2zdQIqtuikk05CEPXBbWTJ99UIbIVm5NPwY3Azt4ZmjelsdZfwjPJW53QQn49ExfyqMG+g+q/z2Ss8LcGqlKYIssyi1xlrveZEbUtxlCl2VaPpDjmMW+wAoCGmia+fQzi988pSP+PEDQwWSROFhg/iaV3hoc4egWTUQ0qIa7tnYpBT47WNXuHJe7V6bJMrs1zkm9xXuT1g1PST8DFCOa8230y4XVMMV9i0+mNFQM7wXBEUwkeG8jj1y8bWMwHUD/hZhJJiCyBIQOfU5SuK1SdqwNDzaSRUmxz0StKaFE+LZtyxMZdPIJzbGEI85ZRT3BTx+CvT+a+//jrFc1hoPgu72J0crgRYT71QX9qtBVyTmcjCFkxQ/dFBMilVDk888cQtt9wy6aCQdAbf0oO6ldsL1MNDySFjmk47Lz+nA6E2n6CvgabE936lE22EsINMT+rBDAX1Og5UJ+kg/uKCBQv68Sm/clBVElgdDEPoUCRdX6GzEog14JdUxz0gh32Nf2TMprvp0Ib8sqoDMjAj5MKyEkDLcDBlp8vi7FSePJMud0QPxYAsWrSIUhNvYZkrJ7MOjkU9whYOMm4SrtzXp5moTEyBG2WBDrAwm266qRaggLhnxx13PProo4WAaqsF8pg8NtcvoWqmWiDWYyWAI9wii2QhTcebAYlCDa6vjBwKmKDiqaeeyl8QbqZl4fs6tUOshM6K+c30TZnBZDNjb4tVKYin3j0UAcwjaA3WSVUzaAQOnSKyQj2YO975zjvv3Jgx0ZvuNblni8AvxWCRtACoseCCgCIPGuU6nCC9zmYxoyx4wxHj748ePbo66Bsqo2WrgxoSi7O206dP79UL5nZptahlVtxo5by6kMW9q0LSrDk/dKeddtJ5eMgjE+usJ29clofhkJRMmTJFItoyqbO9ewpADAEQCBfE2Z988gknpleSJhncZw+umGek7QTl6quv5gnl6epMCbfddpvMLEcvY++CUbqapWqgvzzOQHZx6QvLli3j9jJJtMWhpmA+WAHOUPy2xlCHJ5VZ+MxDqU/SAWMXGs6qAs2S/MwWk6j8++mnn2oETaGt9DKPxF+JrXtF3oTOyoYMPGS0Ksi9GIh0ogLcF23F6ZQDDrO4Jn0d4GY2iK2MsGUor8XqBYFB0qsy4hpQzL4cuF6Bomg3Aq6Oe8CyLVmypEHeSIX8Exj+7qpXtR+89957OCCJejQ/EJRnUVtGA7vQnb4WtwcIuyjgSiDRqt8carQMgGW8kxXCzRnZ1tRRH0rNAKZ8gOnxooAYHXRPQGBKp/tLPSWYR8F6cV8KSZ/VeRMhmUFC8MaipaAxI1DAzKIzBl8w4Fwsoy8kutd1ZuQvPfWlGCyS1ijaothftkyd8qkQthKXJJ9NdE2GDPckB04//fReybUBZ/XKVZmZwE/C0/Fds7Og47O2QjF+6J133jlhwgRpBEnh5ccQi1yJRcA66+PnnntuIGpMFTkZrgCHHXZYcYqxyLhx48qT8gzQ5Pbbb4/D0Hncsc8++6zeFKQWSx100EESPMQstkJv/a/UQH71OZvddtuN59i9Tt519tlnH33UeCg3qo+CMC7FVVw5iDsRrSoJc8UQBCNrcRkshw1zBtyCMvCoi8valuCaa66hAxIffvjhzJkz655H5nvcKIeMDkbXwjJpr4CgPnvUQMY2EhMg11GjRtW9dQ1Cbi+++OK4gN3gcetfQt7wOXic9DYT3nvuuSd5YBe4LB5Kgqrr8apoi5UCpUDS9eHEFsMFaJjKiOzRm6AFa4wYMQLJZeYxoD7XX399zJdfOY3wD5j6rbbayum9MpRT6H6ZqIqVYKX9VUianXHfTvEKWUiYdY4NoJ7umZE6eAaZDSljadUfPUiA9Prrr1fH/WKwSDrx05ZbbslKTpw40bnip3hqu+66awZkAqbQv/XvqGhrZaqDPoBXBExlYXMd7KwLap3777+/uztBf3ASYzeDbbbZRhhUxkkyJt8rmOmU6R9YjWMeTv1KgPm0AwIbIhyAuviV1OCkk06qTzdmRKiBa6+9tgywc4wa4+HvvvtunT4bEN+UF38Luv2AbrzY2a4kqtsreGm8DS6LR0j0/Oijj7722msEiR9GIHV6tw+XMQzhNU2j27zDKVOmHHLIIfwVDcJJGojb16IfaFskvaJRY4uvHHSf69wxq8shzT5gDenMN1GTvInA7V60aJFTsrCpzAEXHHPMMULtM844g4pVWT3IcPecOXMKSfPUuQLiN2Zh7NixmZM+6qij6pGhMHq99dbra+DNX6Ewj9Ad/AThFz66326SzqjbAKcJBoukQUOLTZ2iIQSjxRh5qoZpvummm+orcd5///2BzDCJens1cC4uZGFDq+MuiHhwgGjpjjvuUEw03zDian744YcvXrw4XoV/9bS4k/UvYXGLtQx6+dlnnx0Ina8Q+En8xe5B0RarC8wFkl7Ft4BarHksWbIEp8yePZu9LZY8K4rYXr9YQ87jjz+OvAXcYqelS5fKb3jtdBbpovMsGm2QQubU5s+fX0haZmbTXX/77bdPJD116lRRdeeM5WtI0dYWW2zRl1A5N691IRrRdl8To+uss06WrHe/O8dB50/0GqJ0YxBJukWLFi0GG8IRJP2HP/yhOm4xTIAjcUoj7AmVZjXrLZ09jEGMNGrUqE033fTtzvrNxlK+uXPnykTDIfj6GPI//vGPiRMnbrTRRiK6/JsFAf/TWUmORCEvxWHo/Tq7pYp6BeWYrizT6YbrhKRVCde6uOD+tNNOq8+mZTb63HPPzcRWldtBZsev7vogRV9oSbpFixbDGOIwJD3ANTgthg6OPfbYrbfeujrowbOdlyzQs9/6aOhzzz0n54orrhDybrLJJhkoxsE33HCDIHvKlCni6Ux05u2y/Jt9kDIrKl86q47g/fffx69yMiW61157jR07dtq0aXLGjRvX/xIH0XN2ZVAsc5qPPvqoauyyyy4PPvigHNKYl435HEnkxXTOwW233eb08ePHN95+6gctSbdo0WIY47XXXkPS7dT+sMOECROyl2IdeRU7QXbjHeWRI0fuvvvufLL11ltPCHvMMccIUhXbZ599ynuPe++9tzg4b0WLX/17yimnZN0rdh8zZkzSgZj7zDPP/Oijj3Cqayq84YYbCpH/9mWfU9tpp53cqDrowcMPP8zncJECnE0sXU1NULjn9QjyJ02a9Lt+v8nbQEvSLVq0GMZ45ZVXkPQAp/fWPH7T+dD4kiVLyrrUBhCMEHDp0qV1/ih48cUXuzerQSq/7/ry9LDDvHnz8pZHHSgTny1YsOCwww5rbFCTtygFoFkzhLr222+/+++/v76O5L333sPEyxny3/5t2223vfnmm0urvvXWW329TuYK99133z333DNA7ly0aJH4uDqogRD+/Oc/v/baazE9mSyuA6q+4oorJk+efNBBB8lf0YUvLUm3aNFiGIMpXwnDtwagSmeffTbK6VDG8m2oM10q//bbb0dCu+66a/YOCu6888533nmnsdXa9ttvX99ozMOKPhVGVw2ewASvvvpqwxX4+OOP3evYY48Vg+62226iyRtvvHEItlUdfe2u89xzz1100UVf6o0pwK15++23h/hjDhwtSa9R8BPPO+883vGyZcsa7+xSJ17Y3LlzTz311OOOO+6kk05qiCP14+jV3W0FXnjhhR/+8IccN3i/9oEXN+Lu3XbbbT/96U/LNEyLwYPgpjjOLdYkfvnLXyLp6mAoIW/Kzpw586WXXnr44YdxbXaCzKdNdtlll6OOOgrrZNMhevrZZ5+NGDFi3XXXLVt6wZZbbonOk84Gk1tsscWcOXMYCqckH5588smtttrKZYWPd999txyG4oYbblins6sGemZSTj755IwAZ360xXDBV0/S/B2M8uabbxbHBxs1XiEncAR39uzZBP3b3/42nsvAhfy+XlNrMNxf/vKX//iP/8COzz777K9+9avMOtCKW265ZcaMGccff/zlnU8OpPAggauboRh66He99dbj5Mo8//zzM1cRUFRKxV9uPEKWTmgHT/3YY4/R8OKGS7hmFvovXLgwL6YXbL755o0dNurQMpT/yiuvLAsZNI6cB1f8k2orDZ3Y/baDiokVpk+ffvrppy9YsKCflUF33HGHhu1rOHFF8fvf/34l3pgikzquOugNWvWhhx6qe2b68Te/+Q2vf+nSpf08XYv+gZ9W/WPSqx00TrDLsOjlKqsH4toNOp+0qY57QAaKwhbHml6jeYns7HvAAQd0+9ykaP31199jjz3oy7hx4xTjHygmwWDWN0d6o/P+cV5tajFc8BWQ9M0338zFY9S+853vcCfDWJB3o5nIuHuXXXZZyqOxbNzKVZTAXrxLh9dccw1C4ip2m1R0iwKxMpq5+uqry/5fBbzRDz74wC/PVBOMHTuWRsnn5A4eM2Uhortst912CHXvvfd20yyR8FCTJ0/mBXvYqnTn3ZI6T7/yyitK8rsxqARKOPvssx955JHMoyTIzgsMU6dO/fGPfyyw9izUcpNNNjnxxBNzkW5kw1tQMjmXXHJJchrbta4QXn755b7202GMcGpZFYK6tAPUv22sB7NT2DbbbMOiSfSz1e2hhx7a2Ckw4HjN69mbHTuSBKKlu/fcc89zzz03L2PceOONZVfCgA0laQyf+kybNo1TWKDLSGxjPUsg3HGWBM6o7ydawLvyFPlOs269/vrr9eDyVu7A45PtlqpXAosWLeqe2vzKEb3Odni6u67XZM9fDRccsncs55uVCDErI+e7nc2PjznmGOa3V/dxypQpm222WewAlY+1JIQUJ+cGIp9dd9110003FRRVWS2GA9Y0SZOksDKpEvCdcMIJYrh77rmHaYvUHnLIIQwWM0pSs2KCEip/2mmnFd9TSdYWs2aL18YsDmTb1QceeCDbSO288858TLZYGP3SSy8xsnhIDM39LMzEOcjHSeo7469e8BWQsceJpqm221166aWpfz4XXd4azGbRGR8L8tEnDK0kFyTfpWkgpkFjVscdjBo1CvFUB13A6xwdzV4i0bzGpwu+dJVjP+BA6OJeWYd75PrZY05XouEdd9yRxyYz/OcsDL3RRhtxQVJGx/UzGCCGOOKII6qDGsaPHx8j5UH23Xdf18eyM2bMEI7oei6av7B73ZABMuZF3X777eSQUQMn7rfffuHpo48++vnnn//+97+vI6oTOiifmN1///31MlklYM/Vvp8Y/8m5Qhxtm2vecccdZPi+++6bM2cOX6r7s9AtvhR0pD7wO0TAI9fFxJIQEiQqRjBoLsGg8vpamY8//pj9KXpH950ihjnnnHNYP3+FthOunHzyySwnx50JfeqppyhpNllTTBm+e+cay/HZZ58JY0gX43744YfLcSPq5qbEnv1JsRbDBWuapN99912u3JFHHtk92gP5Cgp5+vTTT9noTMZ88sknI0eOjLQFjDgLy+VcsGCB8t3vtGUdP9V1F5JN6Ks/ahDLNh4HkTurn40hVwUZfRK3VccdiL3KhJP7KlDMdB4BOeUQKLOc8zof/sL3+aR/A+I/Zeh5Dj1+3vS/v7fvyRdgwUZ3iDJXhaEhn7soX5upI69CZqu8OAQPPvig26FqcapMrSSz7qD0D8LQINpAKyUfp7og1kw+EKFM4VOAbpKWKRGvMcOMGrbzZ4W8sJGvcQRjxoxJrO903md2XSDDxYO8q7Mh/NKlS0888URW24MnvyC3a7GiEEb/7Gc/qw6GDAgYht5hhx2Q5UUXXURtd9ppJwLALUPSEoTWL8QTBezrkPAvW7aMgPEmQ9LXX3+9fwUexKZzRgVlhMvxyxu7/86aNQvNC0423nhjv050eOihh7Y7nA9HrGmShnHjxuHX6uCLEM+5RYaGvve975GtjMwoL27uFFm+nz47SOayZkqt6pMuQQLon//852JWiQY1BrNnzy6v0rsjzna7SZMm9eo9rDpe6+w6m9HOgm9961tlFJePrEBh01c7nzcWrs2fP//yyy/n1mS2KYzixIMPPhhtd09QbbDBBlOnTkVLYlmxnVP44GtsdrmAkXLrOi8WJKbkjmhqNRTop3q6QL52yHj+Aw88wEgF/dTfXwo34tqgEDAnr6+Pn3aTtDA3MXGQ2tZJmrTIgfo1hSn6SILX5ZrZkR5OPfXUFIgLmI9wZCeEFqsF5KS+0mrIgrbibPE0y0YGLrzwwoULF77zzjvF4JBzEpIJYzLJHGUXzDIN9PLLL19yySU4m+O4ePHiiNzMmTO7F0Ocf/75TuTybrjhhqH2iy++eM0bgRarBV8BSSOYXXfdFXGeddZZJKx8uO33v/89ecqXsuCtzneF40WedtppuAc3O5f/KDjOCkbiq0y38CVW8xu5v/XWW3mpb7zxRn0LOgHNNttsg/9c3HMpNm3atMH7JEaq1NhqDu/i2qQTBJd1qikfaBZBIevvwc844wz/cibWWWedqF9jJ9vter5/xRA45SscCcS+mVprILT3q1/9Kjbohhtu0IN6Kt/Gv/POO3kezl3+DD3w4FkXU12iBi6aAr16A4RbL2eaoGzCx1ZylVj2+H/KHHvssR9++CH65CUcf/zxJK14hJDalmkRICRyMmWeyRF2VjpkL35yzZy1++6766Z8FjcRT77A48GXX6jF6oBokrJUB0MGBKwuM8ExxxyTUZ9eDWn82kwDffDBB7Sbn13kqgEqwxJyAV2TslS5PRg/fjzHlLVkM1955ZU463zK7pnBFkMfXw1JuxTwK8eMGVMGeLOyBgkxZ7gTAa+//voTJkzwFzHNKWj1sssuKx8DZ4K7N5aDBkkX4K0SEonaKUwWJcHpp5+e/EFC1mY3SJqfW6aWwyXxoyGtMW/ePL52WXXi8Y/rfJ2T7kn7F0nU16SAHtWqmUmlvYxF9Ue/oPP89Keffno1fqhACzMW1UENhaQTMRMDHCwR5Av2n3322e23366v586di8VnzZoVSe02fIRBfq/fU3HK9OnT4/3cdtttctC/8GL5bTrjjZ9//nnGJwpCvWUOAh7qfBJNbavjHndKrbbccsu99tpL08VRQMD+1TW4OYPknhRJ5yPlIWk+WeYjA/L54osvrk3vdLYIJk+evNNOOzW2fiQb2267bV8kDYj50s6m0CBK3njjjcmM8nPmzGnM/mQZKd9UVEPG6nMlWd3y/e9/PyQth2NK1xRjUbvnWVoMcXw1JC0QbEyiQEY7CzbbbLMRI0aQWg4mwSVhiXedW75USATrI5MFmdsuJC24mT9//pNPPllfrnzAAQfsvffehJsnHsPtLoM01g2JGsv8E2SoABXlMFUtJF2YLIeB3soSMA+uGZPZgPxp06Yx+gsXLsTWLnL44Yf3P9+JyLPBHvBjWAceQ/XfKiATFt1z227nRosXL95nn304SQceeOAFF1xw8803C5R5LRk07kYWCXZ/gz2T95qrOq6Bp6KhMuWRMUP9e+WVV/ILNbtMlK+59D67JhOFZyj7zDPPzBUgc8n1ZWshafm5CEMZixk/AEMLWTIqoG4upRGcEpL2yPyAXOfNN98k1TKB7S6uZ4u1AC+99FKGsorqZaZ55syZ4oG+DClJKCSdRSrAQ2Wstttuu6zfDjA3ufroo48iaXFSaf2PfvQj+STQfUU4+Q5jQBp33nlnhUlsldViOOArIGk2EYtUBzUcffTRgipcVULDhx9+2E2RK8F1a2x9/fXXZ8HFRRddpEBfXBWGQ8kN5qvDiXEzgcdAmpWkD4PE041AGWbPnk1py4R6ryRd358EkG7q3D9Jl+eiqNk5oUxrNUDt2REF9thjD34Mu3DeeecxLlwf9akKrSyyrC9voQgpSsNm4WsoqsxuBALTXr0uCLV3k3E/JF2aAnG6bL1nQ73qoAzirHI762DlX96zRz/MmzdPThmAgULSbOKee+6pE/PR6MyMCq+POuqoRNIvv/wyP0B7XnjhhYlvDjroIDY0bct9Ic9PPPHE/Z1v/pR3DlcvdLHG0a2UDs4666yV8wY+/PBDAVl1MAhQTxUbPC9ZrzXetRts8Dt166hRo84++2wdTcV0PW8vyxgJHuPLmoHECSecQFsVKCQNuFbJa6655rXXXiNm3Lsbb7yRaxidzXIHZ3FGqRKpy7A2bmYq/XXwwQc3hrLkk1h3aVeQDSN8BSTtlhmzbYCBZsKqgw7yrg7eCkknk5xNnTpV/mOPPTZlyhRnJb+OMBzzzQ5K9Gr+Ro8eXV+/xjMQcCvc/0LoVYEHL0uN0CFVqVNUryTdeO+IYmf8/9BDD+UUS3AvhJgekK+d8Yk6SQMi+c53vuNejZH2AHv5ixUo/j4kQNSwjYH0FUXWyiFXEerWW2+NC3NBVLHRRhtlcV9jQp1grL/++hgdpdVDcPTgdHaqO8THgq7THWGDptiv8/k5oYMyvJDkg4DGjTw1kVOsyu0h4LovlTH5+gK9rNxO7OLurqMN5bz33ntqLnH++efn6TJXOn36dDW/+uqr5cyZM8dv403rfB9+7ty51fHqw+uvv5668YxVgx+MEjbeeOMsBOECEjP8oVYiM0F/X1t3pfIEuD4AplO6OVWBRYsW3XrrrahIJ/Yze6KpyyA/dSASbnHMMceUa5IW4sG/5DO5FAGuSynd6fWb/EuXLiXAngWT7b333pTi5JNPzmjcajFfKwQ2ijLm0bbaaqt4CR6WBYMTTzxRswus9Qsi95copd4FBMOzR/Y8V97cAw9CWkpr8CxnzJjBoHnYO+64o+TzL+la0gVCfFdoNx0bRhhCJD1y5MiyFDZgBZgYvn9DwUgty8jonHLKKRSgMfHzl7/8pZC0w3XXXbfXV4pVI4uwChgFJixmfTBAf9SKBWfyVHvs2LH1/aeolqoWf4JJUrjBrKeddppATcKD852ppShNMYgVZuD233//huMiRtlss81oeLGJBc8880zjpeoAbbvmKu62qD1Vcvbs2XmlChhWzK1PdXSIsx6hwkUXXSRTlfxix1QYMecV9ksuuSTF6kjsqzBDzDp7/A022GDEiBHoc/LkyWkKbau1yUwm9jTIhhtuGBPfGJMISYv1q+N//euCCy6QU2ejSFdIGpCcwwxi4yRp/JTF+SFpjOiRt912Wzk8KoZY4foSnrwm1+vraquImPV6BOnZtQMhzKKHYJNNNlGlHXfckXRpK3rHlBdbj+mJWaaEyosSDz30kDbECkWGtf8555zj4rlm4MHxgbiNV1T0FPfEIc70kxu5+Oabb37SSSfJzLt5oIMcqhLpXX6tf/u3TTfdVM3dyL8TJ04siy4D1+HJlZK6XuceeOCBKk8Y2BD5VdE1jm7VWzl88sknH3300aqMN+gFotvQuxZDGV8ZSZMz5pVTec899zDNDB/KYRCrQj1g2ugqq4c+q6wO2FxRKUdbrQTEHG22kjspnxGMGc3UNdNz+OGHK4kVrrjiCrqKCB955BH53PZcrSDvsK5iBNkXPHLeX1Q3Rqp7JTkzXSIVWs3QN7SRsUs46HnZR7EC3hK41OPLK6+8sv5OeYC9eAArtKiYAV11y8Jo6lbuF4up0z042iZF7777rs4aM2ZMVa4HCeKZVOZVAt2WxeqHHHJIoY06NNE222zDlCdecS8+WUy5IIwpTzFWKYvpDjjggCy6zji8jqgPPPD/lCEk1XFn8k/oWR10gFMJSWlMFXjggQey8U443mFIOmu/gXflMDn4D5OpMIEkA+JyDVIfcl+NEFC66csvv1wdd1xYkkBI8voiHQnnBWlhDegvoV4OxXk6wqM50YPI0UpYULMrpn2Wn9nTdxSQGIePReraH5dTc39lK1+6mV01rr322hB8lubhZs4Bth7V80oemcm4Eagk/0aVlMz6Z4Fp492BvMRIqesvcUCGZISqbpqcFi2GEdY0SYsqXIeN81vHySef/IMf/KB7NxyZTB7WbAz8Mg34iTKzGuVqiJzjTIeFCwxrSJpxz7+BR1AejcVY52oFIksmqW62VjsYphJ8rEkM3ttl/SB7lYC4jcXXNSeccEJGODgW3S+E8EJOOeUU3adnWXNswRBjlIRcfYGE6EoOlsi1H8dCsyMGHICtnZJMfV3nfqcjpPo0BDHLzEIBVn7nnXeqgy48+eSTrgnon7eRTP5owsHkIPjx48enZYB7UUquXmQFZRo8mD17tpzFixffd999Eg21Ak9HR8S1/uXUitvoS4a40G0oOQMtyPj000/3bzb09QiaLiwe4HIBumg+Awx0mbfNSd1jjz0QalXoX/+ijBgXQ0vzPpVE6tJ6QTU6RZaPovPCNZS6qbNDxRoTBMRGJl+hOv4i6DWPvzpo0WL4YE2TNKqg+SJmllck8eijj6JtHNwIGVcIDCI3vz5bBsXyCiPYI3f55JNPYgj8xdN3a3VImRaDBN164403zuvZQHtYAKM0JlBWC/gfWVkWaJkXXnhB43BcuplydSFDSu7LJeLozJgxw2HWruev8847D3dSkLKAMRPkanXQQQdh5cs6W7s7l5JKiEf5MTh1785H79GwsLgMO6+33np5g46Kuf7o0aNR+COPPOJh/ZVBEb5LtsUNhLkC3FQJXFC8PmvWLOmsBuB4iafjiKPzjNNmrL7enpBhjDIN0cD+++/POagOWrQYPvgKhrtbtGixZhAmLkCHHNMMNuTViYLwIuBjh07MygDsOHLkSPk8CYcYPW/8Fy7kcAuOUXtWPk6cOPGwww7LC74777xzWfGQtwERf2OoY8mSJfLrX8jYd999Mw+SpQwPPPDAlp0P6rgLlyLOt2rIKY5F8M4778i8+uqruQWq9/jjj9fv9a1vfeuAAw6oDlq0GD5oSbpFi7UWIenM1u+yyy71l6+yjBH1/v3vf//000/LOoxFne/ZvPLKKxgub8/nhbRcSvCalXSzZ88++eSTjzvuOCG1Q1fL9yGCLbbYAu/Wh8dwpPwRI0ZkYXlB3lNC51yB1DMQUiNaiYTOLp5lZdM7W9afeOKJCjeG3zLzXYDU6/caN27cgQceWB20aDF80JJ0ixZrLcKsr776alYsbr755tg03JZg9OOuz7FnGUHmjEXVeX9JOovY5edDEeuss8522223xx577LbbbqLtc845543Ou3BHHXUUupUQtZ9++umhWEDSymPWDTfcsP6+nDLrrrvu5MmT8b1KXnHFFaeccorTf/GLX9RJOnAXOch47Nix3Yz74IMP+tdZfBFux+9qW3+AqpYXIFu0GEZoSbpFi7UWd999N7X98MMPpV977bVsdoFuHeZtt+4XGRJh16kxOPbYYzfYYIMszmp8rWHrrbc+4ogj8tLgY4895q/HH39cyIu8N9lkk6wtF8h++9vfFriP6uzKPmfOnCwQmTBhwpQpUzqXqZDdaW655ZZuks6Q+4033ojsG69rwq233urfbMnejeOPPx79VwctWgwftCTdosVai/Bc2TwOJe+1117rdfa5w1j1XcQLMhP8x66vqwmgRcPZhHLx4sVVbgeCVKHws50N8+uf7xSIb7bZZmPGjEHb2267bXa0/eyzzw4//HAlhcIqtummm57X+fpqwe87e/NdcMEFeaerTtJ5oTwbxNZfkwuu7Oz7Vt8Dp4G6Y9GixXBBS9ItWqy1yPcxM14dZOL2+9///nHHHbfOOuuIblGmX0E27QasqUD9tbRAYcHo2Wef/Y1vfKP+Xj7su++++DskndexCrJV2X/8x3+4cvlAJ7K85JJL5Oc9tPI6XIFA+cwzz2ysDluwYIHQnEPgdImyQ5Gne+WVV95///1zzz133XXXTWY3OCgffPBBddCixfBBS9ItWqy1SFhcX2D1j3/8A5MJo0866STqPHHixD333HPChAmHHHLI6aefLjzFglt2drWrI+9fzZkz584778xHverA8Ug6u8A+/vjjVW4HDmW+8cYb2223XWOroosvvviMM85wxxLoF+Rrb3mTO9PV+VjZyJEj87rafvvtt+GGG06dOlV8z2nw18knnzxr1izkrSajR49m10aNGuVfdcsWmDvvvPOOO+44GC/XtWgxqGhJukWLtRYvvfQShmsw0z333LN48eLPP/+8e0wbxLXIuDqoYcaMGU8//XR18EUcddRRgum//e1vSLGxkS3kreiPP/44k9ADAd/ioYceEiLzG3bZZZftt99+7Nix11xzTdkF6MMPPzzmmGPwMd/isssu++lPf+pZFi5cuM8++2DlY4899rvf/a4HnzZtGgN3wgknOGXSpEnlbewWLYYRWpJu0aLFKoETUN+fZGiijaFbDFO0JN2iRYsWLVoMUbQk3aJFixYtWgxRtCTdokWLFi1aDFG0JN2iRYsWLVoMUbQk3aJFixYtWgxRtCTdokWLFi1aDFG0JN2iRYsWLVoMUbQk3aJFixYtWgxRtCTdokWLFi1aDFG0JN2iRYsWLVoMUbQk3aJFixYtWgxRtCTdokWLFi1aDFG0JN2iRYsWLVoMUbQk3aJFixYtWgxRtCTdokWLFi1aDFG0JN2iRYsWLVoMUbQk3aJFixYtWgxRtCTdokWLFi1aDFG0JN2iRYsWLVoMUawYSX/zm990QosWLVq0aNFiDWCdddYZKEnvv//+irZo0aJFixYt1hgmTZpU0fAX0Tt1t2jRokWLFi2+crQk3aJFixYtWgxRtCTdokWLFi1aDFG0JN2iRYsWLVoMUbQk3aJFixYtWgxRtCTdokWLFi1aDFG0JN2iRYsWLVoMUbQk3aJFixYtWgxRtCTdokWLFi1aDEn861//D55Thc0ayy39AAAAAElFTkSuQmCC;" vertex="1" parent="1">
          <mxGeometry x="1890" y="700" width="652" height="371" as="geometry" />
        </mxCell>
        <mxCell id="O4K4HBv5JaWxibDUjjqJ-149" value="&lt;p style=&quot;margin: 0px; margin-top: 4px; text-align: center; text-decoration: underline;&quot;&gt;&lt;b&gt;Stop&lt;/b&gt;&lt;/p&gt;&lt;hr&gt;&lt;p style=&quot;margin: 0px; margin-left: 8px;&quot;&gt;StopId&lt;/p&gt;&lt;p style=&quot;margin: 0px; margin-left: 8px;&quot;&gt;AirportId&lt;/p&gt;&lt;p style=&quot;margin: 0px; margin-left: 8px;&quot;&gt;ArrivalDate&lt;/p&gt;&lt;p style=&quot;margin: 0px; margin-left: 8px;&quot;&gt;DepartureDate&lt;/p&gt;" style="verticalAlign=top;align=left;overflow=fill;fontSize=12;fontFamily=Helvetica;html=1;strokeColor=#003366;shadow=1;fillColor=#D4E1F5;fontColor=#003366" vertex="1" parent="1">
          <mxGeometry x="1470" y="430" width="160" height="200" as="geometry" />
        </mxCell>
        <mxCell id="O4K4HBv5JaWxibDUjjqJ-150" value="How do stops work? Is airportId a good thing to store here?" style="whiteSpace=wrap;html=1;shape=mxgraph.basic.document" vertex="1" parent="1">
          <mxGeometry x="1480" y="570" width="140" height="100" as="geometry" />
        </mxCell>
      </root>
    </mxGraphModel>
  </diagram>
</mxfile>
